<svg xmlns="http://www.w3.org/2000/svg" xmlns:xlink="http://www.w3.org/1999/xlink" width="599.472" height="464.5" viewBox="0 0 599.472 464.5"><defs><linearGradient id="a" x1="0.5" y1="1" x2="0.5" gradientUnits="objectBoundingBox"><stop offset="0" stop-color="#fcf5f1"/><stop offset="0.005" stop-color="#fcf5f1"/><stop offset="0.477" stop-color="#256de9"/><stop offset="1" stop-color="#707070"/></linearGradient><linearGradient id="b" x1="0.5" y1="1" x2="0.5" gradientUnits="objectBoundingBox"><stop offset="0" stop-color="#466de5"/><stop offset="1" stop-color="#78bfff"/></linearGradient><linearGradient id="d" x1="1.294" y1="0.807" x2="-0.165" y2="0.279" xlink:href="#b"/><linearGradient id="f" x1="0.497" y1="0.987" x2="0.497" y2="0.033" xlink:href="#b"/><linearGradient id="g" x1="0.29" y1="1.082" x2="0.781" y2="0.221" xlink:href="#b"/><linearGradient id="h" x1="2.079" y1="1.011" x2="2.079" y2="0.007" gradientUnits="objectBoundingBox"><stop offset="0" stop-color="#29225e"/><stop offset="1" stop-color="#3f368c"/></linearGradient><linearGradient id="i" x1="3.277" y1="1.006" x2="3.277" y2="0.005" xlink:href="#h"/><linearGradient id="j" x1="0.459" y1="0.6" x2="1.246" y2="0.278" gradientUnits="objectBoundingBox"><stop offset="0" stop-color="#256de9"/><stop offset="1" stop-color="#707070"/></linearGradient><linearGradient id="k" x1="0.755" y1="1.136" x2="0.18" y2="0.178" gradientUnits="objectBoundingBox"><stop offset="0" stop-color="#b3d3f4"/><stop offset="1" stop-color="#d3dced"/></linearGradient><linearGradient id="l" x1="0.5" y1="1" x2="0.5" gradientUnits="objectBoundingBox"><stop offset="0" stop-color="#256de9"/><stop offset="0.372" stop-color="#256de9"/><stop offset="0.654" stop-color="#256de9"/><stop offset="0.907" stop-color="#256de9"/><stop offset="1" stop-color="#256de9"/></linearGradient><linearGradient id="m" x1="0.755" y1="1.235" x2="0.245" y2="-0.235" gradientUnits="objectBoundingBox"><stop offset="0" stop-color="#cde8ff"/><stop offset="1" stop-color="#eee7e9"/></linearGradient><linearGradient id="n" x1="0.75" y1="1.588" x2="0.25" y2="0.412" xlink:href="#m"/><linearGradient id="o" x1="-11.573" y1="1.069" x2="-11.037" y2="0.223" xlink:href="#b"/><linearGradient id="p" x1="0.92" y1="0.308" x2="-0.115" y2="1.072" xlink:href="#j"/><linearGradient id="q" x1="0.5" y1="1" x2="0.5" y2="0" xlink:href="#h"/><linearGradient id="s" x1="0.5" y1="0.433" x2="0.5" y2="0.97" xlink:href="#j"/><linearGradient id="t" x1="0.89" y1="1.185" x2="0.104" y2="-0.137" gradientUnits="objectBoundingBox"><stop offset="0" stop-color="#5789ee"/><stop offset="1" stop-color="#78bfff"/></linearGradient><linearGradient id="u" y1="0.5" x2="1" y2="0.5" gradientUnits="objectBoundingBox"><stop offset="0" stop-color="#fcc73c"/><stop offset="1" stop-color="#fc7a3c"/></linearGradient><linearGradient id="v" x1="0.5" y1="0.344" x2="0.5" y2="1.054" xlink:href="#j"/><linearGradient id="w" x1="0.5" y1="1" x2="0.5" gradientUnits="objectBoundingBox"><stop offset="0" stop-color="#fcae3c"/><stop offset="1" stop-color="#fc7a3c"/></linearGradient><linearGradient id="x" x1="0.5" y1="1" x2="0.5" y2="0" xlink:href="#w"/><linearGradient id="ac" x1="0.5" y1="0.317" x2="0.5" y2="1.015" gradientUnits="objectBoundingBox"><stop offset="0" stop-color="#707070"/><stop offset="1" stop-color="#256de9"/></linearGradient><linearGradient id="ad" x1="0.5" y1="0.317" x2="0.5" y2="1.015" xlink:href="#u"/><linearGradient id="ae" x1="0" y1="0.5" x2="1" y2="0.5" xlink:href="#u"/></defs><g transform="translate(-842.847 -3045.547)"><g transform="translate(842.847 3045.547)"><g transform="translate(0 0)"><path d="M298.776,386.444H852.824c18.052,0-14.258,9.424-24.842,20.01s-9.968,14.987-36.309,23c-56.648,17.227-80.886-16.493-170.823-3.22-38.319,5.654-87.189,16.459-125.73,10.718-32.464-4.837-40.345-26.975-64.879-28.768-37.662-2.753-56.452-.047-90.815-1.727C309.984,405.015,251.684,386.444,298.776,386.444Z" transform="translate(-258.73 25.918)" fill="url(#a)"/><g transform="translate(0 220.67)"><g transform="translate(462.94)"><path d="M568.971,452.938c-1.771-60.983,12.015-135,60.055-177,7.711-6.741,17.138-15.429,28.081-14.637,5.091.369,7.616,6.193,8.381,10.514,1.366,7.714.037,15.648-1.847,23.253-10.4,42-44.695,115.51-53.466,157.875" transform="translate(-568.823 -261.246)" fill="url(#b)"/><path d="M640.985,272.011c-47.754,62.413-56.343,140.4-54.837,174.159" transform="translate(-559.706 -255.529)" fill="none" stroke="#92d0ff" stroke-miterlimit="10" stroke-width="1"/><g transform="translate(41.352 57.993)"><path d="M595.831,432.822c6.432-39.466,13.186-71.7,35.8-104.673,9.306-13.566,27.231-30.331,41.492-28.946,15.3,1.488,4.443,24.61-4.635,41.865a243.339,243.339,0,0,0-25.109,73.745c1.263-7.735,6.63-29.76,22.489-39.547,4.658-2.875,16.112-4.554,16.112,4.979,0,16.749-16.28,36.863-20.353,52.577" transform="translate(-595.831 -299.122)" fill="url(#b)"/><path d="M659.737,307.129c-14.67,18.621-43.918,83.057-47.507,120.27" transform="translate(-587.121 -294.87)" fill="none" stroke="#92d0ff" stroke-miterlimit="10" stroke-width="1"/><path d="M653.98,353.017c-11.272,11.272-18.187,31.934-22.1,51.18" transform="translate(-576.685 -270.498)" fill="none" stroke="#92d0ff" stroke-miterlimit="10" stroke-width="1"/></g></g><g transform="translate(0 25.253)"><path d="M361.12,444.179c-9.3-76.941-2.543-110.471,6.216-131.783,4.082-9.932,9.948-19.768,18.249-26.776,33.22-28.035,32.212,26.471,30.651,42.994-3.555,37.641-12.99,77.872-13.844,115.565" transform="translate(-218.572 -277.739)" fill="url(#d)"/><path d="M368,443.624c-1.055-24.205-11.858-47.82-25.619-67.354-13.84-19.646-32.875-35.317-45.335-55.951-6.676-11.056-17.239-28.439-1.618-37.5,17.32-10.052,42.762.487,56.693,11.979,15.149,12.5,25.1,30.2,33.415,47.691,14.679,30.886,17.625,66.943,17.854,101.139" transform="translate(-255.395 -277.185)" fill="url(#b)"/><path d="M382.378,421.863c.069-24.637-12.483-50.646-32.306-69.891-12.95-12.574-28.444-24.357-46.111-29.543-9.171-2.693-34.807-6.959-37.378,8.286-.974,5.775,4.238,16.631,16.726,26.52,17.361,13.746,65.323,35.122,71.108,64.627" transform="translate(-266.468 -255.423)" fill="url(#f)"/><path d="M274.265,327.392c33.227,9.035,79.543,39.362,88.347,89.821" transform="translate(-262.327 -251.368)" fill="none" stroke="#92d0ff" stroke-miterlimit="10" stroke-width="1"/><path d="M298.109,287.675c33.3,17.56,73.91,72.4,78.453,150.632" transform="translate(-249.663 -272.462)" fill="none" stroke="#92d0ff" stroke-miterlimit="10" stroke-width="1"/><path d="M391.153,282.592c-18.716,45.456-21.976,109.268-20.889,158.415" transform="translate(-211.44 -275.162)" fill="none" stroke="#92d0ff" stroke-miterlimit="10" stroke-width="1"/></g><g transform="translate(35.452 135.339)"><path d="M346.6,405.992c-2.973-13.29-5.586-27.142-13.508-38.592-5.181-7.489-15.746-17.923-25.15-17.759-6.991.121-8.58,6.846-7.767,12.9,2.133,15.868,10.932,20.711,14.348,37.869-1.7-6.5-12.192-29.005-21.4-20.4-10.128,9.464,4.975,25.983,4.975,25.983" transform="translate(-289.623 -349.639)" fill="url(#g)"/><path d="M294.487,372.21c4.817,5.517,11,13.387,13.492,21.794" transform="translate(-287.04 -337.651)" fill="none" stroke="#92d0ff" stroke-miterlimit="10" stroke-width="1"/><path d="M303.994,356c12.756,12.757,21.664,39.676,23.973,46.612" transform="translate(-281.99 -346.26)" fill="none" stroke="#92d0ff" stroke-miterlimit="10" stroke-width="1"/></g></g><g transform="translate(107.09)"><path d="M580.249,380.476H753.372a48.482,48.482,0,0,0,48.483-48.483h0a48.482,48.482,0,0,0-48.483-48.481H383.763A25.717,25.717,0,0,1,358.046,257.8h0a25.716,25.716,0,0,1,25.717-25.717H694.324A22.772,22.772,0,0,0,717.1,209.307h0a22.771,22.771,0,0,0-22.772-22.771H410.131A12.529,12.529,0,0,1,397.6,174.009h0a12.528,12.528,0,0,1,12.528-12.528h82.63" transform="translate(-324.92 -93.563)" fill="none" stroke="#b3d3f4" stroke-miterlimit="10" stroke-width="1" stroke-dasharray="4"/><g transform="translate(156.627 27.053)"><path d="M469.478,135.163a26.369,26.369,0,0,0-22.81,44.875l-3.561,7.231,7.992-3.734a26.378,26.378,0,1,0,18.379-48.372Z" transform="translate(-438.707 -134.791)" fill="#f3faff"/><path d="M449.447,169.089l-2.725-3.267a2.968,2.968,0,0,1,.377-4.181l3.139-2.618a2.969,2.969,0,0,1,4.181.377s1.45,2.18,3.151,1.791c1.935-.443,6.144-3.514,8.409-5.895,1.6-1.677-1.087-4.633-1.087-4.633a2.971,2.971,0,0,1,.378-4.183l3.139-2.618a2.968,2.968,0,0,1,4.181.378l2.725,3.266C481.458,154.868,454.8,175.5,449.447,169.089Z" transform="translate(-434.817 -130.341)" fill="#b3d3f4"/></g><path d="M538.917,173.443c3.909-3.75,5.527-7.605,10.912-8.81a10.144,10.144,0,0,0,3.215-.977c2.621-1.629,2.085-5.344,2.675-8.285,1.159-5.8,8.729-9.459,14.279-6.91,2.324,1.067,4.431,3.036,7,2.862,5.138-.351,4.523-6.689,8.035-10.3,3.316-3.414,10.075-3.861,14.386-1.7a22.093,22.093,0,0,1,7.57,6.149c2.09,2.709,2,6.892,3.538,9.876,1.47,2.885,4.99,4.139,6.526,6.976a8.641,8.641,0,0,1,.655,7.679c-2.194,5.267-8.634,9.069-14.472,9.069H524.368S534.562,177.619,538.917,173.443Z" transform="translate(-236.584 -106.033)" fill="#f3faff"/><path d="M433.776,147.077c-3.3-3.169-4.671-6.428-9.222-7.446a8.575,8.575,0,0,1-2.718-.825c-2.216-1.376-1.764-4.517-2.26-7-.98-4.9-7.378-7.994-12.068-5.84-1.964.9-3.745,2.568-5.918,2.419-4.344-.3-3.823-5.653-6.792-8.709-2.8-2.886-8.514-3.263-12.159-1.433a18.644,18.644,0,0,0-6.4,5.2c-1.767,2.287-1.687,5.824-2.99,8.346-1.242,2.438-4.217,3.5-5.515,5.9a7.306,7.306,0,0,0-.554,6.489c1.854,4.452,7.3,7.665,12.232,7.665h66.658S437.457,150.606,433.776,147.077Z" transform="translate(-320.346 -117.122)" fill="#f3faff"/><g transform="translate(367.798 32.355)"><path d="M627.384,204.864l-46.328-24.791,12.2-36.213,56.387,29.194Z" transform="translate(-574.274 -135.277)" fill="#cfe0f5"/><path d="M645.41,176.031l-56.387-29.194,40.194-8.583Z" transform="translate(-570.043 -138.254)" fill="#cfe0f5"/><rect width="50.831" height="42.937" transform="translate(25.925 8.568) rotate(27.373)" fill="#256de9"/><path d="M595.607,143.86l-18.981,36.66,37.014-2.439Z" transform="translate(-576.627 -135.277)" fill="#e6f1fc"/><path d="M639.155,162.927l-18.98,36.66L600.8,167.954Z" transform="translate(-563.787 -125.15)" fill="#e6f1fc"/><path d="M633.014,201.709l-56.387-29.194,42.88-13.585Z" transform="translate(-576.627 -127.273)" fill="#e6f1fc" style="mix-blend-mode:multiply;isolation:isolate"/><path d="M633.014,199.974,576.627,170.78l40.195-8.583Z" transform="translate(-576.627 -125.538)" fill="#e6f1fc"/></g><g transform="translate(0 76.081)"><path d="M385.487,203.61l-37.75,9.451-11.326-25.936,45.459-12.041Z" transform="translate(-336.411 -162.418)" fill="#cfe0f5"/><path d="M381.869,179.478,336.411,191.52l17.779-24.708Z" transform="translate(-336.411 -166.812)" fill="#cfe0f5"/><rect width="37.646" height="31.799" transform="matrix(0.967, -0.256, 0.256, 0.967, 3.802, 21.245)" fill="#256de9"/><path d="M336.411,182.949l7.828,29.555L363.33,192.75Z" transform="translate(-336.411 -158.241)" fill="#e6f1fc"/><path d="M372.531,175.085l7.828,29.555-26.367-7.713Z" transform="translate(-327.073 -162.418)" fill="#e6f1fc"/><path d="M386.982,200.2l-45.459,12.041,16.764-28.788Z" transform="translate(-333.695 -157.975)" fill="#e6f1fc" style="mix-blend-mode:multiply;isolation:isolate"/><path d="M386.982,198.781l-45.459,12.041,17.78-24.708Z" transform="translate(-333.695 -156.56)" fill="#e6f1fc"/></g></g><g transform="translate(214.24 53.992)"><g transform="translate(90.486)"><path d="M465.491,164.043l1.4-2.186a15.608,15.608,0,0,1-.4-3.531c0-.879.289-3.2.64-3.394s.511,1.963.661,1.88,1.275-4.315,1.908-4.257c.32.031-.779,4.132-.779,4.132s1.084-4.452,1.585-4.3-.692,4.4-.692,4.4,1.046-4.036,1.468-3.9-.675,4.064-.675,4.064,1.038-3.5,1.268-3.3c.352.3-.044,2.713-1.05,6.117-.173.59-1.023,2.539-1.069,2.7s-1,3.682-1,3.682" transform="translate(-465.491 -152.385)" fill="#fc8975"/><path d="M467.1,155.555a5.493,5.493,0,0,1,1.136,2.738,4.261,4.261,0,0,1-.4,1.747" transform="translate(-464.637 -150.702)" fill="none" stroke="#cc6658" stroke-miterlimit="10" stroke-width="0.5"/></g><g transform="translate(17.523 112.407)"><path d="M435.669,332.221s8.187,2.99,8.244,5.411c.032,1.387-11.877,1.349-12.618.43-1.187-1.471.874-5.536.874-5.536Z" transform="translate(-410.886 -169.28)" fill="#352e72"/><path d="M435.184,328.379l.184,6.968a1.76,1.76,0,0,1-1.465,1.294c-1.208.158-2.041-1.2-2.041-1.2l-.357-8.717" transform="translate(-410.578 -172.198)" fill="#fc8975"/><path d="M448.041,226.876s4.457,27.052,2.217,78.955c-1.53,35.45-6.317,78.3-8.072,78.349a22.691,22.691,0,0,1-3.324-.168s-11.165-51.366-11.926-80.3c-1.17-44.546-12.918-54.763-7.826-77.914" transform="translate(-417.837 -225.801)" fill="url(#h)"/><path d="M436.383,327.4l-.328,3.07-4.892.134-.231-3.054Z" transform="translate(-410.883 -171.843)" fill="#75a1e9"/></g><g transform="translate(2.057 112.804)"><path d="M419.176,332.674s8.187,2.99,8.243,5.411c.032,1.387-11.877,1.349-12.618.43-1.188-1.471.874-5.537.874-5.537Z" transform="translate(-404.18 -169.436)" fill="#352e72"/><path d="M418.691,328.832l.184,6.968a1.76,1.76,0,0,1-1.465,1.294c-1.208.158-2.041-1.2-2.041-1.2l-.357-8.717" transform="translate(-403.872 -172.354)" fill="#fc8975"/><path d="M438.966,227.135s-2.1,34.407-4.742,74.121c-1.044,15.689-10.058,81.293-11.329,83.464l-4.456.122s-6.778-56.772-7.538-85.7c-1.17-44.545-5.961-49.928-.867-73.078" transform="translate(-407.736 -226.06)" fill="url(#i)"/><path d="M419.965,327.846l-.328,3.07-4.892.134L414.514,328Z" transform="translate(-404.137 -172)" fill="#75a1e9"/><path d="M429.143,238.131s-1.736,43.963-4.947,69.712" transform="translate(-398.994 -219.649)" fill="none" stroke="#4a578e" stroke-miterlimit="10" stroke-width="0.5"/></g><path d="M444.354,168.2c-2.793-4.926-10.367-4.18-14.7-1.925-6.141,3.2-7.6,12.318-13.342,16.219-2.54,1.726-5.607,2.741-7.643,5.062a10.574,10.574,0,0,0-1.649,10.249,15.772,15.772,0,0,0,6.881,8.04,33.445,33.445,0,0,0,9.981,3.7c5.533,1.275,11.427,1.958,16.8.09s10.029-6.875,10.01-12.676c-.017-4.909-3.238-9.5-2.675-14.373" transform="translate(-406.393 -145.935)" fill="#081466"/><path d="M496.388,158.912s-14.66,21.034-18.015,25.822c-5.216,7.446-26.649,8.887-38.111,15.672l-7.945.864c-3.774.767-16.8,10.036-18.015,13.771-2.779,8.522-5.582,17.168-6.08,26.138-.168,3.041-.069,6.091.031,9.135q.216,6.61.43,13.218a1.442,1.442,0,0,0,.205.841,1.347,1.347,0,0,0,.81.4c14.388,3.321,29.377,1.533,44.023-.271a2.425,2.425,0,0,0,1.436-.505,2.5,2.5,0,0,0,.53-1.778c.078-2.819-.084-5.636-.2-8.453a244.234,244.234,0,0,1,1.285-36.548c4.537-2.846,23.3-8.737,29.576-17.5A75.151,75.151,0,0,0,500.4,159.909Z" transform="translate(-405.47 -148.919)" fill="url(#j)"/><path d="M431.87,189.5l-.285-10.064-4.46.616-3.2,10.208a4.926,4.926,0,0,0,4.76,1.657C431.535,191.528,431.87,189.5,431.87,189.5Z" transform="translate(-397.079 -138.016)" fill="#fc8975"/><path d="M422.911,181.229c-.23-3.946.939-8.184,3.022-10.5s5.97-2.653,8.838-2.261a5.38,5.38,0,0,1,2.73,1.1c2.83,2.353,2.641,7.776,2.442,11.1a13.752,13.752,0,0,1-2.762,7.847,5.386,5.386,0,0,1-2.03,1.657,9.534,9.534,0,0,1-8.882-1.323C424.015,187.058,423.075,184.044,422.911,181.229Z" transform="translate(-397.635 -143.919)" fill="#fc8975"/><path d="M423.388,186.159c-1.049.49-2.678.845-3.492-.306-.651-.92-.084-2.3.146-3.28a87.235,87.235,0,0,1,2.751-9.383,17.616,17.616,0,0,1,2.168-4.534c1.931-2.656,7.414-3.891,10.637-3.584,3.543-.234,9.187,5.538,6.1,12.252-.459-1.644-1.11-1.5-2.32-2.889a7.13,7.13,0,0,1-4.411,1.946c-2.144.194-4.619-.294-6.19,1.208-1.611,1.537-1.277,4.281-2.442,6.193A6.593,6.593,0,0,1,423.388,186.159Z" transform="translate(-399.382 -145.671)" fill="#081466"/><path d="M425.435,177.738a1.272,1.272,0,0,0-1.049-1.566c-1.629-.173-2.116,2.387-1.484,3.551.469.862,1.652,1.572,2.265.534" transform="translate(-397.766 -139.757)" fill="#fc8975"/><g transform="translate(19.52 18.879)"><g transform="translate(6.143 21.434)"><path d="M427.893,182.382a7.65,7.65,0,0,1-1.2-.2,5.222,5.222,0,0,1-3.053-2,2.353,2.353,0,0,1-.489-1.28.185.185,0,1,1,.369-.012,1.986,1.986,0,0,0,.418,1.072,4.875,4.875,0,0,0,2.842,1.851,11.6,11.6,0,0,0,3.407.188.187.187,0,0,1,.195.179.185.185,0,0,1-.175.2A15.81,15.81,0,0,1,427.893,182.382Z" transform="translate(-423.154 -178.715)" fill="#081466"/><g transform="translate(6.374 2.876)"><path d="M428.825,180.726a1.351,1.351,0,0,0-1.04-.057c-1.173.381.1,1.906,1.159,1.122a.742.742,0,0,0,.214-.234A.657.657,0,0,0,428.825,180.726Z" transform="translate(-427.317 -180.593)" fill="#081466"/></g></g><g transform="translate(3.058)"><path d="M421.139,177.195a15.7,15.7,0,0,1,2.842-7.668c2.064-2.638,4.825-4.811,7.473-4.811a8.465,8.465,0,0,1,3.323.522,14.222,14.222,0,0,0-7.222,4.275,12.992,12.992,0,0,0-3.491,8.593" transform="translate(-421.139 -164.716)" fill="#75a1e9"/></g><path d="M428.894,177.405a5.193,5.193,0,0,1-4.315,5.89,5.135,5.135,0,0,1-5.406-4.855,5.191,5.191,0,0,1,4.315-5.889A5.133,5.133,0,0,1,428.894,177.405Z" transform="translate(-419.142 -160.568)" fill="#75a1e9"/><path d="M426.217,177.188a3.5,3.5,0,0,1-2.8,4.021,3.459,3.459,0,0,1-3.552-3.345,3.5,3.5,0,0,1,2.8-4.021A3.459,3.459,0,0,1,426.217,177.188Z" transform="translate(-418.771 -159.877)" fill="#2d4cba"/></g></g><g transform="translate(174.573 81.441)"><path d="M544.616,170.313,380.485,314.029V511.653H708.746V314.029Z" transform="translate(-380.485 -170.313)" fill="url(#k)"/><rect width="295.078" height="270.39" transform="translate(16.592 50.555)" fill="url(#l)"/><g transform="translate(33.489 59.491)"><rect width="261.283" height="23.088" transform="translate(0 26.196)" fill="#fff"/><rect width="261.283" height="23.088" transform="translate(0 60.101)" fill="#fff"/><rect width="261.283" height="137.287" transform="translate(0 94.006)" fill="#fff"/><text transform="translate(8.456 37.144)" fill="#256de9" font-size="6" font-family="SegoeUI, Segoe UI" letter-spacing="0.1em"><tspan x="0" y="0">NAME</tspan></text><text transform="translate(8.456 71.853)" fill="#256de9" font-size="6" font-family="SegoeUI, Segoe UI" letter-spacing="0.1em"><tspan x="0" y="0">EMAIL</tspan></text><text transform="translate(8.456 105.722)" fill="#256de9" font-size="6" font-family="SegoeUI, Segoe UI" letter-spacing="0.1em"><tspan x="0" y="0">MESAGE</tspan></text><text transform="translate(119.374 11)" fill="#fff" font-size="10" font-family="SegoeUI, Segoe UI"><tspan x="-29.053" y="0">CONTACT US</tspan></text></g><path d="M544.616,389.64,380.485,264.177V441.406H708.746V264.177Z" transform="translate(-380.485 -120.46)" fill="#c9d3f4" opacity="0.55" style="mix-blend-mode:multiply;isolation:isolate"/><path d="M544.616,410.066,380.485,264.177V461.8H708.746V264.177Z" transform="translate(-380.485 -120.46)" fill="url(#m)"/><path d="M544.616,292.189,380.485,446.923H708.746Z" transform="translate(-380.485 -105.583)" fill="#c9d3f4" opacity="0.35" style="mix-blend-mode:multiply;isolation:isolate"/><path d="M544.616,302.039,380.485,441.692H708.746Z" transform="translate(-380.485 -100.352)" fill="url(#n)"/></g><g transform="translate(444.786 359.519)"><path d="M558.24,424.784c-3.323-17.312.147-35.09,7.065-49.891,4.524-9.683,14.95-23.172,26.577-22.959,8.643.158,12.27,8.851,12.771,16.677,1.311,20.512-8.328,26.775-8.277,48.954.485-8.4,8.611-35.678,21.3-26.372,12.428,9.113.322,33.591.322,33.591" transform="translate(-556.967 -351.931)" fill="url(#o)"/><path d="M598.018,381.11c-4.255,7.133-9.522,17.308-10.346,28.177" transform="translate(-540.659 -336.434)" fill="none" stroke="#92d0ff" stroke-miterlimit="10" stroke-width="1"/><path d="M585,360.156c-11.73,16.492-15.449,51.292-16.423,60.26" transform="translate(-550.799 -347.563)" fill="none" stroke="#92d0ff" stroke-miterlimit="10" stroke-width="1"/></g><g transform="translate(200.187 105.386)"><g transform="translate(27.616 47.702)"><path d="M416.588,217.107a10.794,10.794,0,0,0,2.8,1.513,25.279,25.279,0,0,1,4.419-.292c.911.09,3.27.616,3.4.988s-2.136.315-2.079.475,4.241,1.719,4.059,2.35c-.092.318-4.145-1.2-4.145-1.2s4.42,1.54,4.165,2.027-4.442-1.141-4.442-1.141,3.993,1.459,3.777,1.871-4.12-.626-4.12-.626,3.4.741,3.214,1.147c-.095.21-3.822-.262-7.009-1.461a24.266,24.266,0,0,1-5.379-2.946" transform="translate(-415.251 -217.107)" fill="#fc8975"/></g><path d="M427.625,203.74c-3.681,5.608-12.2,12.084-16.9,16.054,2.7,3.662,17.98,15.071,17.98,15.071l-1.418,3.4s-29.123-5.224-30.05-19.606c-.556-8.6,10.337-21.281,18.791-27.238,7.925-5.582,17.2-6.493,22.088-4.511" transform="translate(-397.215 -185.952)" fill="url(#p)"/></g><g transform="translate(435.54 167.397)"><path d="M559.207,243.076c-3.209-1.32-7.783-5.232-7.255-7.458.225-.949,2.487,1.629,3.122,1,.417-.418.073-2.327-1.086-3.254s-3.56-2.634-2.969-3.225,6.472.718,7.79,2.712a22.542,22.542,0,0,1,2.31,7.084l2.439,3.145" transform="translate(-550.928 -224.573)" fill="#fc8975"/><g transform="translate(55.825 114.003)"><path d="M600.044,401.74s-10.018,3.035-10.009,5.321c0,1.309,14.717.966,15.6.078,1.419-1.418-1.26-5.2-1.26-5.2Z" transform="translate(-585.983 -247.358)" fill="#352e72"/><path d="M596.572,398.145v6.581a2,2,0,0,0,1.851,1.182,3.118,3.118,0,0,0,2.484-1.182l.158-8.236" transform="translate(-582.511 -250.146)" fill="#fc8975"/><path d="M589.5,302.675s-4.628,25.645-.178,74.568c3.041,33.417,10.349,73.732,12.517,73.732a36.791,36.791,0,0,0,4.1-.245s12.128-48.766,12.128-76.089c0-42.07,14.186-52.017,7.14-73.732" transform="translate(-587.388 -300.91)" fill="url(#q)"/><path d="M595.838,397.2l.505,2.888h6.049l.186-2.888Z" transform="translate(-582.901 -249.77)" fill="#75a1e9"/></g><g transform="translate(75.792 114.003)"><path d="M620.438,401.74s-10.018,3.035-10.009,5.321c0,1.309,14.717.966,15.6.078,1.419-1.418-1.26-5.2-1.26-5.2Z" transform="translate(-595.118 -247.358)" fill="#352e72"/><path d="M616.966,398.145v6.581a2,2,0,0,0,1.851,1.182,3.118,3.118,0,0,0,2.483-1.182l.158-8.236" transform="translate(-591.646 -250.146)" fill="#fc8975"/><path d="M600.429,302.675s3.711,32.415,8.263,69.826c1.8,14.78,15.066,76.458,16.707,78.474h5.509s6.532-53.753,6.532-81.077c0-42.069,5.745-47.273-1.3-68.989" transform="translate(-600.429 -300.91)" fill="url(#q)"/><path d="M616.138,397.2l.506,2.888h6.049l.186-2.888Z" transform="translate(-592.086 -249.77)" fill="#75a1e9"/><path d="M601.67,312.773s3.571,41.444,8.374,65.66" transform="translate(-599.77 -294.609)" fill="none" stroke="#4a578e" stroke-miterlimit="10" stroke-width="0.5"/></g><g transform="translate(7.275 15.458)"><path d="M661.326,331.477c0-2.679,2.085-48.9-5.944-59.348-2.271-4.864-10.669-10.373-17.358-12.765-5.9-2.108-9.612-.465-12.3-.078-11.283-3.24-37.083-1.073-44.239-4.748-3.938-2.023-22.363-17.991-22.363-17.991l-3.445,2.679s11.007,23,23.383,31.039c8.7,5.654,21.618,8.795,28.52,10.162-.1,1.266-.184,2.656-.254,4.2a468.281,468.281,0,0,0-.364,46.852c.09,2.3-2.392,5.226-2.392,6.757s2.983,6.374,27.794,6.374c21.044,0,31.045-3.088,31.045-6.594C663.411,334.4,661.326,334.156,661.326,331.477Z" transform="translate(-555.679 -236.548)" fill="url(#s)"/><path d="M590.152,259.028s-.466,7.907-.574,9.461" transform="translate(-537.675 -224.609)" fill="none" stroke="#707070" stroke-miterlimit="10" stroke-width="0.5" opacity="0.75" style="mix-blend-mode:multiply;isolation:isolate"/></g><path d="M601.119,232.916c-.942,3.707-3.229,13.9-1.125,17.092,2.079,3.157,6.637,4.062,10.122,2.6s5.9-4.837,7.009-8.449a31.4,31.4,0,0,0,.845-11.241" transform="translate(-525.327 -223.019)" fill="#fc8975"/><path d="M603.578,242.871l-1.458,12.358s.53,3.46,2.419,4.782c4.648-.1,6.9-4.529,6.9-4.529l-1.392-15.913" transform="translate(-523.739 -219.486)" fill="#fc8975"/><path d="M614.481,239.774c-2.393-.862-5.68-.553-8.683-1.063-2.085-.352-4.316-.4-6.279-1.259-3.575-1.565-3.249-6.967-.337-9.018a3.779,3.779,0,0,1,2.8-.883c1.047.242,1.435,1.344,2.361,1.759a3.074,3.074,0,0,0,1.592.22,1.971,1.971,0,0,0,1.1-.413c.507-.443.718-1.144,1.21-1.614a3.733,3.733,0,0,1,1.742-.887,5.293,5.293,0,0,1,4.159.634,5.248,5.248,0,0,0,1.257.824,12.843,12.843,0,0,1,2.373.606c2,1.107,3.3,3.939,3.466,6.132.028.346.6.687.807.929,1.989,2.323,2.127,5.578,1.588,8.453s-1.531,5.621-3.88,7.509a10.513,10.513,0,0,1-3.044,1.311c-4.142,1.462-2.038-9.957-2.229-13.241" transform="translate(-526.502 -226.452)" fill="#352e72"/><path d="M608.882,239.7a1.373,1.373,0,0,1,2.056-.957,1.683,1.683,0,0,1,.831,1.294c.08,1.148-.691,2.882-2.108,3.146-.539.1-1.116-.583-1.147-1.109" transform="translate(-520.343 -220.038)" fill="#fc8975"/><g transform="translate(78.381 2.515)"><g transform="translate(2.281 20.956)"><g transform="translate(1.041)"><path d="M606.781,245.368a8.011,8.011,0,0,0,1.2-.191,5.242,5.242,0,0,0,3.053-1.952,2.272,2.272,0,0,0,.489-1.251.185.185,0,1,0-.369-.012,1.912,1.912,0,0,1-.418,1.047,4.892,4.892,0,0,1-2.842,1.81,11.866,11.866,0,0,1-3.407.184.185.185,0,1,0-.02.369A16.253,16.253,0,0,0,606.781,245.368Z" transform="translate(-604.29 -241.782)" fill="#081466"/></g><g transform="translate(0 2.812)"><path d="M604,243.749a1.365,1.365,0,0,1,1.04-.055c1.173.371-.1,1.863-1.159,1.1a.729.729,0,0,1-.214-.23A.635.635,0,0,1,604,243.749Z" transform="translate(-603.61 -243.618)" fill="#081466"/></g></g><path d="M615.758,240.3a15.127,15.127,0,0,0-2.842-7.5c-2.064-2.58-4.825-4.705-7.473-4.705a8.621,8.621,0,0,0-3.323.511,14.294,14.294,0,0,1,7.222,4.178,12.558,12.558,0,0,1,3.491,8.4" transform="translate(-602.12 -228.095)" fill="#75a1e9"/><path d="M606.666,240.5a4.9,4.9,0,1,0,5.406-4.746A5.094,5.094,0,0,0,606.666,240.5Z" transform="translate(-599.722 -224.039)" fill="#75a1e9"/><path d="M608.169,240.288a3.218,3.218,0,1,0,3.551-3.269A3.426,3.426,0,0,0,608.169,240.288Z" transform="translate(-598.919 -223.363)" fill="#a2c0ed"/></g><g transform="translate(24.944 38.274)"><g transform="translate(0 36.362)"><path d="M622.578,307.567H573.037l-4.854-29.933a2.1,2.1,0,0,1,2.072-2.434h44.156a3.432,3.432,0,0,1,3.387,2.883Z" transform="translate(-566.721 -275.199)" fill="#a2c0ed"/><path d="M621.641,307.567H572.1l-4.852-29.933a2.1,2.1,0,0,1,2.072-2.434h44.154a3.433,3.433,0,0,1,3.388,2.883Z" transform="translate(-567.219 -275.199)" fill="url(#t)"/><path d="M589.011,286.65c-.542-2.523-2.462-4.31-4.289-3.989s-2.871,2.627-2.329,5.151,2.462,4.31,4.289,3.99S589.553,289.174,589.011,286.65Z" transform="translate(-559.236 -271.256)" fill="#abd1ff"/></g><g transform="translate(38.995)"><path d="M635.726,263.017c-2.271-4.864-8.268-6.921-14.959-9.312l-1.834,22.605c.827,10.3,4.554,25.2,4.554,25.2L602.771,317.18l.031.057a3.461,3.461,0,0,1-.833.443c-.283,0-2.291-1.136-3.356-.952s-2.291.254-2.291.64,1.631.423,1.631.79-1.1,1.1-1.6,1.1-3.453-.213-3.638,0,.628,1.553,1.442,2.274a5.319,5.319,0,0,0,2.62.9,17.478,17.478,0,0,0,5.6-1.046c.344-.245,1.2-.723,2.035-1.171l.7,1.3s28.228-2.249,36.725-6.124C642.1,301.467,642.03,271.224,635.726,263.017Z" transform="translate(-592.687 -250.252)" opacity="0.75" fill="url(#u)" style="mix-blend-mode:multiply;isolation:isolate"/><path d="M604.541,294.44a21.3,21.3,0,0,1-2.572,1.373c-.283,0-2.291-.974-3.356-.816s-2.291.219-2.291.548,1.631.361,1.631.675-1.1.937-1.6.937a23.5,23.5,0,0,0-3.638,0c-.187.185.628,1.326,1.442,1.945a5.929,5.929,0,0,0,2.62.769,20.138,20.138,0,0,0,5.6-.894c.755-.461,3.984-1.882,3.984-1.882" transform="translate(-592.687 -228.617)" fill="#fc8975"/><path d="M614.871,251.45s14.5.916,21.388,14.313,4.737,41.948.527,46.158-36.287,9.4-36.287,9.4l-1.225-2.943,22.584-14.112s-7.034-23.575-7.034-33.144" transform="translate(-589.19 -251.45)" fill="url(#v)"/></g></g><g transform="translate(76.363 35.742)"><path d="M603.694,254.49c1.043,1.043,1.485,2.526,2.49,4.658,4.817-1.588,6.328-6.907,6.328-6.907l-1.922-2.28S606.805,253.876,603.694,254.49Z" transform="translate(-599.266 -249.708)" fill="url(#w)"/><path d="M605.239,254.578a11.226,11.226,0,0,0-2.419,3.938c-1.226-1.226-2.13-5.65-2.007-6.186a30.663,30.663,0,0,1,2.007-2.534A9,9,0,0,0,605.239,254.578Z" transform="translate(-600.802 -249.796)" fill="url(#x)"/></g></g><g transform="translate(34.234 163.499)"><g transform="translate(48.983 73.555)"><path d="M331.681,400.956s-10.02,3.033-10.01,5.319c.006,1.311,14.719.966,15.605.08,1.419-1.419-1.1-5.714-1.1-5.714Z" transform="translate(-320.367 -203.596)" fill="#352e73"/><path d="M328.209,397.251v6.581a2,2,0,0,0,1.851,1.182,3.113,3.113,0,0,0,2.483-1.182l.158-8.236" transform="translate(-316.894 -206.275)" fill="#fc8975"/><path d="M335.461,282.032c-6.734,8.706-14.642,33.34-14.642,80.1,0,33.049,10.718,102.266,10.718,102.266l6.124.51c19.584-123.715,12.973-122.435,17.862-144.434,3.062-13.78-3.159-48.529-3.159-48.529" transform="translate(-320.819 -271.947)" fill="url(#q)"/><path d="M342.912,339.079s-4.224-23.472-4.224-28.269c-1.827,9.594-1.827,22.024,0,30.745,1.341,6.4,2.735,12.659,2.735,12.659Z" transform="translate(-312.057 -251.306)" opacity="0.35" fill="url(#q)" style="mix-blend-mode:multiply;isolation:isolate"/><path d="M327.648,396.522v2.615s6.4,1.076,6.4.68.289-3.01.289-3.01Z" transform="translate(-317.192 -205.784)" fill="#75a1e9"/><g transform="translate(10.461)"><path d="M365.2,400.956s10.018,3.033,10.009,5.319c0,1.311-14.719.966-15.605.08-1.418-1.419,1.1-5.714,1.1-5.714Z" transform="translate(-310.91 -203.596)" fill="#352e73"/><path d="M363.933,397.251l1.124,6.581a2.008,2.008,0,0,1-1.853,1.182,3.109,3.109,0,0,1-2.482-1.182l-1.281-8.236" transform="translate(-310.767 -206.275)" fill="#fc8975"/><path d="M359.438,278.107c6.634,11.165,18.4,34.177,18.4,80.939,0,33.051-.87,105.331-.87,105.331l-5.255.533c-16.917-47.233-31.005-107.42-34.309-142.482-1.324-14.054,1.206-50.481,1.206-50.481" transform="translate(-322.676 -271.947)" fill="url(#q)"/><path d="M365.194,278.633a189.1,189.1,0,0,0-21.763-5.166c-.017.272-.035.557-.055.871l-11.543,6.887a35.933,35.933,0,0,0-4.181,7.362,52.384,52.384,0,0,0,14.8,3.316c9.553.851,21.486-1.014,27.611-3.877C368.343,284.272,366.67,281.181,365.194,278.633Z" transform="translate(-327.651 -271.14)" opacity="0.35" fill="url(#q)" style="mix-blend-mode:multiply;isolation:isolate"/><path d="M366.113,396.2v2.615s-6.72,1.075-6.72.678-.3-3.01-.3-3.01Z" transform="translate(-310.953 -205.954)" fill="#75a1e9"/></g></g><g transform="translate(0 3.218)"><g transform="translate(148.792 44.221)"><path d="M386.006,262.554l2.168-1.181a14.431,14.431,0,0,1,1.234-3.12c.393-.729,1.674-2.531,2.058-2.531s-.439,1.865-.274,1.865,3.009-3.009,3.522-2.67c.259.171-2.506,3.082-2.506,3.082s2.909-3.211,3.266-2.854-2.552,3.348-2.552,3.348,2.689-2.881,2.99-2.58-2.387,3.073-2.387,3.073,2.444-2.438,2.552-2.168c.164.412-1.249,2.237-3.623,4.61-.412.412-2,1.647-2.113,1.756s-2.5,2.608-2.5,2.608" transform="translate(-386.006 -254.891)" fill="#fc8975"/><path d="M389.833,256.932a5.139,5.139,0,0,1-.254,2.8A3.935,3.935,0,0,1,388.461,261" transform="translate(-384.702 -253.807)" fill="none" stroke="#cc6658" stroke-miterlimit="10" stroke-width="0.5"/></g><path d="M295.853,236.589l-1.516-1.948a14.358,14.358,0,0,0,.115-3.355c-.069-.825-.522-2.989-.874-3.142s-.343,1.885-.495,1.819-1.557-3.959-2.16-3.855c-.306.054,1.066,3.828,1.066,3.828s-1.384-4.1-1.854-3.921,1,4.088,1,4.088-1.314-3.714-1.712-3.558.962,3.771.962,3.771-1.268-3.212-1.474-3.007c-.315.311.251,2.549,1.479,5.673.213.542,1.179,2.309,1.236,2.454s1.248,3.387,1.248,3.387" transform="translate(-288.827 -226.009)" fill="#fc8975"/><path d="M291.836,228.863a5.15,5.15,0,0,0-.884,2.664,3.951,3.951,0,0,0,.516,1.614" transform="translate(-287.7 -224.493)" fill="none" stroke="#cc6658" stroke-miterlimit="10" stroke-width="0.5"/><g transform="translate(2.667 8.903)"><path d="M438.226,273.879s-21.947,8.087-26.931,8.087c-4.114,0-11.122-11.116-20.822-18.692a55.1,55.1,0,0,0-12.884-7.282l-18.318-.383a145.827,145.827,0,0,0-16.639,1.334c-9.113,1.237-17.657.83-21.633-.951-7.694-3.445-26.938-24.129-26.938-24.129a4.045,4.045,0,0,0-3.492,1.274c0,1.023,9.906,29.3,22.967,37.769,9.608,6.23,23.605,7.25,32.345,7.19v5.824c0,2.871-3.431,17.02.625,21.074,3.725,3.725,17.94,4.189,23.49,4.189,8.23,0,16.651-1.306,18.756-4.189,1.055-1.445.9-7.885.571-13.788,6.584,4.143,12.535,8.271,20.133,8.271,14.224,0,30.958-22.25,30.958-22.25Z" transform="translate(-290.569 -231.824)" fill="url(#ac)"/><path d="M357.384,276.872l-.185-4.1-6.147-6.223Z" transform="translate(-258.446 -213.383)" opacity="0.75" fill="url(#ad)" style="mix-blend-mode:multiply;isolation:isolate"/><path d="M327.877,265.133c0-.729,1.237-7.778,1.237-8.9-1.847,3.976-4.647,8.867-4.647,8.867Z" transform="translate(-272.565 -218.86)" opacity="0.75" fill="url(#ae)" style="mix-blend-mode:multiply;isolation:isolate"/></g></g><g transform="translate(55.237)"><path d="M351.97,226.094c5.169,3.221,4.286,9.81,6.377,13.93,1.511,2.977,3.881,5.5,4.1,9.037.243,3.86-4.774,5.664-7.464,5.247-5.264-.815-9.787,1.865-15.091,1.223-3.613-.438-2.251-2.251-4.607-5.025a10.749,10.749,0,0,1-2.312-6.046,25.535,25.535,0,0,1,.469-6.541" transform="translate(-320.648 -222.746)" fill="#f42a73"/><path d="M341.068,242.188l-1.029,9.482-4.6.712s3.208,5.788,8.311,5.788,10.007-5.4,10.007-5.4l-4.985-1.543-1.9-13.319" transform="translate(-319.307 -216.474)" fill="#fc8975"/><path d="M334.306,233a30.573,30.573,0,0,0,.1,9.513c.694,3.108,2.554,6.129,5.474,7.4a11.842,11.842,0,0,0,4.218.828c2.421.107,5-.175,6.927-1.649,2.243-1.721,3.13-4.769,2.946-7.591a25.945,25.945,0,0,0-2.361-8.1q-1.509-3.649-3.021-7.3" transform="translate(-320.083 -222.746)" fill="#fc8975"/><path d="M327.316,246.785c-1.006,1.242-2.225,2.477-2.395,4.065a3.88,3.88,0,0,0,2.287,3.793,7.428,7.428,0,0,0,3.819.289,17.028,17.028,0,0,1,4.42.178c1.237.243,2.424.694,3.638,1.04a12.588,12.588,0,0,0,5.52.481,1.06,1.06,0,0,0,.816-.443,1.2,1.2,0,0,0-.165-1.012,15.339,15.339,0,0,1-.937-7.792,20.831,20.831,0,0,1,.648-4.021,23.153,23.153,0,0,1,1.242-3.186c.9-1.981,2.024-3.881,2.88-5.876.833-1.987,1.355-5.059,4.137-4.656,1.791.26,2.552,3.15,3.744,4.909,1.77-2.021,3.76-3.246-.009-8.034-1.886-2.4-5.1-2.265-7.951-1.744-1.6-.107-1.49-.735-3.091-.844-5.229-.355-10.854,3.206-13.145,8C330.211,237.281,330.807,242.479,327.316,246.785Z" transform="translate(-324.903 -223.907)" fill="#f42a73"/><g transform="translate(9.489 0.024)"><g transform="translate(6.143 20.956)"><path d="M339.852,241.2a8.021,8.021,0,0,1-1.2-.193,5.243,5.243,0,0,1-3.053-1.952,2.265,2.265,0,0,1-.488-1.251.185.185,0,0,1,.369-.012,1.913,1.913,0,0,0,.418,1.047,4.892,4.892,0,0,0,2.842,1.81,11.927,11.927,0,0,0,3.407.185.184.184,0,1,1,.02.367A16.24,16.24,0,0,1,339.852,241.2Z" transform="translate(-335.113 -237.61)" fill="#081466"/><g transform="translate(6.374 2.811)"><path d="M340.784,239.576a1.372,1.372,0,0,0-1.04-.055c-1.173.372.1,1.863,1.159,1.1a.723.723,0,0,0,.214-.228A.635.635,0,0,0,340.784,239.576Z" transform="translate(-339.276 -239.446)" fill="#081466"/></g></g><g transform="translate(3.058)"><path d="M333.1,236.123a15.129,15.129,0,0,1,2.842-7.5c2.064-2.58,4.825-4.7,7.473-4.7a8.644,8.644,0,0,1,3.323.51,14.3,14.3,0,0,0-7.222,4.18,12.552,12.552,0,0,0-3.491,8.4" transform="translate(-333.098 -223.923)" fill="#081466"/></g><path d="M340.853,236.33a4.9,4.9,0,1,1-5.406-4.746A5.094,5.094,0,0,1,340.853,236.33Z" transform="translate(-331.101 -219.867)" fill="#081466"/><path d="M338.175,236.115a3.218,3.218,0,1,1-3.551-3.269A3.428,3.428,0,0,1,338.175,236.115Z" transform="translate(-330.729 -219.192)" fill="#2d4cba"/></g></g></g><g transform="translate(29.314 53.991)"><path d="M536.545,152.484l-7.691,3.218a1.244,1.244,0,0,0-.331,2.092l5.514,4.745a1.244,1.244,0,0,0,2.012-.615l2.177-7.963A1.244,1.244,0,0,0,536.545,152.484Z" transform="translate(-156.832 -152.385)" fill="none" stroke="#cfe0f5" stroke-miterlimit="10" stroke-width="1"/><path d="M317.659,218.609l2.255,8.026a1.243,1.243,0,0,0,2.035.583l5.383-4.893a1.244,1.244,0,0,0-.366-2.072l-7.637-3.133A1.244,1.244,0,0,0,317.659,218.609Z" transform="translate(-268.62 -118.054)" fill="none" stroke="#cfe0f5" stroke-miterlimit="10" stroke-width="1"/><path d="M638.3,284.573l5.909-5.881a1.244,1.244,0,0,0-.482-2.062l-6.9-2.315a1.243,1.243,0,0,0-1.631,1.328l.986,8.2A1.245,1.245,0,0,0,638.3,284.573Z" transform="translate(-99.948 -87.662)" fill="none" stroke="#cfe0f5" stroke-miterlimit="10" stroke-width="1"/><path d="M619.159,222.023l2.171,8.049a1.245,1.245,0,0,0,2.03.606l5.434-4.837a1.244,1.244,0,0,0-.344-2.076l-7.605-3.214A1.245,1.245,0,0,0,619.159,222.023Z" transform="translate(-108.487 -116.234)" fill="none" stroke="#cfe0f5" stroke-miterlimit="10" stroke-width="1"/><rect width="4.766" height="4.766" transform="translate(481.467 92.18) rotate(-37.391)" fill="#cfe0f5"/><rect width="4.766" height="4.766" transform="matrix(0.999, -0.044, 0.044, 0.999, 446.144, 56.791)" fill="#cfe0f5"/><rect width="4.766" height="4.766" transform="matrix(0.932, -0.363, 0.363, 0.932, 140.365, 120.019)" fill="#cfe0f5"/><rect width="4.766" height="4.766" transform="translate(187.704 2.199) rotate(20.972)" fill="#cfe0f5"/><rect width="4.766" height="4.766" transform="matrix(0.999, -0.044, 0.044, 0.999, 0, 240.292)" fill="#cfe0f5"/></g></g></g></g></svg>