<svg xmlns="http://www.w3.org/2000/svg" xmlns:xlink="http://www.w3.org/1999/xlink" width="152" height="63" viewBox="0 0 152 63"><defs><clipPath id="a"><rect width="152" height="63" fill="none"/></clipPath></defs><g clip-path="url(#a)"><g transform="translate(-318 -1415)"><circle cx="4" cy="4" r="4" transform="translate(318 1415)" fill="#256de9"/></g><g transform="translate(-305 -1415)"><circle cx="4" cy="4" r="4" transform="translate(318 1415)" fill="#256de9"/></g><g transform="translate(-292 -1415)"><circle cx="4" cy="4" r="4" transform="translate(318 1415)" fill="#256de9"/></g><g transform="translate(-279 -1415)"><circle cx="4" cy="4" r="4" transform="translate(318 1415)" fill="#256de9"/></g><g transform="translate(-266 -1415)"><circle cx="4" cy="4" r="4" transform="translate(318 1415)" fill="#256de9"/></g><g transform="translate(-253 -1415)"><circle cx="4" cy="4" r="4" transform="translate(318 1415)" fill="#256de9"/></g><g transform="translate(-240 -1415)"><circle cx="4" cy="4" r="4" transform="translate(318 1415)" fill="#256de9"/></g><g transform="translate(-227 -1415)"><circle cx="4" cy="4" r="4" transform="translate(318 1415)" fill="#256de9"/></g><g transform="translate(-214 -1415)"><circle cx="4" cy="4" r="4" transform="translate(318 1415)" fill="#256de9"/></g><g transform="translate(-201 -1415)"><circle cx="4" cy="4" r="4" transform="translate(318 1415)" fill="#256de9"/></g><g transform="translate(-188 -1415)"><circle cx="4" cy="4" r="4" transform="translate(318 1415)" fill="#256de9"/></g><g transform="translate(-175 -1415)"><circle cx="4" cy="4" r="4" transform="translate(318 1415)" fill="#256de9"/></g><g transform="translate(-318 -1402)"><circle cx="4" cy="4" r="4" transform="translate(318 1415)" fill="#256de9"/></g><g transform="translate(-305 -1402)"><circle cx="4" cy="4" r="4" transform="translate(318 1415)" fill="#256de9"/></g><g transform="translate(-292 -1402)"><circle cx="4" cy="4" r="4" transform="translate(318 1415)" fill="#256de9"/></g><g transform="translate(-279 -1402)"><circle cx="4" cy="4" r="4" transform="translate(318 1415)" fill="#256de9"/></g><g transform="translate(-266 -1402)"><circle cx="4" cy="4" r="4" transform="translate(318 1415)" fill="#256de9"/></g><g transform="translate(-253 -1402)"><circle cx="4" cy="4" r="4" transform="translate(318 1415)" fill="#256de9"/></g><g transform="translate(-240 -1402)"><circle cx="4" cy="4" r="4" transform="translate(318 1415)" fill="#256de9"/></g><g transform="translate(-227 -1402)"><circle cx="4" cy="4" r="4" transform="translate(318 1415)" fill="#256de9"/></g><g transform="translate(-214 -1402)"><circle cx="4" cy="4" r="4" transform="translate(318 1415)" fill="#256de9"/></g><g transform="translate(-201 -1402)"><circle cx="4" cy="4" r="4" transform="translate(318 1415)" fill="#256de9"/></g><g transform="translate(-188 -1402)"><circle cx="4" cy="4" r="4" transform="translate(318 1415)" fill="#256de9"/></g><g transform="translate(-175 -1402)"><circle cx="4" cy="4" r="4" transform="translate(318 1415)" fill="#256de9"/></g><g transform="translate(-318 -1389)"><circle cx="4" cy="4" r="4" transform="translate(318 1415)" fill="#256de9"/></g><g transform="translate(-305 -1389)"><circle cx="4" cy="4" r="4" transform="translate(318 1415)" fill="#256de9"/></g><g transform="translate(-292 -1389)"><circle cx="4" cy="4" r="4" transform="translate(318 1415)" fill="#256de9"/></g><g transform="translate(-279 -1389)"><circle cx="4" cy="4" r="4" transform="translate(318 1415)" fill="#256de9"/></g><g transform="translate(-266 -1389)"><circle cx="4" cy="4" r="4" transform="translate(318 1415)" fill="#256de9"/></g><g transform="translate(-253 -1389)"><circle cx="4" cy="4" r="4" transform="translate(318 1415)" fill="#256de9"/></g><g transform="translate(-240 -1389)"><circle cx="4" cy="4" r="4" transform="translate(318 1415)" fill="#256de9"/></g><g transform="translate(-227 -1389)"><circle cx="4" cy="4" r="4" transform="translate(318 1415)" fill="#256de9"/></g><g transform="translate(-214 -1389)"><circle cx="4" cy="4" r="4" transform="translate(318 1415)" fill="#256de9"/></g><g transform="translate(-201 -1389)"><circle cx="4" cy="4" r="4" transform="translate(318 1415)" fill="#256de9"/></g><g transform="translate(-188 -1389)"><circle cx="4" cy="4" r="4" transform="translate(318 1415)" fill="#256de9"/></g><g transform="translate(-175 -1389)"><circle cx="4" cy="4" r="4" transform="translate(318 1415)" fill="#256de9"/></g><g transform="translate(-318 -1376)"><circle cx="4" cy="4" r="4" transform="translate(318 1415)" fill="#256de9"/></g><g transform="translate(-305 -1376)"><circle cx="4" cy="4" r="4" transform="translate(318 1415)" fill="#256de9"/></g><g transform="translate(-292 -1376)"><circle cx="4" cy="4" r="4" transform="translate(318 1415)" fill="#256de9"/></g><g transform="translate(-279 -1376)"><circle cx="4" cy="4" r="4" transform="translate(318 1415)" fill="#256de9"/></g><g transform="translate(-266 -1376)"><circle cx="4" cy="4" r="4" transform="translate(318 1415)" fill="#256de9"/></g><g transform="translate(-253 -1376)"><circle cx="4" cy="4" r="4" transform="translate(318 1415)" fill="#256de9"/></g><g transform="translate(-240 -1376)"><circle cx="4" cy="4" r="4" transform="translate(318 1415)" fill="#256de9"/></g><g transform="translate(-227 -1376)"><circle cx="4" cy="4" r="4" transform="translate(318 1415)" fill="#256de9"/></g><g transform="translate(-214 -1376)"><circle cx="4" cy="4" r="4" transform="translate(318 1415)" fill="#256de9"/></g><g transform="translate(-201 -1376)"><circle cx="4" cy="4" r="4" transform="translate(318 1415)" fill="#256de9"/></g><g transform="translate(-188 -1376)"><circle cx="4" cy="4" r="4" transform="translate(318 1415)" fill="#256de9"/></g><g transform="translate(-175 -1376)"><circle cx="4" cy="4" r="4" transform="translate(318 1415)" fill="#256de9"/></g><g transform="translate(-318 -1363)"><circle cx="4" cy="4" r="4" transform="translate(318 1415)" fill="#256de9"/></g><g transform="translate(-305 -1363)"><circle cx="4" cy="4" r="4" transform="translate(318 1415)" fill="#256de9"/></g><g transform="translate(-292 -1363)"><circle cx="4" cy="4" r="4" transform="translate(318 1415)" fill="#256de9"/></g><g transform="translate(-279 -1363)"><circle cx="4" cy="4" r="4" transform="translate(318 1415)" fill="#256de9"/></g><g transform="translate(-266 -1363)"><circle cx="4" cy="4" r="4" transform="translate(318 1415)" fill="#256de9"/></g><g transform="translate(-253 -1363)"><circle cx="4" cy="4" r="4" transform="translate(318 1415)" fill="#256de9"/></g><g transform="translate(-240 -1363)"><circle cx="4" cy="4" r="4" transform="translate(318 1415)" fill="#256de9"/></g><g transform="translate(-227 -1363)"><circle cx="4" cy="4" r="4" transform="translate(318 1415)" fill="#256de9"/></g><g transform="translate(-214 -1363)"><circle cx="4" cy="4" r="4" transform="translate(318 1415)" fill="#256de9"/></g><g transform="translate(-201 -1363)"><circle cx="4" cy="4" r="4" transform="translate(318 1415)" fill="#256de9"/></g><g transform="translate(-188 -1363)"><circle cx="4" cy="4" r="4" transform="translate(318 1415)" fill="#256de9"/></g><g transform="translate(-175 -1363)"><circle cx="4" cy="4" r="4" transform="translate(318 1415)" fill="#256de9"/></g></g></svg>