<svg xmlns="http://www.w3.org/2000/svg" width="552.396" height="568.637" viewBox="0 0 552.396 568.637"><g transform="translate(-930.604 -216)"><g transform="translate(-102.17 116)"><g transform="translate(296.774 -210)"><g transform="translate(736 310)"><g transform="translate(0)"><g transform="translate(0 262.785)"><ellipse cx="276.198" cy="152.926" rx="276.198" ry="152.926" fill="#f5f5f5"/></g><g transform="translate(74.539 260.994)"><path d="M523.371,367.809,369.408,456.746a4.577,4.577,0,0,1-4.138,0L143.278,328.578a1.261,1.261,0,0,1,0-2.388l153.963-88.937a4.574,4.574,0,0,1,4.136,0L523.371,365.42A1.261,1.261,0,0,1,523.371,367.809Z" transform="translate(-73.103 -236.758)" fill="#e6e6e6"/><ellipse cx="92.486" cy="53.397" rx="92.486" ry="53.397" transform="translate(0 162.949)" fill="#e6e6e6"/><ellipse cx="72.798" cy="42.03" rx="72.798" ry="42.03" transform="translate(132.301 112.408)" fill="#e6e6e6"/><ellipse cx="45.696" cy="26.382" rx="45.696" ry="26.382" transform="translate(321.303 184.385)" fill="#e6e6e6"/></g><g transform="translate(160.248 14.904)"><g transform="translate(0 111.545)"><g transform="translate(202.571 194.665)"><path d="M331.561,286.549V423.208a3.048,3.048,0,0,1-1.378,2.388l-2.933,1.692a3.048,3.048,0,0,1-2.758,0l-2.933-1.692a3.048,3.048,0,0,1-1.378-2.388V286.549c0-.878.617-1.236,1.378-.8l2.933,1.693a3.048,3.048,0,0,0,2.758,0l2.933-1.693C330.944,285.314,331.561,285.671,331.561,286.549Z" transform="translate(-320.181 -285.565)" fill="#37474f"/><path d="M324.492,427.289l-2.933-1.692a3.048,3.048,0,0,1-1.378-2.388V286.549c0-.878.617-1.236,1.378-.8l2.933,1.693a3.048,3.048,0,0,1,1.378,2.388V426.493C325.871,427.373,325.253,427.729,324.492,427.289Z" transform="translate(-320.181 -285.565)" fill="#455a64"/></g><g transform="translate(327.613 122.428)"><path d="M433.076,227.906V364.564a3.049,3.049,0,0,1-1.38,2.388l-2.933,1.692a3.048,3.048,0,0,1-2.758,0l-2.932-1.692a3.046,3.046,0,0,1-1.38-2.388V227.906c0-.879.617-1.237,1.38-.8l2.932,1.694a3.048,3.048,0,0,0,2.758,0l2.933-1.694C432.457,226.67,433.076,227.027,433.076,227.906Z" transform="translate(-421.694 -226.921)" fill="#37474f"/><path d="M426.005,368.645l-2.932-1.692a3.046,3.046,0,0,1-1.38-2.388V227.906c0-.879.617-1.237,1.38-.8l2.932,1.694a3.046,3.046,0,0,1,1.38,2.387V367.849C427.384,368.729,426.766,369.085,426.005,368.645Z" transform="translate(-421.694 -226.921)" fill="#455a64"/></g><g transform="translate(34.17 97.488)"><path d="M194.85,207.658V344.316a3.048,3.048,0,0,1-1.378,2.388l-2.934,1.694a3.052,3.052,0,0,1-2.758,0l-2.932-1.692a3.05,3.05,0,0,1-1.38-2.388V207.658c0-.879.618-1.235,1.38-.8l2.933,1.694a3.055,3.055,0,0,0,2.758,0l2.933-1.694C194.233,206.423,194.85,206.779,194.85,207.658Z" transform="translate(-183.468 -206.674)" fill="#37474f"/><path d="M187.779,348.4l-2.932-1.692a3.05,3.05,0,0,1-1.38-2.388V207.658c0-.879.618-1.235,1.38-.8l2.933,1.694a3.046,3.046,0,0,1,1.378,2.388V347.6C189.159,348.481,188.542,348.837,187.779,348.4Z" transform="translate(-183.468 -206.674)" fill="#455a64"/></g><path d="M521.929,260.664v-1a5.545,5.545,0,0,0-2.51-4.347L298.911,128.13a5.553,5.553,0,0,0-5.02,0L158.237,206.476a5.549,5.549,0,0,0-2.509,4.347v1a5.549,5.549,0,0,0,2.509,4.348L378.746,343.357a5.545,5.545,0,0,0,5.02,0l135.653-78.345A5.551,5.551,0,0,0,521.929,260.664Z" transform="translate(-155.728 -127.53)" fill="#258edc"/><g transform="translate(225.529 128.116)"><path d="M338.819,313.057v6.8a5.312,5.312,0,0,0,2.512-.6L476.977,240.91a5.552,5.552,0,0,0,2.512-4.348v-1a5.54,5.54,0,0,0-2.049-4.019c.909.774.755,1.855-.463,2.569L341.331,312.457A5.077,5.077,0,0,1,338.819,313.057Z" transform="translate(-338.819 -231.539)" fill="#258edc"/></g><g transform="translate(1.47)"><path d="M519.142,258.215,383.489,336.56a5.545,5.545,0,0,1-5.02,0L157.961,209.375c-1.386-.8-1.386-2.1,0-2.9L293.614,128.13a5.553,5.553,0,0,1,5.02,0L519.142,255.316C520.529,256.116,520.529,257.414,519.142,258.215Z" transform="translate(-156.921 -127.53)" fill="#707070"/><path d="M519.142,258.215,383.489,336.56a5.545,5.545,0,0,1-5.02,0L157.961,209.375c-1.386-.8-1.386-2.1,0-2.9L293.614,128.13a5.553,5.553,0,0,1,5.02,0L519.142,255.316C520.529,256.116,520.529,257.414,519.142,258.215Z" transform="translate(-156.921 -127.53)" opacity="0.4"/></g></g><g transform="translate(77.424 180.105)"><path d="M350.023,243.009l-32.14,18.61a3.982,3.982,0,0,1-3.6,0l-94.951-54.745a1.1,1.1,0,0,1,0-2.082l32.14-18.609a3.982,3.982,0,0,1,3.6,0l94.952,54.745A1.1,1.1,0,0,1,350.023,243.009Z" transform="translate(-218.583 -182.595)" opacity="0.15"/><g transform="translate(2.693)"><path d="M220.77,202.091a1.266,1.266,0,0,1,.746-1.041l30.195-17.43a3.976,3.976,0,0,1,3.6,0L347.445,236.9a1.264,1.264,0,0,1,.744,1.04v3.166a1.261,1.261,0,0,1-.748,1.04l-30.179,17.428a3.984,3.984,0,0,1-3.6,0l-92.144-53.195a1.273,1.273,0,0,1-.746-1.036C220.769,204.963,220.77,202.466,220.77,202.091Z" transform="translate(-220.77 -183.19)" fill="#263238"/><path d="M317.263,256.328l30.179-17.35a1.1,1.1,0,0,0,0-2.077l-92.134-53.281a3.976,3.976,0,0,0-3.6,0l-30.195,17.43a1.1,1.1,0,0,0,0,2.079l92.144,53.2A3.992,3.992,0,0,0,317.263,256.328Z" transform="translate(-220.769 -183.19)" fill="#37474f"/><path d="M297.738,246.454v3.238a3.73,3.73,0,0,0,1.691-.416L329.6,231.849a1.273,1.273,0,0,0,.749-1.04v-3.176a1.276,1.276,0,0,1-.749,1.041l-30.169,17.357A3.718,3.718,0,0,1,297.738,246.454Z" transform="translate(-202.929 -172.888)" fill="#263238"/><path d="M225.309,201.7a.048.048,0,0,1,.021-.038l2.988-1.724,4.054,2.34-3.006,1.782-4.05-2.338Zm4.678-2.7a.049.049,0,0,1,.021-.038L233,197.24l3.184,1.838-3.008,1.784-3.18-1.837Zm.985,5.97a.048.048,0,0,1,.021-.038l2.99-1.726,3.183,1.838-3.009,1.784L230.979,205Zm3.693-8.672a.055.055,0,0,1,.021-.039l2.988-1.724,5.143,2.97-3.007,1.785-5.14-2.969Zm.115,5.468a.047.047,0,0,1,.022-.038l2.987-1.726,2.53,1.46-3.008,1.785-2.526-1.458Zm.985,5.97a.052.052,0,0,1,.021-.038l2.988-1.724,3.184,1.838-3.008,1.782-3.178-1.835Zm3.152-3.58a.052.052,0,0,1,.023-.041l2.987-1.725,2.529,1.461-3.007,1.784-2.525-1.458Zm.426-10.559a.055.055,0,0,1,.021-.041l2.988-1.724,4.055,2.342-3.009,1.784-4.05-2.339Zm1.216,16.906a.046.046,0,0,1,.021-.038l2.987-1.726,23.007,13.282-3.01,1.784-23-13.28Zm.86-10.306a.051.051,0,0,1,.021-.041l2.988-1.724,2.528,1.461-3.007,1.784-2.525-1.458Zm1.639,6.347a.051.051,0,0,1,.021-.039l2.988-1.724,2.528,1.461-3.007,1.784-2.525-1.458Zm.965-15.649a.049.049,0,0,1,.021-.039l2.987-1.726,2.528,1.461-3.006,1.785-2.526-1.458Zm.984,5.97a.049.049,0,0,1,.021-.038l2.988-1.726,2.53,1.461-3.009,1.784-2.525-1.458Zm.551,5.72a.055.055,0,0,1,.021-.041l2.988-1.725,2.528,1.461-3.008,1.785-2.524-1.46Zm1.639,6.347a.055.055,0,0,1,.021-.039l2.988-1.724,2.528,1.461-3.009,1.784-2.523-1.458Zm.965-15.649a.051.051,0,0,1,.021-.039l2.987-1.724,2.529,1.46-3.007,1.784-2.526-1.457Zm.984,5.97a.047.047,0,0,1,.022-.038l2.987-1.726,2.53,1.461-3.008,1.784-2.526-1.458Zm.549,5.72a.052.052,0,0,1,.023-.039l2.987-1.726,2.529,1.461-3.009,1.785L249.7,205Zm0-17.358a.051.051,0,0,1,.022-.039l2.987-1.726,3.183,1.839-3.009,1.784-3.178-1.837Zm1.638,23.706a.051.051,0,0,1,.021-.039l2.987-1.724,2.528,1.461-3.006,1.784-2.526-1.458Zm.963-15.649a.049.049,0,0,1,.021-.039l2.987-1.725,2.529,1.46-3.007,1.784-2.525-1.457Zm.984,5.972a.047.047,0,0,1,.022-.039l2.987-1.726,2.53,1.461-3.008,1.784-2.526-1.458Zm.552,5.719a.051.051,0,0,1,.021-.039l2.988-1.726,2.528,1.461-3.009,1.784-2.523-1.458Zm1.64,6.347a.051.051,0,0,1,.021-.039l2.987-1.724,2.529,1.461-3.007,1.782-2.525-1.457Zm.815-22.289a.049.049,0,0,1,.021-.038l2.991-1.726,2.528,1.461-3.009,1.784-2.525-1.458Zm.145,6.642a.052.052,0,0,1,.023-.041l2.988-1.725,2.528,1.46-3.009,1.785-2.523-1.458Zm.988,5.97a.047.047,0,0,1,.021-.039l2.987-1.726,2.531,1.461-3.009,1.784-2.525-1.458Zm.548,5.719a.059.059,0,0,1,.023-.041L260.985,208l2.528,1.461-3.008,1.785-2.524-1.46Zm1.639,6.349a.052.052,0,0,1,.023-.039l2.988-1.726,2.528,1.461-3.009,1.784-2.523-1.458Zm.819-22.289a.049.049,0,0,1,.021-.041l2.987-1.724,2.53,1.461-3.008,1.784-2.526-1.458Zm.144,6.638a.044.044,0,0,1,.022-.037l2.99-1.726,2.528,1.461-3.008,1.784-2.524-1.458Zm.988,5.973a.047.047,0,0,1,.021-.039l2.988-1.724,2.53,1.46-3.009,1.784-2.525-1.457Zm.548,5.719a.051.051,0,0,1,.022-.039l2.99-1.726,2.528,1.461-3.008,1.784-2.524-1.458Zm1.642,6.347a.049.049,0,0,1,.021-.038l2.988-1.726,2.528,1.461-3.007,1.782-2.525-1.457Zm.817-22.289a.051.051,0,0,1,.021-.039l2.987-1.725,2.531,1.461-3.009,1.784-2.525-1.458Zm.147,6.641a.049.049,0,0,1,.022-.039l2.987-1.725,2.529,1.461-3.009,1.784-2.524-1.458Zm.458,21.872a.046.046,0,0,1,.021-.038l2.988-1.727,3.182,1.838-3.009,1.785-3.178-1.835Zm.527-15.9a.05.05,0,0,1,.021-.039l2.988-1.726,2.53,1.461-3.009,1.784-2.525-1.458Zm.549,5.718a.048.048,0,0,1,.021-.038l2.99-1.726,2.528,1.461-3.008,1.785-2.524-1.46Zm1.641,6.349a.051.051,0,0,1,.022-.039l2.987-1.724,2.528,1.461-3.008,1.784L267.9,220.91Zm.817-22.289a.046.046,0,0,1,.021-.038l2.988-1.726,2.53,1.461-3.009,1.784-2.525-1.458Zm.145,6.642a.052.052,0,0,1,.023-.041l2.987-1.725,2.529,1.461-3.009,1.784-2.524-1.458Zm.987,5.97a.047.047,0,0,1,.022-.039l2.987-1.726,2.53,1.461-3.009,1.784-2.525-1.458Zm.124,16.278a.056.056,0,0,1,.023-.041l2.988-1.724,3.182,1.838-3.006,1.785-3.18-1.837Zm.425-10.559a.055.055,0,0,1,.023-.041l2.987-1.724,2.529,1.461-3.009,1.784-2.523-1.458Zm1.64,6.349a.053.053,0,0,1,.023-.041l2.987-1.724,2.529,1.461-3.007,1.782-2.525-1.457Zm.963-15.65a.049.049,0,0,1,.021-.038l2.991-1.726,2.528,1.46-3.009,1.785L273,207.651Zm.988,5.97a.046.046,0,0,1,.021-.038l2.987-1.726,2.529,1.461-3.007,1.782-2.526-1.457Zm.548,5.72a.055.055,0,0,1,.021-.039l2.991-1.726,2.528,1.461L277.06,220.8l-2.523-1.46Zm.119-17.292a.049.049,0,0,1,.021-.038l2.988-1.726,2.53,1.461-3.009,1.784-2.525-1.458Zm.111,28.228a.051.051,0,0,1,.021-.041l2.987-1.724,3.185,1.838-3.009,1.784-3.18-1.835Zm1.409-4.59a.045.045,0,0,1,.021-.037l2.99-1.726,2.529,1.461-3.009,1.784-2.523-1.458Zm.963-15.647a.056.056,0,0,1,.023-.041l2.986-1.723,2.53,1.46-3.008,1.785-2.524-1.458Zm.988,5.97a.046.046,0,0,1,.021-.038l2.987-1.726,2.531,1.461-3.009,1.784-2.525-1.458Zm.548,5.719a.051.051,0,0,1,.022-.038l2.99-1.726,2.528,1.461-3.008,1.784-2.524-1.458Zm.12-17.291a.047.047,0,0,1,.022-.038l2.987-1.726,2.53,1.461-3.008,1.784-2.526-1.458Zm.765,28.6a.055.055,0,0,1,.021-.039l2.988-1.726,4.054,2.342-3.008,1.784-4.05-2.338Zm.755-4.964a.056.056,0,0,1,.023-.039l2.988-1.726,7.976,4.6-3.009,1.784-7.971-4.6Zm.964-15.651a.048.048,0,0,1,.021-.038l2.99-1.725,2.528,1.461-3.008,1.784-2.524-1.458Zm.987,5.973a.05.05,0,0,1,.021-.039l2.988-1.726,2.53,1.461-3.009,1.784-2.525-1.458Zm.549,5.718a.048.048,0,0,1,.021-.038l2.99-1.726,2.529,1.461-3.009,1.784-2.524-1.458Zm.119-17.289a.047.047,0,0,1,.021-.039l2.987-1.726,2.531,1.461-3.009,1.784-2.525-1.458Zm2.483,7.988a.046.046,0,0,1,.021-.038l2.99-1.724,2.529,1.461-3.009,1.784-2.523-1.458Zm.675,22a.046.046,0,0,1,.021-.037l2.991-1.728,2.528,1.461-3.009,1.785-2.523-1.46Zm.313-16.026a.049.049,0,0,1,.02-.039L289.407,219l2.528,1.461-3.006,1.782L286.4,220.79Zm.548,5.718a.043.043,0,0,1,.021-.036l2.99-1.727,2.311,1.334a1.559,1.559,0,0,0,.729.149,1.6,1.6,0,0,0,.764-.159l3.924-2.265,2.964,1.712-7.683,4.486-6.014-3.472Zm.12-17.291a.046.046,0,0,1,.021-.038l2.988-1.726,2.53,1.461-3.009,1.784-2.525-1.458Zm2.483,7.991a.049.049,0,0,1,.021-.038l2.988-1.726,2.53,1.461-3.009,1.784-2.523-1.458Zm.677,22a.046.046,0,0,1,.022-.038l2.987-1.727,2.528,1.462-3.008,1.784-2.524-1.46Zm.31-16.026a.047.047,0,0,1,.021-.039l2.987-1.726,2.529,1.461-3.009,1.784-2.524-1.457Zm2.469-10.532a.05.05,0,0,1,.021-.039l2.988-1.726,2.53,1.461-3.008,1.784-2.526-1.458Zm.682,6.949a.054.054,0,0,1,.022-.039l2.987-1.723,2.53,1.461-3.008,1.784L293.7,219.6Zm.676,22a.048.048,0,0,1,.023-.041l2.987-1.723,2.529,1.46-3.009,1.785-2.524-1.458Zm.538-5.091a.051.051,0,0,1,.022-.039l2.99-1.724,2.528,1.461-3.008,1.784-2.526-1.458Zm2.243-21.466a.047.047,0,0,1,.021-.039l2.987-1.726,2.528,1.461-3.006,1.784-2.526-1.458Zm.682,6.949a.046.046,0,0,1,.021-.038l2.987-1.724,4.491,2.593-3.009,1.784-4.484-2.59Zm1.547,22.5a.049.049,0,0,1,.021-.038l2.988-1.726,6.669,3.851-3.008,1.784-6.665-3.848Zm.745-15.774a.049.049,0,0,1,.022-.039l2.987-1.725,2.53,1.461-3.006,1.784-2.529-1.458Zm1.164-11.286a.047.047,0,0,1,.021-.039l2.987-1.726,2.529,1.461-3.007,1.784-2.525-1.458Zm2.769,24.36a.055.055,0,0,1,.021-.041L307.064,240l2.53,1.461-3.007,1.784-2.528-1.458Zm.207-10.684a.049.049,0,0,1,.021-.039l2.987-1.724,2.53,1.46-3.008,1.785-2.526-1.458Zm.54-5.09a.049.049,0,0,1,.021-.039l2.987-1.726,2.53,1.461-3.008,1.784-2.526-1.458Zm.623-6.2a.05.05,0,0,1,.021-.039l2.987-1.726,2.529,1.461-3.007,1.784-2.525-1.458Zm2.23,29.449a.051.051,0,0,1,.022-.039l2.987-1.723,2.531,1.46-3.009,1.784-2.526-1.458Zm.539-5.09a.05.05,0,0,1,.021-.039l2.988-1.726,2.53,1.461-3.009,1.784-2.525-1.457Zm.207-10.685a.049.049,0,0,1,.021-.039l2.988-1.724,2.53,1.461-3.009,1.784-2.525-1.458Zm.333,5.594a.055.055,0,0,1,.021-.039l2.988-1.726,2.528,1.461-3.007,1.785-2.525-1.458Zm.207-10.685a.051.051,0,0,1,.021-.039l2.987-1.724,2.531,1.461-3.009,1.784-2.525-1.458Zm1.538-5.666a.047.047,0,0,1,.021-.039l2.987-1.726,2.531,1.461-3.009,1.784-2.525-1.458Zm1.316,28.921a.051.051,0,0,1,.021-.039l7.665-4.426,2.531,1.461-7.685,4.486-2.529-1.46Zm.54-5.09a.051.051,0,0,1,.021-.041l2.987-1.725,2.53,1.461-3.008,1.785-2.526-1.458Zm.539-5.091a.046.046,0,0,1,.021-.038l2.987-1.727,2.528,1.461-3.006,1.785-2.526-1.458Zm.206-10.684a.055.055,0,0,1,.021-.039l2.988-1.724,2.53,1.461-3.009,1.784-2.525-1.458Zm.331,5.595a.046.046,0,0,1,.021-.038l2.99-1.727,2.528,1.461-3.008,1.784-2.524-1.458Zm1.207-11.262a.046.046,0,0,1,.021-.038l2.988-1.726,2.53,1.461-3.009,1.784-2.525-1.458Zm2.395,18.742a.051.051,0,0,1,.021-.039l2.987-1.726,2.529,1.461-3.007,1.785-2.525-1.458Zm.537-5.09a.046.046,0,0,1,.021-.038l2.99-1.727,2.529,1.461-3.009,1.784-2.523-1.458Zm.538-5.092a.051.051,0,0,1,.022-.038L321.1,231.9l2.53,1.46-3.008,1.784-2.524-1.458Zm.669-6.17a.046.046,0,0,1,.021-.038l2.988-1.726,2.53,1.461-3.009,1.784-2.525-1.458Zm2.395,18.742a.051.051,0,0,1,.021-.039l7.667-4.426,2.528,1.461-7.683,4.486-2.528-1.46Zm.537-5.091a.045.045,0,0,1,.021-.037l2.99-1.727,2.529,1.461-3.009,1.784-2.523-1.458Zm.539-5.091a.043.043,0,0,1,.021-.036l2.987-1.727,2.531,1.46-3.009,1.784-2.523-1.458Zm2.741-6.36a.047.047,0,0,1,.022-.039l1.269-.749,2.53,1.46-1.3.8-2.517-1.452Zm1.4,8.749a.054.054,0,0,1,.021-.038l2.988-1.725,2.53,1.46-3.009,1.784-2.523-1.458Zm2.742-6.36a.051.051,0,0,1,.021-.041l1.269-.748,2.53,1.461-1.3.8-2.517-1.452Zm1.4,8.749a.052.052,0,0,1,.021-.038l2.988-1.724,2.53,1.46-3.008,1.784-2.524-1.457Zm2.742-6.36a.051.051,0,0,1,.021-.041l1.269-.748,2.53,1.46-1.3.8-2.517-1.452Zm4.136,2.39a.055.055,0,0,1,.023-.041l1.269-.749,2.53,1.461-1.3.8-2.517-1.453Z" transform="translate(-219.717 -182.571)" fill="#258edc"/></g></g><g transform="translate(141.764 22.993)"><path d="M412.182,253.6l28.273-16.323L299.09,155.657,270.816,171.98Z" transform="translate(-270.816 -32.459)" opacity="0.15"/><g transform="translate(4.711)"><g transform="translate(33.289 136.591)"><path d="M324.981,224.505,304.8,212.834c-2.081-1.2-3.12-2.775-3.121-4.349s-.009-2.808-.009-2.808L320.66,194.9a4.446,4.446,0,0,0,2.009-3.481V166.53L357.924,186.9v24.886a4.44,4.44,0,0,1-2.009,3.48l-15.867,9.237A16.655,16.655,0,0,1,324.981,224.505Z" transform="translate(-301.666 -166.53)" fill="#e6e6e6"/><path d="M340.467,213.09v2.8l6.461-3.724a4.445,4.445,0,0,0,2.008-3.48V183.8l-6.717-3.875c-.139,1.706-.291,3.469-.43,5.186l4.71,2.726v19.442a4.413,4.413,0,0,1-2.007,3.48Z" transform="translate(-292.673 -163.425)" fill="#e0e0e0"/><path d="M355.494,209.628a4.443,4.443,0,0,1-2.009,3.48l-13.431,7.83a16.661,16.661,0,0,1-15.071,0l-20.2-11.67c-4.161-2.4-4.162-6.3,0-8.7l13.44-7.837a4.444,4.444,0,0,0,2.01-3.481V169.809l35.256,20.372Z" transform="translate(-301.666 -165.77)" fill="#f5f5f5"/><path d="M311.789,195.1v0l4.092-2.363a4.444,4.444,0,0,0,2.01-3.481V169.809l35.256,20.372v19.446a4.443,4.443,0,0,1-2.009,3.48l-4.022,2.322Z" transform="translate(-299.32 -165.77)" fill="#ebebeb"/><path d="M301.669,198.312v2.807c0,1.578,1.045,3.144,3.121,4.351l20.188,11.664a15.1,15.1,0,0,0,7.192,1.786v-2.795a15.126,15.126,0,0,1-7.192-1.786L304.79,202.663C302.714,201.468,301.669,199.89,301.669,198.312Z" transform="translate(-301.665 -159.163)" fill="#ebebeb"/></g><path d="M418.364,262.937a5.384,5.384,0,0,1-4.867-.09L277.152,184.13a5.549,5.549,0,0,1-2.51-4.349V60.44a4.718,4.718,0,0,1,7.223-4.171l136.342,78.717a5.551,5.551,0,0,1,2.512,4.349v119.34A5.383,5.383,0,0,1,418.364,262.937Z" transform="translate(-274.641 -55.641)" fill="#258edc"/><path d="M413.5,262.279,277.153,183.562a5.551,5.551,0,0,1-2.512-4.351V59.871c0-1.6,1.125-2.25,2.512-1.45L413.5,137.139a5.551,5.551,0,0,1,2.512,4.349v119.34C416.008,262.431,414.883,263.08,413.5,262.279Z" transform="translate(-274.641 -55.076)" fill="#37474f"/><path d="M387.668,227.605a4.694,4.694,0,0,0,6.856-4.362V209.822l-4.71,2.726v13.422C389.814,227.432,388.886,228.092,387.668,227.605Z" transform="translate(-248.443 -19.905)" fill="#e0e0e0"/><path d="M416.008,227.39v13.422c0,1.6-1.125,2.25-2.512,1.45L277.153,163.545a5.553,5.553,0,0,1-2.512-4.351V145.773Z" transform="translate(-274.641 -34.75)" fill="#fff"/><path d="M410.41,236.053V141.6a3.331,3.331,0,0,0-1.508-2.61L279.976,64.554c-.831-.48-1.506-.091-1.506.87l0,94.456a3.329,3.329,0,0,0,1.508,2.61L408.9,236.923C409.736,237.4,410.41,237.015,410.41,236.053Z" transform="translate(-273.755 -53.623)" fill="#25a5d3"/><path d="M332.468,183.131a5.207,5.207,0,0,1,2.358,4.081c0,1.5-1.056,2.113-2.358,1.361a5.211,5.211,0,0,1-2.356-4.082C330.112,182.988,331.168,182.378,332.468,183.131Z" transform="translate(-261.784 -26.166)" fill="#455a64"/><path d="M388.808,124.287a5.333,5.333,0,0,1,.742,2.483V233l4.71-2.726V124.055a5.2,5.2,0,0,0-.743-2.482Z" transform="translate(-248.179 -40.359)" fill="#263238"/></g></g><g transform="translate(168.768)"><path d="M292.755,39.8a.97.97,0,0,1,.039-.22.053.053,0,0,1,.009-.048.845.845,0,0,1,.054-.213,1.1,1.1,0,0,1,.143-.308.4.4,0,0,1,.079-.126.406.406,0,0,1,.07-.087.759.759,0,0,1,.158-.156l.016-.016a1.041,1.041,0,0,1,.206-.119,1.748,1.748,0,0,1,1.617.206L454.26,130.534a5.327,5.327,0,0,1,2.407,4.165V249.861l0,.02v.526a1.629,1.629,0,0,1-.866,1.445l-.1.068a1.321,1.321,0,0,1-.127.071.874.874,0,0,1-.2.071,1.388,1.388,0,0,1-.308.039,1.552,1.552,0,0,1-.8-.229l-.063-.036,0,0L451.9,250.51l-156.753-90.5a5.313,5.313,0,0,1-2.407-4.165V40.1C292.739,39.995,292.748,39.893,292.755,39.8Z" transform="translate(-292.739 -36.648)" fill="#455a64"/><g transform="translate(0.006)"><path d="M293.38,38.83a1.748,1.748,0,0,1,1.617.206L454.112,130.86a5.327,5.327,0,0,1,2.407,4.165v7.859l3.068-1.8v-7.8a5.3,5.3,0,0,0-2.4-4.157L298.066,37.3a1.67,1.67,0,0,0-1.743-.142C295.889,37.419,293.892,38.563,293.38,38.83Z" transform="translate(-292.597 -36.975)" fill="#707070"/><path d="M292.744,40.081c.009-1.518,1.08-2.132,2.4-1.369L454.26,130.536a5.31,5.31,0,0,1,2.4,4.162l0,7.862L292.744,47.97Z" transform="translate(-292.744 -36.648)" fill="#707070"/><path d="M429.029,123.426v-7.814a4.961,4.961,0,0,0-.732-2.4l-3.061,1.761a4.858,4.858,0,0,1,.717,2.388v7.861Z" transform="translate(-262.035 -19.305)" fill="#707070" opacity="0.15"/></g><g transform="translate(147.369 89.749)"><path d="M421.675,114.57a3.583,3.583,0,0,1,1.357,2.875c0,1.155-.607,1.739-1.357,1.307a3.582,3.582,0,0,1-1.359-2.875C420.316,114.723,420.924,114.137,421.675,114.57Z" transform="translate(-410.538 -108.772)" fill="#fff"/><path d="M417.706,112.274a3.587,3.587,0,0,1,1.357,2.875c0,1.155-.608,1.741-1.357,1.307a3.58,3.58,0,0,1-1.359-2.875C416.347,112.427,416.955,111.841,417.706,112.274Z" transform="translate(-411.458 -109.304)" fill="#fff"/><path d="M413.735,109.979a3.58,3.58,0,0,1,1.359,2.874c0,1.155-.609,1.741-1.359,1.307a3.58,3.58,0,0,1-1.357-2.875C412.378,110.13,412.985,109.545,413.735,109.979Z" transform="translate(-412.378 -109.836)" fill="#fff"/></g><path d="M425.119,232.6l.124-.07,2.534-1.466a2.55,2.55,0,0,0,1.255-1.864,2.589,2.589,0,0,0,.023-.351V121.495l-3.072,1.8V231.14a1.577,1.577,0,0,1-.749,1.365.5.5,0,0,1-.078.054c-.007.009-.007.016-.015.016Z" transform="translate(-262.055 -17.384)" fill="#263238" opacity="0.9"/><g transform="translate(3.906 20.389)"><g transform="translate(43.983 31.794)"><path d="M332.471,79.461l33.548,19.332a1.835,1.835,0,0,1,.854,1.418c0,.511-.383.7-.854.432L332.471,81.311a1.827,1.827,0,0,1-.854-1.418C331.617,79.382,332,79.189,332.471,79.461Z" transform="translate(-331.617 -79.338)" fill="#707070"/><path d="M342.878,109.5l12.716,7.313a1.831,1.831,0,0,1,.855,1.418c0,.511-.383.7-.855.432l-12.716-7.313a1.831,1.831,0,0,1-.854-1.418C342.024,109.424,342.406,109.231,342.878,109.5Z" transform="translate(-329.205 -72.375)" fill="#e6e6e6"/><path d="M342.878,115.511l12.716,7.313a1.833,1.833,0,0,1,.855,1.418c0,.511-.383.7-.855.432l-12.716-7.313a1.829,1.829,0,0,1-.854-1.418C342.024,115.432,342.406,115.239,342.878,115.511Z" transform="translate(-329.205 -70.982)" fill="#e6e6e6"/><path d="M362.393,96.706l67.162,38.679a1.831,1.831,0,0,1,.854,1.419c0,.51-.382.7-.854.432L362.393,98.558a1.831,1.831,0,0,1-.854-1.419C361.539,96.627,361.921,96.434,362.393,96.706Z" transform="translate(-324.682 -75.341)" fill="#707070"/><path d="M343.1,151.634l20.451,11.834a1.833,1.833,0,0,1,.854,1.418c0,.511-.383.7-.854.432L343.1,153.484a1.831,1.831,0,0,1-.855-1.418C342.248,151.555,342.631,151.362,343.1,151.634Z" transform="translate(-329.153 -62.609)" fill="#258edc"/><path d="M362.393,162.792l67.162,38.729a1.829,1.829,0,0,1,.854,1.418c0,.511-.382.7-.854.432l-67.162-38.729a1.831,1.831,0,0,1-.854-1.418C361.539,162.713,361.921,162.52,362.393,162.792Z" transform="translate(-324.682 -60.023)" fill="#707070"/><g transform="translate(0 7.418)"><path d="M332.471,85.483l16.9,9.709a1.833,1.833,0,0,1,.854,1.419c0,.511-.382.7-.854.432l-16.9-9.71a1.829,1.829,0,0,1-.854-1.418C331.617,85.4,332,85.211,332.471,85.483Z" transform="translate(-331.617 -85.36)" fill="#258edc"/><path d="M332.471,85.483l16.9,9.709a1.833,1.833,0,0,1,.854,1.419c0,.511-.382.7-.854.432l-16.9-9.71a1.829,1.829,0,0,1-.854-1.418C331.617,85.4,332,85.211,332.471,85.483Z" transform="translate(-331.617 -85.36)" fill="#258edc" opacity="0.6"/></g><g transform="translate(0 14.805)"><path d="M332.471,91.48l7.907,4.559a1.837,1.837,0,0,1,.854,1.419c0,.511-.383.7-.854.432l-7.907-4.56a1.829,1.829,0,0,1-.854-1.418C331.617,91.4,332,91.208,332.471,91.48Z" transform="translate(-331.617 -91.357)" fill="#258edc"/><path d="M332.471,91.48l7.907,4.559a1.837,1.837,0,0,1,.854,1.419c0,.511-.383.7-.854.432l-7.907-4.56a1.829,1.829,0,0,1-.854-1.418C331.617,91.4,332,91.208,332.471,91.48Z" transform="translate(-331.617 -91.357)" fill="#258edc" opacity="0.6"/></g><g transform="translate(0 29.606)"><path d="M332.471,103.5l7.907,4.56a1.833,1.833,0,0,1,.854,1.418c0,.511-.383.7-.854.432l-7.907-4.559a1.831,1.831,0,0,1-.854-1.419C331.617,103.417,332,103.224,332.471,103.5Z" transform="translate(-331.617 -103.373)" fill="#27debf"/><path d="M332.471,103.5l7.907,4.56a1.833,1.833,0,0,1,.854,1.418c0,.511-.383.7-.854.432l-7.907-4.559a1.831,1.831,0,0,1-.854-1.419C331.617,103.417,332,103.224,332.471,103.5Z" transform="translate(-331.617 -103.373)" fill="#258edc" opacity="0.6"/></g><g transform="translate(0 37.006)"><path d="M332.471,109.5l7.907,4.559a1.837,1.837,0,0,1,.854,1.419c0,.511-.383.7-.854.432l-7.907-4.559a1.833,1.833,0,0,1-.854-1.419C331.617,109.425,332,109.232,332.471,109.5Z" transform="translate(-331.617 -109.381)" fill="#258edc"/><path d="M332.471,109.5l7.907,4.559a1.837,1.837,0,0,1,.854,1.419c0,.511-.383.7-.854.432l-7.907-4.559a1.833,1.833,0,0,1-.854-1.419C331.617,109.425,332,109.232,332.471,109.5Z" transform="translate(-331.617 -109.381)" fill="#258edc" opacity="0.6"/></g><g transform="translate(20.207 19.038)"><path d="M348.876,94.917l10.134,5.869a1.831,1.831,0,0,1,.855,1.418c0,.511-.383.7-.855.432l-10.133-5.869a1.833,1.833,0,0,1-.855-1.419C348.022,94.838,348.405,94.645,348.876,94.917Z" transform="translate(-348.022 -94.794)" fill="#258edc"/><path d="M348.876,94.917l10.134,5.869a1.831,1.831,0,0,1,.855,1.418c0,.511-.383.7-.855.432l-10.133-5.869a1.833,1.833,0,0,1-.855-1.419C348.022,94.838,348.405,94.645,348.876,94.917Z" transform="translate(-348.022 -94.794)" fill="#258edc" opacity="0.6"/></g><g transform="translate(35.878 72.54)"><path d="M361.6,138.351l68.141,39.232a1.831,1.831,0,0,1,.855,1.418c0,.511-.383.7-.855.432L361.6,140.2a1.829,1.829,0,0,1-.854-1.418C360.744,138.272,361.126,138.079,361.6,138.351Z" transform="translate(-360.744 -138.228)" fill="#fff"/></g><g transform="translate(93.885 98.49)"><path d="M408.69,159.418l10.134,5.869a1.831,1.831,0,0,1,.854,1.419c0,.51-.382.7-.854.431l-10.134-5.869a1.829,1.829,0,0,1-.854-1.418C407.836,159.339,408.218,159.146,408.69,159.418Z" transform="translate(-407.836 -159.295)" fill="#fff"/></g><g transform="translate(22.433 57.347)"><path d="M350.683,126.017l68.142,39.232a1.835,1.835,0,0,1,.854,1.418c0,.511-.383.7-.854.432l-68.142-39.232a1.829,1.829,0,0,1-.854-1.418C349.829,125.938,350.211,125.745,350.683,126.017Z" transform="translate(-349.829 -125.894)" fill="#fff"/></g><g transform="translate(12.818 22.206)"><path d="M342.878,97.489l16.9,9.709a1.827,1.827,0,0,1,.855,1.418c0,.511-.382.7-.855.432l-16.9-9.709a1.836,1.836,0,0,1-.855-1.419C342.023,97.41,342.406,97.216,342.878,97.489Z" transform="translate(-342.023 -97.365)" fill="#27debf"/><path d="M342.878,97.489l16.9,9.709a1.827,1.827,0,0,1,.855,1.418c0,.511-.382.7-.855.432l-16.9-9.709a1.836,1.836,0,0,1-.855-1.419C342.023,97.41,342.406,97.216,342.878,97.489Z" transform="translate(-342.023 -97.365)" fill="#258edc" opacity="0.6"/></g><g transform="translate(33.027 33.826)"><path d="M359.283,106.922,429.771,147.7a1.831,1.831,0,0,1,.854,1.418c0,.511-.382.7-.854.432l-70.489-40.778a1.829,1.829,0,0,1-.854-1.418C358.429,106.843,358.811,106.65,359.283,106.922Z" transform="translate(-358.429 -106.799)" fill="#707070"/></g><path d="M342.878,133.659l91.2,52.593a1.831,1.831,0,0,1,.855,1.418c0,.511-.383.7-.855.432l-91.2-52.592a1.834,1.834,0,0,1-.854-1.419C342.024,133.58,342.406,133.387,342.878,133.659Z" transform="translate(-329.205 -66.776)" fill="#e6e6e6"/><g transform="translate(0 59.362)"><path d="M332.471,127.653l7.907,4.56a1.833,1.833,0,0,1,.854,1.418c0,.511-.383.7-.854.432l-7.907-4.56a1.827,1.827,0,0,1-.854-1.418C331.617,127.574,332,127.381,332.471,127.653Z" transform="translate(-331.617 -127.53)" fill="#258edc"/><path d="M332.471,127.653l7.907,4.56a1.833,1.833,0,0,1,.854,1.418c0,.511-.383.7-.854.432l-7.907-4.56a1.827,1.827,0,0,1-.854-1.418C331.617,127.574,332,127.381,332.471,127.653Z" transform="translate(-331.617 -127.53)" fill="#258edc" opacity="0.6"/></g><path d="M342.878,139.665l91.2,52.593a1.831,1.831,0,0,1,.855,1.418c0,.511-.383.7-.855.432l-91.2-52.592a1.832,1.832,0,0,1-.854-1.419C342.024,139.586,342.406,139.393,342.878,139.665Z" transform="translate(-329.205 -65.384)" fill="#e6e6e6"/><g transform="translate(0 66.76)"><path d="M332.471,133.659l7.907,4.56a1.833,1.833,0,0,1,.854,1.418c0,.511-.383.7-.854.432l-7.907-4.559a1.833,1.833,0,0,1-.854-1.419C331.617,133.58,332,133.387,332.471,133.659Z" transform="translate(-331.617 -133.536)" fill="#258edc"/><path d="M332.471,133.659l7.907,4.56a1.833,1.833,0,0,1,.854,1.418c0,.511-.383.7-.854.432l-7.907-4.559a1.833,1.833,0,0,1-.854-1.419C331.617,133.58,332,133.387,332.471,133.659Z" transform="translate(-331.617 -133.536)" fill="#258edc" opacity="0.6"/></g><path d="M342.878,145.672l91.2,52.592a1.833,1.833,0,0,1,.855,1.418c0,.511-.383.7-.855.432l-91.2-52.592a1.832,1.832,0,0,1-.854-1.419C342.024,145.592,342.406,145.4,342.878,145.672Z" transform="translate(-329.205 -63.991)" fill="#e6e6e6"/><g transform="translate(0 74.158)"><path d="M332.471,139.665l7.907,4.56a1.833,1.833,0,0,1,.854,1.418c0,.511-.383.7-.854.432l-7.907-4.559a1.831,1.831,0,0,1-.854-1.419C331.617,139.586,332,139.393,332.471,139.665Z" transform="translate(-331.617 -139.542)" fill="#258edc"/><path d="M332.471,139.665l7.907,4.56a1.833,1.833,0,0,1,.854,1.418c0,.511-.383.7-.854.432l-7.907-4.559a1.831,1.831,0,0,1-.854-1.419C331.617,139.586,332,139.393,332.471,139.665Z" transform="translate(-331.617 -139.542)" fill="#258edc" opacity="0.6"/></g></g><g transform="translate(31.67 24.382)" opacity="0.6"><path d="M322.465,73.436l4.646,2.683a1.868,1.868,0,0,1,.844,1.462v1.708c0,.538-.378.756-.844.487l-4.646-2.682a1.868,1.868,0,0,1-.844-1.462V73.923C321.62,73.385,322,73.167,322.465,73.436Z" transform="translate(-321.621 -73.321)" fill="#fff"/><path d="M322.465,79.5l4.646,2.683a1.866,1.866,0,0,1,.844,1.462v1.707c0,.538-.378.758-.844.488l-4.646-2.683a1.864,1.864,0,0,1-.844-1.461V79.988C321.62,79.45,322,79.232,322.465,79.5Z" transform="translate(-321.621 -71.915)" fill="#fff"/><path d="M322.465,85.566l4.646,2.683a1.866,1.866,0,0,1,.844,1.461v1.708c0,.538-.378.756-.844.488l-4.646-2.683a1.866,1.866,0,0,1-.844-1.462V86.054C321.62,85.515,322,85.3,322.465,85.566Z" transform="translate(-321.621 -70.509)" fill="#fff"/><path d="M322.465,91.631l4.646,2.682a1.868,1.868,0,0,1,.844,1.462v1.708c0,.538-.378.756-.844.488l-4.646-2.683a1.866,1.866,0,0,1-.844-1.462V92.117C321.62,91.579,322,91.361,322.465,91.631Z" transform="translate(-321.621 -69.104)" fill="#fff"/><path d="M322.465,97.695l4.646,2.683a1.868,1.868,0,0,1,.844,1.462v1.708c0,.538-.378.756-.844.487l-4.646-2.682a1.868,1.868,0,0,1-.844-1.462V98.182C321.62,97.644,322,97.426,322.465,97.695Z" transform="translate(-321.621 -67.698)" fill="#fff"/><path d="M322.465,103.76l4.646,2.683a1.866,1.866,0,0,1,.844,1.462v1.707c0,.538-.378.758-.844.488l-4.646-2.682a1.868,1.868,0,0,1-.844-1.462v-1.708C321.62,103.709,322,103.491,322.465,103.76Z" transform="translate(-321.621 -66.292)" fill="#fff"/><path d="M322.465,109.825l4.646,2.683a1.866,1.866,0,0,1,.844,1.462v1.707c0,.538-.378.756-.844.488l-4.646-2.683a1.866,1.866,0,0,1-.844-1.462v-1.707C321.62,109.774,322,109.555,322.465,109.825Z" transform="translate(-321.621 -64.886)" fill="#fff"/><path d="M322.465,115.89l4.646,2.683a1.864,1.864,0,0,1,.844,1.461v1.708c0,.538-.378.756-.844.488l-4.646-2.683a1.866,1.866,0,0,1-.844-1.462v-1.708C321.62,115.838,322,115.62,322.465,115.89Z" transform="translate(-321.621 -63.481)" fill="#fff"/><path d="M322.465,121.954l4.646,2.683a1.868,1.868,0,0,1,.844,1.462v1.708c0,.538-.378.756-.844.487l-4.646-2.682a1.868,1.868,0,0,1-.844-1.462v-1.708C321.62,121.9,322,121.685,322.465,121.954Z" transform="translate(-321.621 -62.075)" fill="#fff"/><path d="M322.465,128.019l4.646,2.683a1.868,1.868,0,0,1,.844,1.462v1.708c0,.538-.378.756-.844.487l-4.646-2.682a1.868,1.868,0,0,1-.844-1.462v-1.708C321.62,127.968,322,127.75,322.465,128.019Z" transform="translate(-321.621 -60.669)" fill="#fff"/><path d="M322.465,134.084l4.646,2.683a1.866,1.866,0,0,1,.844,1.462v1.707c0,.538-.378.756-.844.488l-4.646-2.683a1.866,1.866,0,0,1-.844-1.462v-1.707C321.62,134.033,322,133.814,322.465,134.084Z" transform="translate(-321.621 -59.264)" fill="#fff"/><path d="M322.465,140.149l4.646,2.683a1.864,1.864,0,0,1,.844,1.461V146c0,.538-.378.756-.844.488l-4.646-2.683a1.866,1.866,0,0,1-.844-1.462v-1.708C321.62,140.1,322,139.879,322.465,140.149Z" transform="translate(-321.621 -57.858)" fill="#fff"/></g><path d="M297.6,53.757l25.128,14.507a3.734,3.734,0,0,1,1.688,2.924V100.2c0,1.077-.756,1.513-1.688.974L297.6,86.669a3.734,3.734,0,0,1-1.688-2.924V54.732C295.91,53.655,296.665,53.219,297.6,53.757Z" transform="translate(-295.91 -53.527)" fill="#37474f"/><g transform="translate(3.166 5.107)"><g transform="translate(0 23.761)"><path d="M299.335,77.086l2.313,1.338a1.829,1.829,0,0,1,.854,1.418c0,.511-.382.7-.854.432l-2.313-1.338a1.836,1.836,0,0,1-.855-1.419C298.48,77.007,298.863,76.814,299.335,77.086Z" transform="translate(-298.48 -76.963)" fill="#27debf"/><path d="M299.335,77.086l2.313,1.338a1.829,1.829,0,0,1,.854,1.418c0,.511-.382.7-.854.432l-2.313-1.338a1.836,1.836,0,0,1-.855-1.419C298.48,77.007,298.863,76.814,299.335,77.086Z" transform="translate(-298.48 -76.963)" fill="#fff" opacity="0.6"/></g><path d="M299.335,57.8l2.313,1.338a1.831,1.831,0,0,1,.854,1.419c0,.51-.382.7-.854.431l-2.313-1.338a1.834,1.834,0,0,1-.855-1.418C298.48,57.717,298.863,57.524,299.335,57.8Z" transform="translate(-298.48 -57.673)" fill="#27debf"/><path d="M299.335,57.8l2.313,1.338a1.831,1.831,0,0,1,.854,1.419c0,.51-.382.7-.854.431l-2.313-1.338a1.834,1.834,0,0,1-.855-1.418C298.48,57.717,298.863,57.524,299.335,57.8Z" transform="translate(-298.48 -57.673)" fill="#fff" opacity="0.6"/><g transform="translate(3.252 6.618)"><path d="M301.974,63.169l2.313,1.339a1.829,1.829,0,0,1,.854,1.418c0,.511-.382.7-.854.432l-2.313-1.338a1.832,1.832,0,0,1-.854-1.419C301.12,63.09,301.5,62.9,301.974,63.169Z" transform="translate(-301.12 -63.046)" fill="#27debf"/><path d="M301.974,63.169l2.313,1.339a1.829,1.829,0,0,1,.854,1.418c0,.511-.382.7-.854.432l-2.313-1.338a1.832,1.832,0,0,1-.854-1.419C301.12,63.09,301.5,62.9,301.974,63.169Z" transform="translate(-301.12 -63.046)" fill="#fff" opacity="0.6"/></g><g transform="translate(3.252 11.359)"><path d="M301.974,67.017l2.313,1.339a1.829,1.829,0,0,1,.854,1.418c0,.511-.382.7-.854.432l-2.313-1.338a1.832,1.832,0,0,1-.854-1.419C301.12,66.94,301.5,66.745,301.974,67.017Z" transform="translate(-301.12 -66.894)" fill="#27debf"/><path d="M301.974,67.017l2.313,1.339a1.829,1.829,0,0,1,.854,1.418c0,.511-.382.7-.854.432l-2.313-1.338a1.832,1.832,0,0,1-.854-1.419C301.12,66.94,301.5,66.745,301.974,67.017Z" transform="translate(-301.12 -66.894)" fill="#fff" opacity="0.6"/></g><g transform="translate(0 14.253)"><path d="M299.335,69.367l2.313,1.338a1.831,1.831,0,0,1,.854,1.419c0,.511-.382.7-.854.431l-2.313-1.338a1.834,1.834,0,0,1-.855-1.418C298.48,69.288,298.863,69.095,299.335,69.367Z" transform="translate(-298.48 -69.244)" fill="#27debf"/><path d="M299.335,69.367l2.313,1.338a1.831,1.831,0,0,1,.854,1.419c0,.511-.382.7-.854.431l-2.313-1.338a1.834,1.834,0,0,1-.855-1.418C298.48,69.288,298.863,69.095,299.335,69.367Z" transform="translate(-298.48 -69.244)" fill="#fff" opacity="0.6"/></g><g transform="translate(3.252 20.876)"><path d="M301.974,74.744l2.313,1.338a1.831,1.831,0,0,1,.854,1.418c0,.511-.382.7-.854.432l-2.313-1.338a1.829,1.829,0,0,1-.854-1.418C301.12,74.665,301.5,74.472,301.974,74.744Z" transform="translate(-301.12 -74.621)" fill="#27debf"/><path d="M301.974,74.744l2.313,1.338a1.831,1.831,0,0,1,.854,1.418c0,.511-.382.7-.854.432l-2.313-1.338a1.829,1.829,0,0,1-.854-1.418C301.12,74.665,301.5,74.472,301.974,74.744Z" transform="translate(-301.12 -74.621)" fill="#fff" opacity="0.6"/></g></g><g transform="translate(9.501 8.767)"><path d="M304.477,60.767,318.6,68.924a1.829,1.829,0,0,1,.854,1.418c0,.511-.382.7-.854.432l-14.127-8.157a1.829,1.829,0,0,1-.854-1.418C303.623,60.688,304,60.495,304.477,60.767Z" transform="translate(-303.623 -60.644)" fill="#27debf"/><path d="M304.477,60.767,318.6,68.924a1.829,1.829,0,0,1,.854,1.418c0,.511-.382.7-.854.432l-14.127-8.157a1.829,1.829,0,0,1-.854-1.418C303.623,60.688,304,60.495,304.477,60.767Z" transform="translate(-303.623 -60.644)" fill="#fff" opacity="0.8"/><g transform="translate(0 23.76)"><path d="M304.477,80.056,318.6,88.213a1.834,1.834,0,0,1,.854,1.419c0,.511-.382.7-.854.432l-14.127-8.157a1.832,1.832,0,0,1-.854-1.419C303.623,79.979,304,79.784,304.477,80.056Z" transform="translate(-303.623 -79.933)" fill="#27debf"/><path d="M304.477,80.056,318.6,88.213a1.834,1.834,0,0,1,.854,1.419c0,.511-.382.7-.854.432l-14.127-8.157a1.832,1.832,0,0,1-.854-1.419C303.623,79.979,304,79.784,304.477,80.056Z" transform="translate(-303.623 -79.933)" fill="#fff" opacity="0.8"/></g><g transform="translate(3.251 6.618)"><path d="M307.117,66.14l10.875,6.291a1.829,1.829,0,0,1,.854,1.418c0,.511-.382.7-.854.432l-10.875-6.291a1.833,1.833,0,0,1-.855-1.419C306.262,66.06,306.645,65.867,307.117,66.14Z" transform="translate(-306.262 -66.016)" fill="#27debf"/><path d="M307.117,66.14l10.875,6.291a1.829,1.829,0,0,1,.854,1.418c0,.511-.382.7-.854.432l-10.875-6.291a1.833,1.833,0,0,1-.855-1.419C306.262,66.06,306.645,65.867,307.117,66.14Z" transform="translate(-306.262 -66.016)" fill="#fff" opacity="0.8"/></g><g transform="translate(3.251 11.369)"><path d="M307.117,70l10.875,6.292a1.829,1.829,0,0,1,.854,1.418c0,.511-.382.7-.854.432l-10.875-6.292a1.829,1.829,0,0,1-.855-1.418C306.262,69.918,306.645,69.725,307.117,70Z" transform="translate(-306.262 -69.874)" fill="#27debf"/><path d="M307.117,70l10.875,6.292a1.829,1.829,0,0,1,.854,1.418c0,.511-.382.7-.854.432l-10.875-6.292a1.829,1.829,0,0,1-.855-1.418C306.262,69.918,306.645,69.725,307.117,70Z" transform="translate(-306.262 -69.874)" fill="#fff" opacity="0.8"/></g><g transform="translate(0 14.257)"><path d="M304.477,72.341,318.6,80.5a1.829,1.829,0,0,1,.854,1.418c0,.511-.382.7-.854.432l-14.127-8.157a1.832,1.832,0,0,1-.854-1.419C303.623,72.262,304,72.069,304.477,72.341Z" transform="translate(-303.623 -72.218)" fill="#27debf"/><path d="M304.477,72.341,318.6,80.5a1.829,1.829,0,0,1,.854,1.418c0,.511-.382.7-.854.432l-14.127-8.157a1.832,1.832,0,0,1-.854-1.419C303.623,72.262,304,72.069,304.477,72.341Z" transform="translate(-303.623 -72.218)" fill="#fff" opacity="0.8"/></g><g transform="translate(3.251 20.876)"><path d="M307.117,77.715,317.992,84a1.829,1.829,0,0,1,.854,1.418c0,.511-.382.7-.854.432l-10.875-6.289a1.833,1.833,0,0,1-.855-1.419C306.262,77.636,306.645,77.443,307.117,77.715Z" transform="translate(-306.262 -77.592)" fill="#27debf"/><path d="M307.117,77.715,317.992,84a1.829,1.829,0,0,1,.854,1.418c0,.511-.382.7-.854.432l-10.875-6.289a1.833,1.833,0,0,1-.855-1.419C306.262,77.636,306.645,77.443,307.117,77.715Z" transform="translate(-306.262 -77.592)" fill="#fff" opacity="0.8"/></g></g><g transform="translate(0 38.371)"><path d="M297.6,84.908l25.128,14.508a3.732,3.732,0,0,1,1.688,2.923v57.333c0,1.077-.756,1.513-1.688.974L297.6,146.139a3.734,3.734,0,0,1-1.688-2.923V85.883C295.91,84.806,296.665,84.37,297.6,84.908Z" transform="translate(-295.91 -84.678)" fill="#37474f"/><g transform="translate(3.166 5.108)"><path d="M299.335,88.948l2.313,1.338A1.829,1.829,0,0,1,302.5,91.7c0,.511-.382.7-.854.432L299.335,90.8a1.836,1.836,0,0,1-.855-1.419C298.48,88.869,298.863,88.676,299.335,88.948Z" transform="translate(-298.48 -88.825)" fill="#27debf"/><path d="M299.335,88.948l2.313,1.338A1.829,1.829,0,0,1,302.5,91.7c0,.511-.382.7-.854.432L299.335,90.8a1.836,1.836,0,0,1-.855-1.419C298.48,88.869,298.863,88.676,299.335,88.948Z" transform="translate(-298.48 -88.825)" fill="#fff" opacity="0.6"/><g transform="translate(3.252 6.618)"><path d="M301.974,94.321l2.313,1.338a1.829,1.829,0,0,1,.854,1.418c0,.511-.382.7-.854.432l-2.313-1.338a1.831,1.831,0,0,1-.854-1.418C301.12,94.242,301.5,94.049,301.974,94.321Z" transform="translate(-301.12 -94.198)" fill="#27debf"/><path d="M301.974,94.321l2.313,1.338a1.829,1.829,0,0,1,.854,1.418c0,.511-.382.7-.854.432l-2.313-1.338a1.831,1.831,0,0,1-.854-1.418C301.12,94.242,301.5,94.049,301.974,94.321Z" transform="translate(-301.12 -94.198)" fill="#fff" opacity="0.6"/></g><g transform="translate(3.252 11.358)"><path d="M301.974,98.169l2.313,1.338a1.829,1.829,0,0,1,.854,1.418c0,.511-.382.7-.854.432l-2.313-1.338a1.831,1.831,0,0,1-.854-1.418C301.12,98.09,301.5,97.9,301.974,98.169Z" transform="translate(-301.12 -98.046)" fill="#27debf"/><path d="M301.974,98.169l2.313,1.338a1.829,1.829,0,0,1,.854,1.418c0,.511-.382.7-.854.432l-2.313-1.338a1.831,1.831,0,0,1-.854-1.418C301.12,98.09,301.5,97.9,301.974,98.169Z" transform="translate(-301.12 -98.046)" fill="#fff" opacity="0.6"/></g><g transform="translate(0 14.252)"><path d="M299.335,100.519l2.313,1.338a1.829,1.829,0,0,1,.854,1.418c0,.511-.382.7-.854.432l-2.313-1.338a1.836,1.836,0,0,1-.855-1.419C298.48,100.44,298.863,100.246,299.335,100.519Z" transform="translate(-298.48 -100.395)" fill="#27debf"/><path d="M299.335,100.519l2.313,1.338a1.829,1.829,0,0,1,.854,1.418c0,.511-.382.7-.854.432l-2.313-1.338a1.836,1.836,0,0,1-.855-1.419C298.48,100.44,298.863,100.246,299.335,100.519Z" transform="translate(-298.48 -100.395)" fill="#fff" opacity="0.6"/></g></g><g transform="translate(3.166 8.767)"><g transform="translate(6.335)"><path d="M304.477,91.918l14.127,8.157a1.832,1.832,0,0,1,.854,1.419c0,.51-.382.7-.854.431L304.477,93.77a1.834,1.834,0,0,1-.854-1.419C303.623,91.839,304,91.646,304.477,91.918Z" transform="translate(-303.623 -91.795)" fill="#27debf"/><path d="M304.477,91.918l14.127,8.157a1.832,1.832,0,0,1,.854,1.419c0,.51-.382.7-.854.431L304.477,93.77a1.834,1.834,0,0,1-.854-1.419C303.623,91.839,304,91.646,304.477,91.918Z" transform="translate(-303.623 -91.795)" fill="#fff" opacity="0.8"/></g><g transform="translate(9.586 6.618)"><path d="M307.117,97.291l10.875,6.291a1.832,1.832,0,0,1,.854,1.419c0,.51-.382.7-.854.431l-10.875-6.291a1.833,1.833,0,0,1-.855-1.418C306.262,97.212,306.645,97.019,307.117,97.291Z" transform="translate(-306.262 -97.168)" fill="#27debf"/><path d="M307.117,97.291l10.875,6.291a1.832,1.832,0,0,1,.854,1.419c0,.51-.382.7-.854.431l-10.875-6.291a1.833,1.833,0,0,1-.855-1.418C306.262,97.212,306.645,97.019,307.117,97.291Z" transform="translate(-306.262 -97.168)" fill="#fff" opacity="0.8"/></g><g transform="translate(9.586 11.371)"><path d="M307.117,101.149l10.875,6.291a1.831,1.831,0,0,1,.854,1.418c0,.511-.382.7-.854.432L307.117,103a1.833,1.833,0,0,1-.855-1.419C306.262,101.07,306.645,100.877,307.117,101.149Z" transform="translate(-306.262 -101.026)" fill="#27debf"/><path d="M307.117,101.149l10.875,6.291a1.831,1.831,0,0,1,.854,1.418c0,.511-.382.7-.854.432L307.117,103a1.833,1.833,0,0,1-.855-1.419C306.262,101.07,306.645,100.877,307.117,101.149Z" transform="translate(-306.262 -101.026)" fill="#fff" opacity="0.8"/></g><g transform="translate(6.335 14.257)"><path d="M304.477,103.492l14.127,8.157a1.831,1.831,0,0,1,.854,1.418c0,.511-.382.7-.854.432l-14.127-8.157a1.829,1.829,0,0,1-.854-1.418C303.623,103.413,304,103.22,304.477,103.492Z" transform="translate(-303.623 -103.369)" fill="#27debf"/><path d="M304.477,103.492l14.127,8.157a1.831,1.831,0,0,1,.854,1.418c0,.511-.382.7-.854.432l-14.127-8.157a1.829,1.829,0,0,1-.854-1.418C303.623,103.413,304,103.22,304.477,103.492Z" transform="translate(-303.623 -103.369)" fill="#fff" opacity="0.8"/></g><g transform="translate(3.252 17.245)"><path d="M301.974,105.918l2.313,1.338a1.829,1.829,0,0,1,.854,1.418c0,.511-.382.7-.854.432l-2.313-1.338a1.832,1.832,0,0,1-.854-1.419C301.12,105.839,301.5,105.646,301.974,105.918Z" transform="translate(-301.12 -105.795)" fill="#27debf"/><path d="M301.974,105.918l2.313,1.338a1.829,1.829,0,0,1,.854,1.418c0,.511-.382.7-.854.432l-2.313-1.338a1.832,1.832,0,0,1-.854-1.419C301.12,105.839,301.5,105.646,301.974,105.918Z" transform="translate(-301.12 -105.795)" fill="#fff" opacity="0.6"/></g><g transform="translate(3.252 21.985)"><path d="M301.974,109.766l2.313,1.338a1.829,1.829,0,0,1,.854,1.418c0,.511-.382.7-.854.432l-2.313-1.338a1.831,1.831,0,0,1-.854-1.419C301.12,109.687,301.5,109.494,301.974,109.766Z" transform="translate(-301.12 -109.643)" fill="#27debf"/><path d="M301.974,109.766l2.313,1.338a1.829,1.829,0,0,1,.854,1.418c0,.511-.382.7-.854.432l-2.313-1.338a1.831,1.831,0,0,1-.854-1.419C301.12,109.687,301.5,109.494,301.974,109.766Z" transform="translate(-301.12 -109.643)" fill="#fff" opacity="0.6"/></g><g transform="translate(9.586 20.903)"><path d="M307.117,108.888l10.875,6.291a1.831,1.831,0,0,1,.854,1.418c0,.511-.382.7-.854.432l-10.875-6.291a1.833,1.833,0,0,1-.855-1.419C306.262,108.809,306.645,108.616,307.117,108.888Z" transform="translate(-306.262 -108.765)" fill="#27debf"/><path d="M307.117,108.888l10.875,6.291a1.831,1.831,0,0,1,.854,1.418c0,.511-.382.7-.854.432l-10.875-6.291a1.833,1.833,0,0,1-.855-1.419C306.262,108.809,306.645,108.616,307.117,108.888Z" transform="translate(-306.262 -108.765)" fill="#fff" opacity="0.8"/></g><g transform="translate(9.586 25.655)"><path d="M307.117,112.746l10.875,6.291a1.829,1.829,0,0,1,.854,1.418c0,.511-.382.7-.854.432L307.117,114.6a1.833,1.833,0,0,1-.855-1.419C306.262,112.666,306.645,112.474,307.117,112.746Z" transform="translate(-306.262 -112.623)" fill="#27debf"/><path d="M307.117,112.746l10.875,6.291a1.829,1.829,0,0,1,.854,1.418c0,.511-.382.7-.854.432L307.117,114.6a1.833,1.833,0,0,1-.855-1.419C306.262,112.666,306.645,112.474,307.117,112.746Z" transform="translate(-306.262 -112.623)" fill="#fff" opacity="0.8"/></g><g transform="translate(0 34.412)"><path d="M299.335,119.855l2.313,1.338a1.829,1.829,0,0,1,.854,1.418c0,.511-.382.7-.854.432l-2.313-1.338a1.836,1.836,0,0,1-.855-1.419C298.48,119.775,298.863,119.582,299.335,119.855Z" transform="translate(-298.48 -119.731)" fill="#27debf"/><path d="M299.335,119.855l2.313,1.338a1.829,1.829,0,0,1,.854,1.418c0,.511-.382.7-.854.432l-2.313-1.338a1.836,1.836,0,0,1-.855-1.419C298.48,119.775,298.863,119.582,299.335,119.855Z" transform="translate(-298.48 -119.731)" fill="#fff" opacity="0.6"/></g><g transform="translate(6.335 38.074)"><path d="M304.477,122.828l14.127,8.157a1.829,1.829,0,0,1,.854,1.418c0,.511-.382.7-.854.432l-14.127-8.157a1.831,1.831,0,0,1-.854-1.418C303.623,122.749,304,122.556,304.477,122.828Z" transform="translate(-303.623 -122.705)" fill="#27debf"/><path d="M304.477,122.828l14.127,8.157a1.829,1.829,0,0,1,.854,1.418c0,.511-.382.7-.854.432l-14.127-8.157a1.831,1.831,0,0,1-.854-1.418C303.623,122.749,304,122.556,304.477,122.828Z" transform="translate(-303.623 -122.705)" fill="#fff" opacity="0.8"/></g><g transform="translate(3.252 41.063)"><path d="M301.974,125.254l2.313,1.338a1.829,1.829,0,0,1,.854,1.418c0,.511-.382.7-.854.432l-2.313-1.338a1.831,1.831,0,0,1-.854-1.419C301.12,125.175,301.5,124.982,301.974,125.254Z" transform="translate(-301.12 -125.131)" fill="#27debf"/><path d="M301.974,125.254l2.313,1.338a1.829,1.829,0,0,1,.854,1.418c0,.511-.382.7-.854.432l-2.313-1.338a1.831,1.831,0,0,1-.854-1.419C301.12,125.175,301.5,124.982,301.974,125.254Z" transform="translate(-301.12 -125.131)" fill="#fff" opacity="0.6"/></g><g transform="translate(3.252 45.803)"><path d="M301.974,129.1l2.313,1.338a1.829,1.829,0,0,1,.854,1.418c0,.511-.382.7-.854.432l-2.313-1.338a1.831,1.831,0,0,1-.854-1.419C301.12,129.023,301.5,128.83,301.974,129.1Z" transform="translate(-301.12 -128.979)" fill="#27debf"/><path d="M301.974,129.1l2.313,1.338a1.829,1.829,0,0,1,.854,1.418c0,.511-.382.7-.854.432l-2.313-1.338a1.831,1.831,0,0,1-.854-1.419C301.12,129.023,301.5,128.83,301.974,129.1Z" transform="translate(-301.12 -128.979)" fill="#fff" opacity="0.6"/></g><g transform="translate(9.586 44.721)"><path d="M307.117,128.224l10.875,6.291a1.829,1.829,0,0,1,.854,1.418c0,.511-.382.7-.854.432l-10.875-6.291a1.833,1.833,0,0,1-.855-1.419C306.262,128.145,306.645,127.952,307.117,128.224Z" transform="translate(-306.262 -128.101)" fill="#27debf"/><path d="M307.117,128.224l10.875,6.291a1.829,1.829,0,0,1,.854,1.418c0,.511-.382.7-.854.432l-10.875-6.291a1.833,1.833,0,0,1-.855-1.419C306.262,128.145,306.645,127.952,307.117,128.224Z" transform="translate(-306.262 -128.101)" fill="#fff" opacity="0.8"/></g><g transform="translate(9.586 49.473)"><path d="M307.117,132.082l10.875,6.291a1.829,1.829,0,0,1,.854,1.418c0,.511-.382.7-.854.432l-10.875-6.291a1.833,1.833,0,0,1-.855-1.419C306.262,132,306.645,131.809,307.117,132.082Z" transform="translate(-306.262 -131.958)" fill="#27debf"/><path d="M307.117,132.082l10.875,6.291a1.829,1.829,0,0,1,.854,1.418c0,.511-.382.7-.854.432l-10.875-6.291a1.833,1.833,0,0,1-.855-1.419C306.262,132,306.645,131.809,307.117,132.082Z" transform="translate(-306.262 -131.958)" fill="#fff" opacity="0.8"/></g><g transform="translate(3.252 26.699)"><path d="M301.974,113.593l2.313,1.338a1.832,1.832,0,0,1,.854,1.419c0,.51-.382.7-.854.431l-2.313-1.338a1.829,1.829,0,0,1-.854-1.418C301.12,113.514,301.5,113.321,301.974,113.593Z" transform="translate(-301.12 -113.47)" fill="#27debf"/><path d="M301.974,113.593l2.313,1.338a1.832,1.832,0,0,1,.854,1.419c0,.51-.382.7-.854.431l-2.313-1.338a1.829,1.829,0,0,1-.854-1.418C301.12,113.514,301.5,113.321,301.974,113.593Z" transform="translate(-301.12 -113.47)" fill="#fff" opacity="0.6"/></g><g transform="translate(0 29.594)"><path d="M299.335,115.943l2.313,1.338a1.831,1.831,0,0,1,.854,1.419c0,.51-.382.7-.854.431l-2.313-1.338a1.834,1.834,0,0,1-.855-1.418C298.48,115.864,298.863,115.671,299.335,115.943Z" transform="translate(-298.48 -115.82)" fill="#27debf"/><path d="M299.335,115.943l2.313,1.338a1.831,1.831,0,0,1,.854,1.419c0,.51-.382.7-.854.431l-2.313-1.338a1.834,1.834,0,0,1-.855-1.418C298.48,115.864,298.863,115.671,299.335,115.943Z" transform="translate(-298.48 -115.82)" fill="#fff" opacity="0.6"/></g><g transform="translate(9.586 30.37)"><path d="M307.117,116.573l10.875,6.292a1.829,1.829,0,0,1,.854,1.418c0,.511-.382.7-.854.432l-10.875-6.292a1.831,1.831,0,0,1-.855-1.418C306.262,116.494,306.645,116.3,307.117,116.573Z" transform="translate(-306.262 -116.45)" fill="#27debf"/><path d="M307.117,116.573l10.875,6.292a1.829,1.829,0,0,1,.854,1.418c0,.511-.382.7-.854.432l-10.875-6.292a1.831,1.831,0,0,1-.855-1.418C306.262,116.494,306.645,116.3,307.117,116.573Z" transform="translate(-306.262 -116.45)" fill="#fff" opacity="0.8"/></g><g transform="translate(6.335 33.256)"><path d="M304.477,118.917l14.127,8.156a1.834,1.834,0,0,1,.854,1.419c0,.511-.382.7-.854.432l-14.127-8.157a1.832,1.832,0,0,1-.854-1.419C303.623,118.837,304,118.644,304.477,118.917Z" transform="translate(-303.623 -118.793)" fill="#27debf"/><path d="M304.477,118.917l14.127,8.156a1.834,1.834,0,0,1,.854,1.419c0,.511-.382.7-.854.432l-14.127-8.157a1.832,1.832,0,0,1-.854-1.419C303.623,118.837,304,118.644,304.477,118.917Z" transform="translate(-303.623 -118.793)" fill="#fff" opacity="0.8"/></g><g transform="translate(0 48.763)"><path d="M299.335,131.505l2.313,1.338a1.831,1.831,0,0,1,.854,1.418c0,.511-.382.7-.854.432l-2.313-1.338a1.834,1.834,0,0,1-.855-1.418C298.48,131.426,298.863,131.233,299.335,131.505Z" transform="translate(-298.48 -131.382)" fill="#27debf"/><path d="M299.335,131.505l2.313,1.338a1.831,1.831,0,0,1,.854,1.418c0,.511-.382.7-.854.432l-2.313-1.338a1.834,1.834,0,0,1-.855-1.418C298.48,131.426,298.863,131.233,299.335,131.505Z" transform="translate(-298.48 -131.382)" fill="#fff" opacity="0.6"/></g><g transform="translate(6.335 52.425)"><path d="M304.477,134.478l14.127,8.157a1.832,1.832,0,0,1,.854,1.419c0,.511-.382.7-.854.431l-14.127-8.156a1.834,1.834,0,0,1-.854-1.419C303.623,134.4,304,134.206,304.477,134.478Z" transform="translate(-303.623 -134.355)" fill="#27debf"/><path d="M304.477,134.478l14.127,8.157a1.832,1.832,0,0,1,.854,1.419c0,.511-.382.7-.854.431l-14.127-8.156a1.834,1.834,0,0,1-.854-1.419C303.623,134.4,304,134.206,304.477,134.478Z" transform="translate(-303.623 -134.355)" fill="#fff" opacity="0.8"/></g></g></g></g></g><g transform="translate(314.174 136.442)"><path d="M410.784,150.556v94.081a4.32,4.32,0,0,0,1.956,3.386l54.049,31.184a1.255,1.255,0,0,0,.647.186,1.078,1.078,0,0,0,.25-.032.711.711,0,0,0,.168-.058,1.138,1.138,0,0,0,.1-.058l.116-.076a.807.807,0,0,0,.108-.1,1.545,1.545,0,0,0,.36-.514,2.446,2.446,0,0,0,.2-.987V183.966a4.332,4.332,0,0,0-1.955-3.386L412.74,149.428a1.417,1.417,0,0,0-1.314-.168.9.9,0,0,0-.167.1l-.012.014a.575.575,0,0,0-.128.128.319.319,0,0,0-.058.07.332.332,0,0,0-.064.1.9.9,0,0,0-.116.251.692.692,0,0,0-.044.172c-.006.014-.014.026-.006.038a.771.771,0,0,0-.032.18C410.79,150.39,410.784,150.472,410.784,150.556Z" transform="translate(-410.784 -147.413)" fill="#455a64" opacity="0.8"/><g transform="translate(0.005)"><path d="M411.3,149.589a1.417,1.417,0,0,1,1.314.168l54.049,31.152a4.332,4.332,0,0,1,1.955,3.386v6.387l3.115-1.8V182.54a4.312,4.312,0,0,0-1.95-3.38l-54.054-31.152a1.359,1.359,0,0,0-1.418-.116C413.964,148.1,411.721,149.371,411.3,149.589Z" transform="translate(-410.668 -147.743)" fill="#707070"/><path d="M410.788,150.542c.007-1.233.878-1.733,1.951-1.112l54.051,31.152a4.319,4.319,0,0,1,1.952,3.384v6.39l-57.953-33.4Z" transform="translate(-410.788 -147.413)" fill="#707070"/><path d="M412.619,149.758l54.047,31.152a4.025,4.025,0,0,1,1.376,1.45l3.1-1.775a3.9,3.9,0,0,0-1.36-1.426l-54.051-31.152a1.37,1.37,0,0,0-1.419-.116c-.351.214-2.593,1.474-3,1.695A1.416,1.416,0,0,1,412.619,149.758Z" transform="translate(-410.667 -147.743)" fill="#707070" opacity="0.5"/><path d="M461.067,182.71l0-6.351a4.027,4.027,0,0,0-.594-1.954l-3.109,1.769a3.957,3.957,0,0,1,.584,1.943v6.389Z" transform="translate(-399.993 -141.563)" fill="#707070" opacity="0.15"/></g><g transform="translate(46.066 31.083)"><path d="M455.739,176.825a2.915,2.915,0,0,1,1.1,2.337c0,.939-.5,1.414-1.1,1.063a2.914,2.914,0,0,1-1.1-2.337C454.635,176.949,455.129,176.473,455.739,176.825Z" transform="translate(-446.686 -172.112)" fill="#fff"/><path d="M452.512,174.959a2.912,2.912,0,0,1,1.1,2.337c0,.939-.5,1.414-1.1,1.062a2.91,2.91,0,0,1-1.1-2.337C451.408,175.082,451.9,174.607,452.512,174.959Z" transform="translate(-447.434 -172.544)" fill="#fff"/><path d="M449.286,173.093a2.912,2.912,0,0,1,1.1,2.337c0,.939-.494,1.414-1.1,1.062a2.91,2.91,0,0,1-1.1-2.337C448.182,173.216,448.676,172.741,449.286,173.093Z" transform="translate(-448.182 -172.977)" fill="#fff"/></g><path d="M457.255,271.8c.071-.044.154-.09.244-.14.18-.11.386-.224.6-.34l.006-.006c.108-.064.218-.128.326-.186a.058.058,0,0,1,.026-.014c.18-.1.354-.2.514-.294s.934-.519,1.049-.583.206-.115.244-.134a1.108,1.108,0,0,0,.333-.269,1.462,1.462,0,0,0,.264-.4,2.429,2.429,0,0,0,.224-1.032V181.141l-3.115,1.8v87.22a2.89,2.89,0,0,1-.2.987,1.545,1.545,0,0,1-.36.514.329.329,0,0,1-.108.1A.142.142,0,0,1,457.255,271.8Z" transform="translate(-400.013 -140.002)" fill="#37474f" opacity="0.9"/><g transform="translate(4.389 18.784)"><g transform="translate(0.103)"><path d="M414.431,164.543a.293.293,0,0,1,.1-.25l1.4-1.285A.066.066,0,0,1,416,163a.159.159,0,0,1,.036.015.289.289,0,0,1,.11.134.457.457,0,0,1,.047.2v.977a.866.866,0,0,1-.03.269.384.384,0,0,1-.1.15l-.742.681.742,1.536a1.453,1.453,0,0,1,.1.266,1.25,1.25,0,0,1,.03.3v.976a.193.193,0,0,1-.047.144.084.084,0,0,1-.11.007l-.036-.026a.27.27,0,0,1-.064-.086l-1.4-2.907a.779.779,0,0,1-.1-.365Z" transform="translate(-414.431 -162.993)" fill="#256de9"/><path d="M419.054,163.186a.381.381,0,0,1,.107-.164c.047-.042.116-.036.206.016l.527.3a.287.287,0,0,1,.111.135.457.457,0,0,1,.047.2.3.3,0,0,1-.015.091l-2.408,7.486a.369.369,0,0,1-.1.161c-.048.046-.12.042-.214-.014l-.505-.292a.289.289,0,0,1-.111-.134.466.466,0,0,1-.047-.2.3.3,0,0,1,.015-.091Z" transform="translate(-413.916 -162.992)" fill="#256de9"/><path d="M421.959,169.77a.29.29,0,0,1-.1.25l-1.4,1.285a.068.068,0,0,1-.064.012l-.036-.015a.294.294,0,0,1-.111-.135.454.454,0,0,1-.046-.2v-.977a.915.915,0,0,1,.028-.269.37.37,0,0,1,.1-.151l.742-.68-.742-1.536a1.409,1.409,0,0,1-.1-.266,1.325,1.325,0,0,1-.028-.3v-.977a.191.191,0,0,1,.046-.143.085.085,0,0,1,.111-.007l.036.026a.3.3,0,0,1,.064.085l1.4,2.907a.784.784,0,0,1,.1.366Z" transform="translate(-413.094 -162.377)" fill="#256de9"/><path d="M424.959,172.183a.373.373,0,0,1,.135.166.564.564,0,0,1,.058.241v1.075a.235.235,0,0,1-.058.176.1.1,0,0,1-.135.009l-.663-.382a.365.365,0,0,1-.135-.166.554.554,0,0,1-.057-.241v-1.075a.233.233,0,0,1,.057-.175.1.1,0,0,1,.135-.01Z" transform="translate(-412.189 -160.956)" fill="#27debf"/><path d="M426.759,173.223a.362.362,0,0,1,.135.165.562.562,0,0,1,.057.241V174.7a.235.235,0,0,1-.057.176.105.105,0,0,1-.135.01l-.664-.384a.36.36,0,0,1-.134-.165.543.543,0,0,1-.058-.241v-1.075a.232.232,0,0,1,.058-.176.1.1,0,0,1,.134-.009Z" transform="translate(-411.772 -160.715)" fill="#27debf"/><path d="M428.558,174.261a.366.366,0,0,1,.135.166.577.577,0,0,1,.057.241v1.075a.244.244,0,0,1-.057.176.107.107,0,0,1-.135.009l-.663-.383a.347.347,0,0,1-.135-.165.564.564,0,0,1-.058-.241v-1.075a.237.237,0,0,1,.058-.176.1.1,0,0,1,.135-.01Z" transform="translate(-411.355 -160.474)" fill="#27debf"/></g><path d="M415.042,171.19l32.475,18.749a1.49,1.49,0,0,1,.694,1.153c0,.415-.31.573-.694.351l-32.475-18.749a1.491,1.491,0,0,1-.695-1.153C414.347,171.126,414.659,170.968,415.042,171.19Z" transform="translate(-414.347 -161.116)" fill="#256de9"/><path d="M423.5,190.725l32.475,18.749a1.488,1.488,0,0,1,.693,1.153c0,.415-.31.573-.693.351L423.5,192.228a1.484,1.484,0,0,1-.695-1.152C422.806,190.661,423.116,190.5,423.5,190.725Z" transform="translate(-412.386 -156.588)" fill="#e6e6e6"/><path d="M423.5,200.492l15.543,8.981a1.487,1.487,0,0,1,.695,1.152c0,.416-.312.573-.695.352L423.5,202a1.488,1.488,0,0,1-.695-1.153C422.806,200.428,423.116,200.27,423.5,200.492Z" transform="translate(-412.386 -154.324)" fill="#e6e6e6"/><path d="M443.589,187.672l12.939,7.442a1.491,1.491,0,0,1,.695,1.153c0,.415-.312.573-.695.351l-12.939-7.442a1.49,1.49,0,0,1-.694-1.153C442.9,187.608,443.206,187.45,443.589,187.672Z" transform="translate(-407.73 -157.296)" fill="#256de9"/><path d="M415.042,224.906l32.475,18.749a1.49,1.49,0,0,1,.694,1.153c0,.415-.31.573-.694.351L415.042,226.41a1.491,1.491,0,0,1-.695-1.153C414.347,224.842,414.659,224.684,415.042,224.906Z" transform="translate(-414.347 -148.665)" fill="#27debf"/><path d="M443.589,241.388l12.939,7.442a1.491,1.491,0,0,1,.695,1.153c0,.415-.312.572-.695.351l-12.939-7.442a1.49,1.49,0,0,1-.694-1.153C442.9,241.324,443.206,241.166,443.589,241.388Z" transform="translate(-407.73 -144.845)" fill="#27debf"/><path d="M443.589,226.763l12.939,7.442a1.491,1.491,0,0,1,.695,1.153c0,.415-.312.573-.695.351l-12.939-7.442a1.486,1.486,0,0,1-.694-1.153C442.9,226.7,443.206,226.542,443.589,226.763Z" transform="translate(-407.73 -148.235)" fill="#27debf"/><path d="M443.589,231.646l12.939,7.442a1.487,1.487,0,0,1,.695,1.153c0,.415-.312.572-.695.351l-12.939-7.442A1.49,1.49,0,0,1,442.9,232C442.9,231.582,443.206,231.424,443.589,231.646Z" transform="translate(-407.73 -147.103)" fill="#27debf"/><path d="M434.634,221.578l7.269,4.2a1.488,1.488,0,0,1,.695,1.153c0,.415-.31.573-.695.351l-7.269-4.2a1.491,1.491,0,0,1-.695-1.153C433.939,221.513,434.251,221.356,434.634,221.578Z" transform="translate(-409.806 -149.437)" fill="#27debf"/><g transform="translate(0 16.003)"><path d="M415.042,176.085l18.941,10.928a1.484,1.484,0,0,1,.695,1.152c0,.416-.31.573-.695.351l-18.941-10.927a1.491,1.491,0,0,1-.695-1.153C414.347,176.021,414.659,175.863,415.042,176.085Z" transform="translate(-414.347 -175.984)" fill="#27debf"/><path d="M415.042,176.085l18.941,10.928a1.484,1.484,0,0,1,.695,1.152c0,.416-.31.573-.695.351l-18.941-10.927a1.491,1.491,0,0,1-.695-1.153C414.347,176.021,414.659,175.863,415.042,176.085Z" transform="translate(-414.347 -175.984)" fill="#256de9" opacity="0.6"/></g><g transform="translate(0 22.007)"><path d="M415.042,180.959l6.426,3.706a1.486,1.486,0,0,1,.694,1.153c0,.415-.31.572-.694.351l-6.426-3.706a1.487,1.487,0,0,1-.695-1.153C414.347,180.895,414.659,180.738,415.042,180.959Z" transform="translate(-414.347 -180.859)" fill="#27debf"/><path d="M415.042,180.959l6.426,3.706a1.486,1.486,0,0,1,.694,1.153c0,.415-.31.572-.694.351l-6.426-3.706a1.487,1.487,0,0,1-.695-1.153C414.347,180.895,414.659,180.738,415.042,180.959Z" transform="translate(-414.347 -180.859)" fill="#fff" opacity="0.6"/></g><g transform="translate(0 28.023)"><path d="M415.042,185.843l6.426,3.705a1.49,1.49,0,0,1,.694,1.153c0,.415-.31.573-.694.351l-6.426-3.705a1.491,1.491,0,0,1-.695-1.153C414.347,185.779,414.659,185.621,415.042,185.843Z" transform="translate(-414.347 -185.742)" fill="#27debf"/><path d="M415.042,185.843l6.426,3.705a1.49,1.49,0,0,1,.694,1.153c0,.415-.31.573-.694.351l-6.426-3.705a1.491,1.491,0,0,1-.695-1.153C414.347,185.779,414.659,185.621,415.042,185.843Z" transform="translate(-414.347 -185.742)" fill="#fff" opacity="0.6"/></g><g transform="translate(0 34.038)"><path d="M415.042,190.726l6.426,3.706a1.486,1.486,0,0,1,.694,1.152c0,.416-.31.573-.694.351l-6.426-3.705a1.491,1.491,0,0,1-.695-1.153C414.347,190.662,414.659,190.5,415.042,190.726Z" transform="translate(-414.347 -190.625)" fill="#27debf"/></g><path d="M415.042,190.725l6.426,3.705a1.49,1.49,0,0,1,.694,1.153c0,.415-.31.573-.694.351l-6.426-3.705a1.491,1.491,0,0,1-.695-1.153C414.347,190.661,414.659,190.5,415.042,190.725Z" transform="translate(-414.347 -156.588)" fill="#fff" opacity="0.6"/><path d="M423.5,195.608l18.942,10.928a1.491,1.491,0,0,1,.695,1.153c0,.415-.312.573-.695.351L423.5,197.112a1.484,1.484,0,0,1-.695-1.153C422.806,195.544,423.116,195.386,423.5,195.608Z" transform="translate(-412.386 -155.456)" fill="#27debf" opacity="0.6"/><path d="M441.063,205.741l8.237,4.771a1.49,1.49,0,0,1,.693,1.153c0,.415-.31.573-.693.351l-8.237-4.771a1.488,1.488,0,0,1-.695-1.153C440.368,205.677,440.678,205.519,441.063,205.741Z" transform="translate(-408.316 -153.107)" fill="#27debf" opacity="0.6"/><path d="M423.5,195.608l18.942,10.928a1.491,1.491,0,0,1,.695,1.153c0,.415-.312.573-.695.351L423.5,197.112a1.484,1.484,0,0,1-.695-1.153C422.806,195.544,423.116,195.386,423.5,195.608Z" transform="translate(-412.386 -155.456)" fill="#fff" opacity="0.6"/><path d="M441.063,205.741l8.237,4.771a1.49,1.49,0,0,1,.693,1.153c0,.415-.31.573-.693.351l-8.237-4.771a1.488,1.488,0,0,1-.695-1.153C440.368,205.677,440.678,205.519,441.063,205.741Z" transform="translate(-408.316 -153.107)" fill="#fff" opacity="0.6"/><g transform="translate(0 40.054)"><path d="M415.042,195.61l6.426,3.705a1.49,1.49,0,0,1,.694,1.153c0,.415-.31.573-.694.351l-6.426-3.706a1.487,1.487,0,0,1-.695-1.152C414.347,195.545,414.659,195.388,415.042,195.61Z" transform="translate(-414.347 -195.509)" fill="#27debf"/><path d="M415.042,195.61l6.426,3.705a1.49,1.49,0,0,1,.694,1.153c0,.415-.31.573-.694.351l-6.426-3.706a1.487,1.487,0,0,1-.695-1.152C414.347,195.545,414.659,195.388,415.042,195.61Z" transform="translate(-414.347 -195.509)" fill="#fff" opacity="0.6"/></g><g transform="translate(21.633 28.484)"><path d="M432.6,186.217l8.237,4.772a1.487,1.487,0,0,1,.695,1.152c0,.416-.312.573-.695.352l-8.237-4.772a1.487,1.487,0,0,1-.695-1.152C431.909,186.153,432.221,186,432.6,186.217Z" transform="translate(-431.909 -186.117)" fill="#256de9"/><path d="M432.6,186.217l8.237,4.772a1.487,1.487,0,0,1,.695,1.152c0,.416-.312.573-.695.352l-8.237-4.772a1.487,1.487,0,0,1-.695-1.152C431.909,186.153,432.221,186,432.6,186.217Z" transform="translate(-431.909 -186.117)" fill="#256de9" opacity="0.6"/></g><g transform="translate(18.234 56.586)"><path d="M429.845,209.031l18.942,10.928a1.49,1.49,0,0,1,.693,1.153c0,.415-.31.573-.693.351l-18.942-10.927a1.491,1.491,0,0,1-.695-1.153C429.15,208.967,429.462,208.81,429.845,209.031Z" transform="translate(-429.15 -208.931)" fill="#fff"/></g><g transform="translate(29.163 68.935)"><path d="M438.717,219.057l18.941,10.928a1.484,1.484,0,0,1,.695,1.152c0,.416-.31.573-.695.352l-18.941-10.928a1.488,1.488,0,0,1-.695-1.153C438.022,218.993,438.332,218.835,438.717,219.057Z" transform="translate(-438.022 -218.956)" fill="#fff"/></g><g transform="translate(39.867 69.067)"><path d="M447.407,219.164l8.237,4.771a1.491,1.491,0,0,1,.695,1.153c0,.415-.312.573-.695.351l-8.237-4.771a1.491,1.491,0,0,1-.695-1.153C446.712,219.1,447.024,218.942,447.407,219.164Z" transform="translate(-446.712 -219.063)" fill="#fff"/></g><g transform="translate(39.867 92.893)"><path d="M447.407,238.506l8.237,4.772a1.487,1.487,0,0,1,.695,1.153c0,.415-.312.572-.695.351l-8.237-4.772a1.487,1.487,0,0,1-.695-1.152C446.712,238.442,447.024,238.285,447.407,238.506Z" transform="translate(-446.712 -238.406)" fill="#e6e6e6"/></g><g transform="translate(10.42 28.023)"><path d="M423.5,185.843l18.942,10.928a1.487,1.487,0,0,1,.695,1.153c0,.415-.312.572-.695.351L423.5,187.347a1.488,1.488,0,0,1-.695-1.153C422.806,185.779,423.116,185.621,423.5,185.843Z" transform="translate(-422.806 -185.742)" fill="#256de9"/><path d="M423.5,185.843l18.942,10.928a1.487,1.487,0,0,1,.695,1.153c0,.415-.312.572-.695.351L423.5,187.347a1.488,1.488,0,0,1-.695-1.153C422.806,185.779,423.116,185.621,423.5,185.843Z" transform="translate(-422.806 -185.742)" fill="#256de9" opacity="0.6"/></g><g transform="translate(32.052 40.504)"><path d="M441.063,195.976l8.237,4.771a1.486,1.486,0,0,1,.693,1.153c0,.415-.31.572-.693.351l-8.237-4.771a1.488,1.488,0,0,1-.695-1.153C440.368,195.911,440.678,195.754,441.063,195.976Z" transform="translate(-440.368 -195.875)" fill="#256de9"/><path d="M441.063,195.976l8.237,4.771a1.486,1.486,0,0,1,.693,1.153c0,.415-.31.572-.693.351l-8.237-4.771a1.488,1.488,0,0,1-.695-1.153C440.368,195.911,440.678,195.754,441.063,195.976Z" transform="translate(-440.368 -195.875)" fill="#256de9" opacity="0.6"/></g></g></g><g transform="translate(219.516 242.976)"><path d="M336.62,255.928l11.61,6.7a12.776,12.776,0,0,0,12.811-.675l19.149-13.982c3.416-2.486,3.222-6.218-.434-8.337l-5.821-3.373a15.809,15.809,0,0,0-13.458-.408l-23.642,12.819C333.057,250.569,332.961,253.816,336.62,255.928Z" transform="translate(-333.938 -234.156)" opacity="0.15"/><path d="M380.155,241.972,366.906,252.33l-9.778,7.649a9.031,9.031,0,0,1-7.757-.229l-10.389-6a.015.015,0,0,1-.015-.016l-.06-.033a7.342,7.342,0,0,1-2.1-10.512q.15-.214.307-.425a13.811,13.811,0,0,1,8.354-5.293l5.263-1.056c8.521-1.729,15.514-2.571,16.325-2.02l13.02,7.543A.112.112,0,0,1,380.155,241.972Z" transform="translate(-333.586 -234.23)" fill="#37474f"/><path d="M369.544,247.466l.744-.583L358.6,240.138l10.224-3.164-1.033-.6-10.225,3.164-6.967-4.023c-.434.08-.876.165-1.32.25Z" transform="translate(-330.381 -233.931)" fill="#258edc"/><path d="M354.785,257.909c.016-.015.046-.031.062-.046a.015.015,0,0,1,.015-.016l9.3-6.717,12.562-9.072v-1.424a.114.114,0,0,0-.062-.106.112.112,0,0,0-.076-.031c-.932-.322-6.379,1.316-12.96,3.932l-4.361,1.729a13.556,13.556,0,0,0-3.718,2.2,13.861,13.861,0,0,0-5.033,10.694v.23a8.6,8.6,0,0,0,3.121-.75Z" transform="translate(-330.095 -232.787)" fill="#263238"/></g></g><g transform="translate(405.749 319.765)"><g transform="translate(7.552 61.213)"><g transform="translate(0 10.551)"><path d="M375.373,420.064c-12.783-13.19-20.292-66.871-7.824-77.334h63.441c12.466,10.459,4.964,64.122-7.811,77.322-.11.122-.235.241-.35.362-.147.147-.293.294-.441.436-.361.354-.744.7-1.155,1.038-.1.085-.2.16-.305.243-.313.249-.622.5-.964.738a17.793,17.793,0,0,1-1.653,1.067c-10.514,6.139-27.564,6.139-38.078,0h0a17.544,17.544,0,0,1-1.663-1.075c-.319-.223-.6-.456-.9-.686-.126-.1-.253-.195-.378-.3-.4-.328-.766-.661-1.115-1-.171-.161-.339-.333-.508-.5C375.571,420.267,375.464,420.167,375.373,420.064Z" transform="translate(-361.164 -342.73)" fill="#707070"/></g><g transform="translate(1.041)"><path d="M425.284,340.5c14.475,8.451,14.475,22.152,0,30.6s-37.944,8.451-52.419,0-14.475-22.152,0-30.6S410.809,332.051,425.284,340.5Z" transform="translate(-362.009 -334.164)" fill="#27debf"/></g><g transform="translate(1.041)" opacity="0.7"><path d="M425.284,340.5c14.475,8.451,14.475,22.152,0,30.6s-37.944,8.451-52.419,0-14.475-22.152,0-30.6S410.809,332.051,425.284,340.5Z" transform="translate(-362.009 -334.164)" fill="#258edc"/></g><g transform="translate(10.886 5.748)"><path d="M416.47,343.485c10.629,6.207,10.629,16.269,0,22.475s-27.865,6.207-38.5,0-10.63-16.269,0-22.476S405.84,337.279,416.47,343.485Z" transform="translate(-370.001 -338.83)" fill="#fff"/></g><g transform="translate(10.886 5.748)" opacity="0.3"><path d="M416.47,343.485c10.629,6.207,10.629,16.269,0,22.475s-27.865,6.207-38.5,0-10.63-16.269,0-22.476S405.84,337.279,416.47,343.485Z" transform="translate(-370.001 -338.83)"/></g><g transform="translate(12.492 16.414)"><path d="M377.672,352.145c10.63-6.207,27.865-6.207,38.5,0a17.738,17.738,0,0,1,6.367,5.9,17.738,17.738,0,0,1-6.367,5.9c-10.63,6.207-27.865,6.207-38.5,0a17.728,17.728,0,0,1-6.367-5.9A17.738,17.738,0,0,1,377.672,352.145Z" transform="translate(-371.305 -347.49)" fill="#f5f5f5"/></g></g><g transform="translate(38.622)"><path d="M388.227,339.663a17.6,17.6,0,0,1-1.619-4.628c-.711-3.865.254-8.295,3.38-10.675,1.245-.946,2.865-1.648,3.394-3.119a5.012,5.012,0,0,0,.032-2.555c-.58-3.3-1.695-6.7-.777-9.918a11.1,11.1,0,0,1,6.153-6.594,33.362,33.362,0,0,1,8.965-2.342,14.348,14.348,0,0,0,4.741-1.36c1.771-.992,2.322-2.743,3.427-4.282a29.861,29.861,0,0,1,4.348-4.646c3.231-2.886,7.277-5.261,11.75-5.064,9.33.413,9.067,8.441,6.373,14.529s-3.4,8.068,2.427,14.409,5.841,14.157-1.112,18.536-11.483,4.953-8.728,13.381c2.459,7.523,3.981,13.946-2.972,21.987-4.494,5.2-10.638,8.906-18.324,8.59a30.8,30.8,0,0,1-8.99-2.1c-2.116-1.052-.69-2.7-1.405-4.784q-2.3-6.727-4.607-13.456c-1.189-3.472-2.094-7.323-3.665-10.613C390.137,343.118,389.1,341.433,388.227,339.663Z" transform="translate(-386.387 -284.47)" fill="#707070"/><g transform="translate(13.61 13.593)"><path d="M398.352,371.221a.691.691,0,0,0,.461-.661c-.393-46.09,25.009-73.608,25.266-73.88a.7.7,0,0,0-.026-.982.679.679,0,0,0-.971.022c-.26.276-26.042,28.172-25.642,74.849a.689.689,0,0,0,.911.652Z" transform="translate(-397.436 -295.505)" fill="#258edc"/></g><g transform="translate(21.009 35.881)"><path d="M404.355,324.157a.76.76,0,0,0,.139-.068c8.265-5.2,23.016-9.082,23.164-9.124a.694.694,0,0,0-.346-1.344c-.613.158-15.1,3.975-23.546,9.289a.7.7,0,0,0-.218.956A.686.686,0,0,0,404.355,324.157Z" transform="translate(-403.443 -313.599)" fill="#258edc"/></g><g transform="translate(16.05 26.129)"><path d="M407.84,319.671l.036-.014a.7.7,0,0,0,.376-.905,53.181,53.181,0,0,0-7.625-12.824.681.681,0,0,0-.968-.081.7.7,0,0,0-.078.979,52.875,52.875,0,0,1,7.4,12.45A.686.686,0,0,0,407.84,319.671Z" transform="translate(-399.417 -305.682)" fill="#258edc"/></g></g><g transform="translate(0 26.422)"><path d="M401.7,373.8a38.8,38.8,0,0,1-20.236.749c-11.611-2.515-18.714-13.356-18.714-13.356s12.558-5.032,19.883-5.521c0,0-11.364-1.936-22,.472,0,0-6.722-2.5-5.448-13.853,0,0,6.326-4.662,20.887-2.836,0,0-7.3-5.208-20.088-6.745-1.006.01.355-14.775,1.575-21.365s3.639-5.573,8.87-5,20.7,4.091,22.665,7.886.054,13.47.054,13.47a22.13,22.13,0,0,0,4.269-12.663s5.824,2.129,8.937,4.878a20.692,20.692,0,0,1,5.569,6.972c-.728,5.188-3.168,13.1-6.591,17.525,0,0,7.712-4.979,9.475-14.152,0,0,6.168,7.877,6.107,18.049C416.854,359.9,411.7,368.514,401.7,373.8Z" transform="translate(-355.033 -305.92)" fill="#707070"/><g transform="translate(10.234 1.797)"><path d="M401.313,372.431a.669.669,0,0,1-.42-.569c-1.755-21.995-26.365-56.354-37.243-63.252a.673.673,0,0,1-.208-.92.66.66,0,0,1,.91-.211c11.057,7.013,36.073,41.93,37.855,64.276a.663.663,0,0,1-.6.718A.653.653,0,0,1,401.313,372.431Z" transform="translate(-363.341 -307.379)" fill="#258edc"/></g></g></g><g transform="translate(64.255 109.606)"><g transform="translate(0)"><g transform="translate(129.272 188.881)"><g transform="translate(27.759 77.941)"><path d="M214.235,352.631c-.044-.246-3.954-14.526-3.954-14.526s1.287,1.314,9.546-.865a46.745,46.745,0,0,0,8.978-3.769l2.359,10.439c2.2,4.019,9.49,2.169,17.475,1.259,1.344-.153,2.723-.377,4.1-.615l.084-.01c4.312-.236,8.642,2.354,4.158,6.031s-11.879,5.071-18.7,6.3C230.087,358.36,215.706,360.769,214.235,352.631Z" transform="translate(-210.281 -333.471)" fill="#ffa8a7"/><g transform="translate(1.766 9.705)"><path d="M271,348a8.374,8.374,0,0,1,.6,4.388c-.156,1.591-4.089,6.989-11.038,10.292s-15.545,3.525-19.569,4.683-7.71,3.469-12.451,4.623c-4.886,1.19-9.431,1.766-14.183-1.362-.876-1.351-1.845-4.469-1.564-4.772C213.55,365.033,271,348,271,348Z" transform="translate(-211.476 -339.808)" fill="#263238"/><path d="M232.085,343.476c3.059,2.115,9.386.647,16.223-.133,6.447-.733,13.707-3,18.089-1.481s8.046,6.679,2.124,13.292c-1.713,1.913-5.34,5.279-8.237,6.318-7.362,2.636-13.968,2.849-18.7,4.017-6.163,1.521-9.529,4.25-15.23,4.911-7.377.856-12.043-1.04-13.318-3.009s-2.46-17.849.7-17.521c0,0,1.33,5.139,13.38.149C232.373,347.84,232.29,344.633,232.085,343.476Z" transform="translate(-211.714 -341.35)" fill="#707070"/><path d="M246.427,351.635s-.692-6.707-5.647-8.482a2.6,2.6,0,0,0-2.731.36s4.6.668,6.106,8.533c0,0,.236.52,1.238.339C245.733,352.323,246.475,352.19,246.427,351.635Z" transform="translate(-205.61 -340.987)" fill="#fafafa"/><path d="M234.619,343.914s-.006-.222,1.164-.44a2.075,2.075,0,0,1,1.359.148s3.7,1.6,4.388,8.611c0,0-.03.845-1.138,1.078a1.02,1.02,0,0,1-1.323-.687S238.308,345.25,234.619,343.914Z" transform="translate(-206.405 -340.867)" fill="#fafafa"/><path d="M231.4,344.02s.207-.423,1.077-.418c1.1.006,1.35.43,1.35.43s2.632,2.7,2.662,8.555c0,0,.11.993-1.271,1.094s-1.183-1.02-1.183-1.02S233.557,345.2,231.4,344.02Z" transform="translate(-207.152 -340.827)" fill="#fafafa"/></g></g><path d="M214.358,270.2c6.037,18.145,22.05,80.63,22.05,80.63s-10.421,9.363-21.727,5.1l-26.935-77.808Z" transform="translate(-187.745 -270.196)" fill="#37474f"/></g><g transform="translate(167.118 208.379)"><g transform="translate(29.451 78.428)"><path d="M248.243,369.043c-1.234-1.832-5.865-14.54-5.865-14.54s4.836,2.762,13.146.787c4.225-1.005,8.174-5.595,8.174-5.595l3.549,12.217c2.1,4.072,8.88,2.725,16.887,2.013,1.346-.121,2.731-.312,4.118-.515l.083-.009c4.317-.131,8.582,2.566,4.009,6.132s-12,4.778-18.846,5.842C265.262,376.655,252.86,375.9,248.243,369.043Z" transform="translate(-242.378 -349.695)" fill="#ffa8a7"/><g transform="translate(3.601 9.941)"><path d="M309.418,365.091a8.983,8.983,0,0,1,.526,4.725c-.209,1.7-4.575,7.4-12.121,10.758s-16.782,3.374-21.132,4.512-8.369,3.52-13.489,4.635c-5.277,1.148-10.171,1.648-15.19-1.837-.9-1.474-1.864-4.847-1.553-5.165C247.291,381.864,309.418,365.091,309.418,365.091Z" transform="translate(-245.047 -356.068)" fill="#263238"/><path d="M267.876,359.128a14.446,14.446,0,0,0,1.514.939,4.6,4.6,0,0,0,1.681.34,23.837,23.837,0,0,0,4.033.1c3.384-.168,6.742-.677,10.113-.978,6.941-.618,14.795-2.859,19.458-1.112s8.923,7.361,2.391,14.3c-1.89,2.009-5.778,5.4-8.754,6.641-7.748,3.241-15.787,2.635-20.9,3.764-6.655,1.471-10.342,4.311-16.48,4.872-7.941.724-12.9-1.434-14.217-3.582-.735-1.2.083-7.425-.913-12.261-.857-4.163-.633-7,.865-6.807a7.433,7.433,0,0,0,1.159,1.472,5.472,5.472,0,0,0,1.761,1.392,13.956,13.956,0,0,0,2.98,1,17.32,17.32,0,0,0,5.531.759,2.666,2.666,0,0,0,1.5-.477,3.147,3.147,0,0,0,.873-1.878q.2-.918.39-1.837a2.7,2.7,0,0,1,.336-.958,2.6,2.6,0,0,1,.942-.749,8.09,8.09,0,0,0,3.025-2.306,7.083,7.083,0,0,0,.887-2.85.718.718,0,0,1,.2-.469c.227-.18.556-.027.8.128C267.328,358.754,267.6,358.941,267.876,359.128Z" transform="translate(-245.301 -357.766)" fill="#707070"/><path d="M282.854,368.628s-.565-7.219-5.839-9.254a2.793,2.793,0,0,0-2.941.313s4.921.838,6.33,9.322c0,0,.241.564,1.322.4C282.09,369.348,282.891,369.223,282.854,368.628Z" transform="translate(-238.632 -357.46)" fill="#fafafa"/><path d="M270.38,360.028s0-.239,1.261-.443a2.22,2.22,0,0,1,1.454.2s3.927,1.816,4.485,9.36a1.345,1.345,0,0,1-1.251,1.127,1.094,1.094,0,0,1-1.4-.772S274.306,361.558,270.38,360.028Z" transform="translate(-239.489 -357.352)" fill="#fafafa"/><path d="M266.92,360.058s.234-.448,1.168-.42c1.178.036,1.437.5,1.437.5s2.754,2.965,2.632,9.254c0,0,.09,1.068-1.394,1.141s-1.243-1.127-1.243-1.127S269.206,361.379,266.92,360.058Z" transform="translate(-240.291 -357.332)" fill="#fafafa"/></g></g><path d="M249.723,287.953c4.755,14.621,16.893,56.247,22.438,77.655,0,0-9.965,8.961-22.783,8.179l-30.909-80.145,12.31-7.617Z" transform="translate(-218.469 -286.025)" fill="#455a64"/></g><g transform="translate(13.826 189.303)"><g transform="translate(80.782 88.249)"><path d="M161.607,475.022a2,2,0,0,0,2-2V344.186a2,2,0,1,0-4.007,0V473.02A2,2,0,0,0,161.607,475.022Z" transform="translate(-159.603 -342.182)" fill="#455a64"/></g><g transform="translate(1.072 70.195)"><path d="M96.9,431.527a2,2,0,0,0,1.862-1.269l39.506-99.991a2,2,0,1,0-3.726-1.472L95.032,428.788a2.006,2.006,0,0,0,1.864,2.739Z" transform="translate(-94.892 -327.525)" fill="#455a64"/></g><g transform="translate(5.817 78.851)"><path d="M100.748,417.888a2,2,0,0,0,1.456-.628l73.51-77.788,73.377,77.46A2,2,0,1,0,252,414.176l-74.833-79a2,2,0,0,0-1.454-.626h0a1.994,1.994,0,0,0-1.453.628L99.292,414.508a2,2,0,0,0,1.456,3.38Z" transform="translate(-98.744 -334.552)" fill="#455a64"/></g><g transform="translate(120.984 70.195)"><path d="M233.75,431.527a1.979,1.979,0,0,0,.735-.142,2,2,0,0,0,1.128-2.6l-39.506-99.993a2,2,0,0,0-3.726,1.472l39.506,99.991A2,2,0,0,0,233.75,431.527Z" transform="translate(-192.24 -327.525)" fill="#455a64"/></g><g transform="translate(1.914)"><path d="M257.122,316.609c1.438-8.081-5.146-14.387-17.533-22.746A292.045,292.045,0,0,0,203.7,273.7c-10.362-4.757-20.962-4.319-34.229,2.5-18.431,9.47-73.9,43.105-73.9,43.105s82.922,46.814,98.878,44.715,55.832-28.03,58.991-37.158S257.122,316.609,257.122,316.609Z" transform="translate(-95.576 -270.539)" fill="#707070"/></g><g transform="translate(1.914)" opacity="0.4"><path d="M257.122,316.609c1.438-8.081-5.146-14.387-17.533-22.746A292.045,292.045,0,0,0,203.7,273.7c-10.362-4.757-20.962-4.319-34.229,2.5-18.431,9.47-73.9,43.105-73.9,43.105s82.922,46.814,98.878,44.715,55.832-28.03,58.991-37.158S257.122,316.609,257.122,316.609Z" transform="translate(-95.576 -270.539)" fill="#707070"/></g><g transform="translate(92.782 46.071)"><path d="M169.345,345.5c11.9,10.777,24.347,1.5,44.033-11.273,22.278-14.456,26.646-26.289,26.646-26.289s0,8.865-1.662,13.02-5.263,8.864-21.33,19.944-27.7,16.62-38.5,18.678l-8.523-1.178" transform="translate(-169.345 -307.94)" fill="#258edc"/></g><g transform="translate(0 158.505)"><path d="M100.2,399.218l-6.1,14.069a1.394,1.394,0,0,0-.065.365,1.372,1.372,0,0,0-.012.26,1.694,1.694,0,0,0,.775.942,3.643,3.643,0,0,0,3.3.155,1.437,1.437,0,0,0,.674-.645.033.033,0,0,1,.01-.023l.049-.193,5.665-13.194Z" transform="translate(-94.022 -399.218)" fill="#258edc"/></g><g transform="translate(155.567 159.098)"><path d="M224.519,399.7l5.224,13.784a1.384,1.384,0,0,1,.047.352,1.413,1.413,0,0,1,0,.25,1.634,1.634,0,0,1-.787.87,3.5,3.5,0,0,1-3.179,0,1.383,1.383,0,0,1-.618-.65.031.031,0,0,0-.007-.023l-.039-.187-4.842-12.923Z" transform="translate(-220.316 -399.699)" fill="#258edc"/></g><g transform="translate(80.474 208.533)"><path d="M159.353,440.411v11.4a1.149,1.149,0,0,0,.677.944,3.609,3.609,0,0,0,3.267,0,1.151,1.151,0,0,0,.677-.944v-11.4A4.9,4.9,0,0,0,159.353,440.411Z" transform="translate(-159.353 -439.832)" fill="#258edc"/></g></g><g transform="translate(35.972)"><g transform="translate(0 175.457)"><g transform="translate(12.979)"><path d="M122.538,270.906c4.723,5.5,47.7-6.863,59.085-8.414,18.365-2.5,33.315-4.328,39.545-2.37s8.88,5.135,10.79,12.6c2.252,8.8,3.419,13.291,3.419,13.291s-30.511,11.712-54.57,14.531S122.538,270.906,122.538,270.906Z" transform="translate(-122.538 -259.298)" fill="#37474f"/></g><g transform="translate(0 13.428)"><path d="M116.963,276.445c-4.765,18.15-9.045,39.268,1.982,50.828,7.426,7.786,44.73,28.007,68.8,20.041,23.708-7.849,72.8-44.294,77.724-47.963s9.407-6.17,8.937-7.731c-6.621-21.979-16.3-23.7-34.237-19.749-21.941,4.827-70.112,24.485-70.112,24.485Z" transform="translate(-112.001 -270.199)" fill="#455a64"/></g></g><g transform="translate(64.007)"><g transform="translate(6.671 58.59)"><path d="M212.664,184.25l-16.551,18.716-26.735-12.684,18.689-25.86Z" transform="translate(-169.379 -164.421)" fill="#ffa8a7"/></g><g transform="translate(11.31 14.759)"><g transform="translate(59.181 28.111)"><path d="M221.19,151.659s6.775,9.787,6.052,10.779-5.522,1.984-5.522,1.984Z" transform="translate(-221.19 -151.659)" fill="#f28f8f"/></g><circle cx="7.36" cy="7.36" r="7.36" transform="translate(51.768 19.111)" fill="none" stroke="#263238" stroke-miterlimit="10" stroke-width="1.207"/><path d="M213.514,129.878c13.314,2.492,17.275,8.23,19.005,29.251,1.808,21.966-.28,28.931-3.1,31.96-1.9,2.042-12.737,2.652-18.239,1.27-6.888-1.731-22.48-6.857-29.978-17.755-8.818-12.823-11.462-30.414-2.5-37.859C191.3,126.265,208.1,128.864,213.514,129.878Z" transform="translate(-173.145 -128.838)" fill="#ffa8a7"/><path d="M204.79,181.5c5.73,1.295,14.443.512,17.031-.973a19.536,19.536,0,0,1-9.637-.355,31.544,31.544,0,0,1-8.829-3.892Z" transform="translate(-166.143 -117.841)" fill="#f28f8f"/></g><path d="M237.114,141.258l-.038.026c-3.716,2.563-8.25,3.63-12.712,4.324.352,3.565-.771,7.093-1.88,10.5-.767,2.358-3.536,9.762-6.552,5.7-2.178-2.937-4.159-5.61-8.329-4.89-6.875,1.187-7.6,10-3.135,15.243s8.475,3.1,8.475,3.1.633,9.475-4.364,16.172c0,0-7.458,4.585-17.925,1.136-6.606-2.178-16.14-10.507-19.653-17.007-9.669-17.892-9.719-35.032,2.008-40.305,1.084-8.576,7.726-12.562,15.357-14.5,10.576-2.687,21.566,3.949,31.792-.431,2.153-.923,4.135-2.23,6.339-3.029a4.342,4.342,0,0,1,3.806.014,4.579,4.579,0,0,1,1.627,2.908c.488,2.036.676,4.311-.4,6.106a17.911,17.911,0,0,1,4.806-1.77,6.048,6.048,0,0,1,4.859,1.1,6.243,6.243,0,0,1,1.95,4.236C243.561,134.362,240.811,138.692,237.114,141.258Z" transform="translate(-163.964 -116.856)" fill="#263238"/><g transform="translate(0.868 14.41)"><path d="M172.705,135.406l-8.037-4.494a4.6,4.6,0,0,1,8.037,4.494Z" transform="translate(-164.668 -128.555)" fill="#263238"/></g><line y1="4.811" x2="25.746" transform="translate(51.968 40.135)" fill="none" stroke="#263238" stroke-miterlimit="10" stroke-width="1.027"/></g><path d="M259.362,190.631c-.694-1.16-2.232-1.386-3.508-1.832-2.366-.825-4.214-2.711-6.493-3.754a12.738,12.738,0,0,0-8.2-.553,19.744,19.744,0,0,0-2.74.876,35.091,35.091,0,0,0-4.894,2.481c-6.525,3.862-11.427,12.59-17.841,16.595-2.391,1.492-4.623,2.847-6.824,4.2l15.32,13.659a92.085,92.085,0,0,1,7.557-5.755c3.772-2.244,7.577-2.295,11.814-2.908a58.636,58.636,0,0,0,8.641-2.163,3.756,3.756,0,0,0,2.545-1.66c.544-1.21-.409-2.667-1.643-3.153-1.322-.52-3.061-.386-4.479-.613-1.1-.177-4.059.485-4.714-.632-.342-.584.083-1.3.505-1.833,2.657-3.312,6.018-6.862,10.271-7.859a8.934,8.934,0,0,0,3.741-1.484A2.955,2.955,0,0,0,259.362,190.631Z" transform="translate(-89.55 -101.277)" fill="#ffa8a7"/><path d="M185.14,177.81c-16.271-8.877-31.087-3.177-36.425,8.242-4.83,10.331-14.985,50.311-14.985,50.311C138.61,245.514,185.14,177.81,185.14,177.81Z" transform="translate(-106.965 -103.736)" fill="#256de9"/><g transform="translate(4.984 71.146)"><path d="M186.8,180.756l2.436-3.212c-18.37-8.727-34.818,2.738-49.3,25.273-15.614,24.287-23.808,59.163-23.887,95.968,0,0,3.118,16.539,24.016,24.813,22.172,8.778,53.1,5.059,62.74-17.922,0,0,.193-22.956,7.175-34.258,4.518-7.313,15.051-23.57,22.888-35.229,6.822-10.147,12.123-33.246-2.13-41.695a118.9,118.9,0,0,0-11.586-5.913C206.183,192.86,185.129,185.9,186.8,180.756Z" transform="translate(-116.047 -174.615)" fill="#27debf"/><path d="M186.857,180.838l2.381-3.3c-18.37-8.727-34.818,2.738-49.3,25.273-15.614,24.287-23.808,59.163-23.887,95.968,0,0,3.118,16.539,24.016,24.813,22.172,8.778,53.1,5.059,62.74-17.922,0,0,.193-22.956,7.175-34.258,4.518-7.313,15.051-23.57,22.888-35.229,6.822-10.147,12.123-33.246-2.13-41.695a118.9,118.9,0,0,0-11.586-5.913C206.183,192.86,185.185,185.986,186.857,180.838Z" transform="translate(-116.047 -174.615)" fill="#256de9" opacity="0.75"/><path d="M238.8,215.17a37.127,37.127,0,0,0,.572-13.377h0A71.683,71.683,0,0,1,225.5,222.977c-7.476,7.874-16.709,14.005-23.645,22.358-7.345,8.847-12.625,19.543-18.776,29.207-2.469,3.879-5.837,11.358-10.426,11.656-5.59.363-10.936-6.451-13.984-11.151-4.863-7.5-9.041-16.866-15.088-23.447-5.283-5.751-13.457-13.118-20.656-9.78h0q-.807,2.866-1.521,5.8-.724,2.962-1.345,5.947l-.048.228q-.621,3-1.142,6.017c-.018.107-.037.214-.054.322q-.512,2.986-.926,5.988a196.249,196.249,0,0,0-1.838,26.366s3.118,16.539,24.016,24.813c22.172,8.778,53.1,5.059,62.74-17.922,0,0,.193-22.956,7.175-34.258.7-1.136,1.562-2.507,2.521-4.023l.009-.016c.054-.086.11-.171.164-.257.8-1.26,1.668-2.625,2.6-4.076.057-.089.112-.177.17-.266l.07-.11c1.994-3.11,4.23-6.57,6.546-10.12q.527-.809,1.054-1.616c2.236-3.421,4.513-6.881,6.686-10.149l.022-.034c.734-1.1,1.449-2.172,2.151-3.221l.9-1.34.006-.009c.245-.367.489-.754.73-1.153.073-.119.144-.244.216-.366.174-.3.347-.6.519-.915.075-.138.149-.276.223-.415q.281-.528.552-1.084c.046-.095.094-.186.139-.281q.347-.726.679-1.488l.025-.059c.014-.028.025-.059.038-.087q.294-.687.573-1.4c.044-.113.087-.228.132-.342q.257-.676.5-1.372l.037-.108c.018-.051.036-.1.053-.153q.438-1.286.812-2.63l.006-.02q.371-1.343.671-2.73l0-.025Z" transform="translate(-116.047 -168.315)" fill="#27debf" opacity="0.1"/></g><g transform="translate(105.706 91.76)"><path d="M304.7,239.754a35.165,35.165,0,0,1-3.817,3.942c-5.618,5.09-12.186,7.531-19.817,12.489-6.17,4.007-15.684,9.843-23.7,14.841a119.9,119.9,0,0,1-25.808,11.926c-7.45,2.189-11.618,2.281-16.023-9.651-2.159-5.851-3.871-11.856-5.736-17.808q-4.163-13.287-8.182-26.619s-9.906-24.425,12.256-36.694c9.644,5.518,13.317,7.753,16.342,19.3,3.616,13.828,9.48,41.123,9.48,41.123a193.531,193.531,0,0,0,22.907-9.75c2.812-1.4,6.27-2.367,8.276-4.87A38.542,38.542,0,0,0,274.4,232.5c.944-1.7,1.626-3.552,2.666-5.18,1.929-3.02,4.717-5.558,7.284-8.023a3.056,3.056,0,0,1,1.761-1.043,2.019,2.019,0,0,1,1.787,1.09c.817,1.423.058,2.818-.36,4.273q-.715,2.489-1.428,4.976a43.4,43.4,0,0,0,14.137-13.254,7.109,7.109,0,0,1,1.115-1.413,2.161,2.161,0,0,1,1.644-.6c1.486.185,2.954,2.579,3.028,3.947.075,1.394-.235,2.82.111,4.172.329,1.288,1.2,2.345,1.606,3.6a20.644,20.644,0,0,1,.844,3.99,13.715,13.715,0,0,1-2.248,8.359A19.661,19.661,0,0,1,304.7,239.754Z" transform="translate(-197.447 -191.158)" fill="#ffa8a7"/><path d="M212.917,191.35c8.448,3.414,14.526,7.271,18.377,20.152,3.872,12.955,8.026,33.556,8.026,33.556s.079,4.324-10.173,10.367a25.235,25.235,0,0,1-19.84,2.674l-7.742-24.878S187.84,199.947,212.917,191.35Z" transform="translate(-197.817 -191.35)" fill="#256de9"/></g></g><g transform="translate(0 142.446)"><path d="M189.04,375.89c-6.779-.341-12.084-5.318-28.2-12.033-29.76-12.4-52.08-22.32-60.583-37.909s-14.526-60.583-12.4-80.068a25.8,25.8,0,0,1,1.457-6.459l-2.092-.307,5.421-4.614v.014c5.56-4.542,14.61-.493,21.429,3.219,19.483,10.6,34.72,20.9,46.766,58.1,9.061,27.981,15.036,53.506,27.541,67.154" transform="translate(-81.773 -232.498)" fill="#258edc"/><g transform="translate(0 4.781)"><path d="M109.451,241.621c19.483,10.6,34.72,20.9,46.766,58.1s18.634,70.066,42.371,76.443c0,0-10.733,4.266-43.624-9.646-10.464-4.426-23.164-12.5-31.507-17.178-16.347-9.174-26.257-16.692-27.824-19.5-8.641-15.513-14.526-60.583-12.4-80.068S99.694,236.311,109.451,241.621Z" transform="translate(-82.798 -236.38)" fill="#707070"/></g></g></g></g><g transform="translate(169.485 0)"><path d="M196.029,112.389l-5.382-10.119,4.33-12.5V82.122l-13.25,7.651v7.651l5.7,9.867a.822.822,0,0,0,.387.344l0,0Z" transform="translate(-158.939 -11.606)" fill="#707070"/><path d="M196.029,112.389l-5.382-10.119,4.33-12.5V82.122l-13.25,7.651v7.651l5.7,9.867a.822.822,0,0,0,.387.344l0,0Z" transform="translate(-158.939 -11.606)" opacity="0.2"/><path d="M231.961,34.573a8.78,8.78,0,0,0-3.972-6.881l-3.235-1.867a8.783,8.783,0,0,0-7.945,0L167.2,54.517a8.783,8.783,0,0,0-3.974,6.881V115.98a8.781,8.781,0,0,0,3.974,6.881l3.235,1.867a8.778,8.778,0,0,0,7.946,0l15.954-9.217,5.685,9.847a.849.849,0,0,0,1.537-.145l6.007-17.345,20.424-11.831a8.78,8.78,0,0,0,3.973-6.881Z" transform="translate(-163.227 -24.875)" fill="#707070"/><path d="M163.228,109.844a8.78,8.78,0,0,0,3.973,6.881l3.235,1.867a8.874,8.874,0,0,0,7.266.32c-1.87.707-3.293-.347-3.293-2.614V61.717A8.127,8.127,0,0,1,175.57,57.8l-11.18-6.455a8.114,8.114,0,0,0-1.163,3.916Z" transform="translate(-163.227 -18.739)" opacity="0.2"/><path d="M231.61,33.443c-.463-1.686-2-2.225-3.837-1.168l-49.616,28.7a7.873,7.873,0,0,0-2.8,2.965l-11.175-6.45a8.019,8.019,0,0,1,2.8-2.966l49.6-28.7a8.834,8.834,0,0,1,7.951,0l3.243,1.871A8.766,8.766,0,0,1,231.61,33.443Z" transform="translate(-163.005 -24.874)" fill="#fff" opacity="0.5"/><g transform="translate(18.474 33.395)"><path d="M178.225,80.927a2.874,2.874,0,0,1,.2-1.134,7.561,7.561,0,0,1,.58-1.061L189.794,61.3a1.528,1.528,0,0,1,.175-.206.8.8,0,0,1,.122-.09.308.308,0,0,1,.4.016.713.713,0,0,1,.163.53V68.27a2.918,2.918,0,0,1-.31,1.4,9.82,9.82,0,0,1-.552.921l-5.562,8.482,5.562,2.556a2.22,2.22,0,0,1,.552.264q.31.194.31,1.025V87.7a1.648,1.648,0,0,1-.163.716,1.05,1.05,0,0,1-.4.483.484.484,0,0,1-.122.048.366.366,0,0,1-.175,0l-10.786-4.981a1.484,1.484,0,0,1-.58-.392,1.442,1.442,0,0,1-.2-.9Z" transform="translate(-178.225 -49.912)" fill="#fff"/><path d="M199.023,56.064a5.71,5.71,0,0,1,.405-1.084,1.926,1.926,0,0,1,.782-.845l3.613-2.087a.321.321,0,0,1,.419.03.726.726,0,0,1,.174.541,1.84,1.84,0,0,1-.054.406L195.247,91.87a4.975,4.975,0,0,1-.377,1.048,1.967,1.967,0,0,1-.809.883l-3.533,2.039a.317.317,0,0,1-.416-.028.729.729,0,0,1-.176-.543,1.78,1.78,0,0,1,.057-.4Z" transform="translate(-175.511 -51.986)" fill="#fff"/><path d="M215.742,61.909a2.859,2.859,0,0,1-.2,1.133,7.781,7.781,0,0,1-.581,1.063L204.173,81.54a1.252,1.252,0,0,1-.175.2.908.908,0,0,1-.121.092.311.311,0,0,1-.4-.016.713.713,0,0,1-.161-.53V74.566a2.791,2.791,0,0,1,.309-1.382c.206-.368.392-.67.552-.9l4.719-7.29-4.719-1.8a1.975,1.975,0,0,1-.552-.283c-.207-.145-.309-.493-.309-1.046V55.138a1.647,1.647,0,0,1,.161-.716,1.045,1.045,0,0,1,.4-.483.507.507,0,0,1,.121-.05.445.445,0,0,1,.175,0l10.785,4.983a1.506,1.506,0,0,1,.581.39,1.446,1.446,0,0,1,.2.9Z" transform="translate(-172.41 -51.546)" fill="#fff"/><path d="M178.225,80.927a2.874,2.874,0,0,1,.2-1.134,7.561,7.561,0,0,1,.58-1.061L189.794,61.3a1.528,1.528,0,0,1,.175-.206.8.8,0,0,1,.122-.09.308.308,0,0,1,.4.016.713.713,0,0,1,.163.53V68.27a2.918,2.918,0,0,1-.31,1.4,9.82,9.82,0,0,1-.552.921l-5.562,8.482,5.562,2.556a2.22,2.22,0,0,1,.552.264q.31.194.31,1.025V87.7a1.648,1.648,0,0,1-.163.716,1.05,1.05,0,0,1-.4.483.484.484,0,0,1-.122.048.366.366,0,0,1-.175,0l-10.786-4.981a1.484,1.484,0,0,1-.58-.392,1.442,1.442,0,0,1-.2-.9Z" transform="translate(-178.225 -49.912)" fill="#fff"/><path d="M199.023,56.064a5.71,5.71,0,0,1,.405-1.084,1.926,1.926,0,0,1,.782-.845l3.613-2.087a.321.321,0,0,1,.419.03.726.726,0,0,1,.174.541,1.84,1.84,0,0,1-.054.406L195.247,91.87a4.975,4.975,0,0,1-.377,1.048,1.967,1.967,0,0,1-.809.883l-3.533,2.039a.317.317,0,0,1-.416-.028.729.729,0,0,1-.176-.543,1.78,1.78,0,0,1,.057-.4Z" transform="translate(-175.511 -51.986)" fill="#fff"/><path d="M215.742,61.909a2.859,2.859,0,0,1-.2,1.133,7.781,7.781,0,0,1-.581,1.063L204.173,81.54a1.252,1.252,0,0,1-.175.2.908.908,0,0,1-.121.092.311.311,0,0,1-.4-.016.713.713,0,0,1-.161-.53V74.566a2.791,2.791,0,0,1,.309-1.382c.206-.368.392-.67.552-.9l4.719-7.29-4.719-1.8a1.975,1.975,0,0,1-.552-.283c-.207-.145-.309-.493-.309-1.046V55.138a1.647,1.647,0,0,1,.161-.716,1.045,1.045,0,0,1,.4-.483.507.507,0,0,1,.121-.05.445.445,0,0,1,.175,0l10.785,4.983a1.506,1.506,0,0,1,.581.39,1.446,1.446,0,0,1,.2.9Z" transform="translate(-172.41 -51.546)" fill="#fff"/></g></g><g transform="translate(19.26 2.468)"><path d="M109.3,27.279,42.917,65.518a3.639,3.639,0,0,0-1.648,2.853v37.055a3.6,3.6,0,0,0,1.657,2.836l6.552,3.725a3.69,3.69,0,0,0,3.3-.016l66.38-38.239a3.641,3.641,0,0,0,1.647-2.853V33.826a3.593,3.593,0,0,0-1.657-2.837L112.6,27.263A3.69,3.69,0,0,0,109.3,27.279Z" transform="translate(-41.269 -26.878)" fill="#263238"/><path d="M120.688,33.527c-.129-.829-.807-1.126-1.628-.654L52.688,71.114a3.368,3.368,0,0,0-1.164,1.233L41.688,66.69a3.286,3.286,0,0,1,1.134-1.173L109.2,27.277a3.684,3.684,0,0,1,3.3-.015l6.548,3.724A3.636,3.636,0,0,1,120.688,33.527Z" transform="translate(-41.172 -26.879)" fill="#707070"/><g transform="translate(9.865 5.771)"><path d="M117.3,31.789,50.925,70.028a3.641,3.641,0,0,0-1.647,2.853v37.053c0,1.049.738,1.476,1.647.951L117.3,72.645a3.641,3.641,0,0,0,1.647-2.853V32.74C118.951,31.69,118.214,31.263,117.3,31.789Z" transform="translate(-49.278 -31.564)" fill="#707070"/></g><g transform="translate(22.305 24.614)"><path d="M63.341,72.649c-.015.292-.025.689-.032,1.194S63.3,74.866,63.3,75.4s0,1.053.011,1.561.017.9.032,1.173a7.33,7.33,0,0,0,.19,1.325,2.078,2.078,0,0,0,.467.937,1.15,1.15,0,0,0,.807.367,2.28,2.28,0,0,0,1.207-.387,4.683,4.683,0,0,0,1.187-.946,5.87,5.87,0,0,0,.761-1.077,5.572,5.572,0,0,0,.457-1.1q.159-.549.244-.988a4.069,4.069,0,0,1,.233-.871,1.126,1.126,0,0,1,.488-.493l2.776-1.6a.249.249,0,0,1,.328.022.568.568,0,0,1,.139.426,13,13,0,0,1-.53,3.438,16.026,16.026,0,0,1-3.487,6.272,10.734,10.734,0,0,1-2.6,2.135,5.493,5.493,0,0,1-2.725.872,3.105,3.105,0,0,1-2.045-.729,4.526,4.526,0,0,1-1.3-2.069,10.96,10.96,0,0,1-.519-3.111q-.042-1.312-.043-2.847t.043-2.96a16.917,16.917,0,0,1,.509-3.7,17.5,17.5,0,0,1,1.3-3.577,14.618,14.618,0,0,1,2.045-3.089,10.622,10.622,0,0,1,2.735-2.28,5.8,5.8,0,0,1,2.6-.862,3.517,3.517,0,0,1,2.088.507,3.743,3.743,0,0,1,1.4,1.738,7.348,7.348,0,0,1,.53,2.826,1.354,1.354,0,0,1-.139.586.872.872,0,0,1-.328.4l-2.776,1.6q-.36.209-.488.07a1.445,1.445,0,0,1-.233-.6,4.525,4.525,0,0,0-.244-.708,1.325,1.325,0,0,0-.457-.569,1.288,1.288,0,0,0-.761-.2,2.649,2.649,0,0,0-1.187.424A4.373,4.373,0,0,0,64.8,68.329a5.7,5.7,0,0,0-.807,1.3,6.694,6.694,0,0,0-.467,1.477A11.541,11.541,0,0,0,63.341,72.649Z" transform="translate(-59.377 -43.53)" fill="#f0f0f0"/><path d="M78.447,54.893a5.558,5.558,0,0,1,2.491-.834,3.593,3.593,0,0,1,1.961.416,3.292,3.292,0,0,1,1.292,1.344,4.178,4.178,0,0,1,.488,1.9,1.369,1.369,0,0,1-.138.585.86.86,0,0,1-.307.389l-2.778,1.6a.627.627,0,0,1-.846-.033c-.044-.041-.111-.111-.2-.209a1.027,1.027,0,0,0-.393-.248,1.373,1.373,0,0,0-.636-.055,2.488,2.488,0,0,0-.932.357,6.314,6.314,0,0,0-.774.528,4.5,4.5,0,0,0-.657.641,3.005,3.005,0,0,0-.467.776,2.347,2.347,0,0,0-.181.919.991.991,0,0,0,.2.7.91.91,0,0,0,.679.212,5.483,5.483,0,0,0,1.261-.188q.783-.192,1.95-.506a6.425,6.425,0,0,1,2.034-.261,2.4,2.4,0,0,1,1.454.549,2.97,2.97,0,0,1,.868,1.455,9,9,0,0,1,.286,2.494,11.047,11.047,0,0,1-.487,3.252,13.213,13.213,0,0,1-1.369,3.024,13.677,13.677,0,0,1-2.076,2.619,12.941,12.941,0,0,1-2.619,2,6.424,6.424,0,0,1-2.629.931,3.578,3.578,0,0,1-2.045-.371,3.271,3.271,0,0,1-1.346-1.393,4.718,4.718,0,0,1-.509-2.152,1.361,1.361,0,0,1,.138-.586.844.844,0,0,1,.308-.389l2.776-1.6a.857.857,0,0,1,.467-.155.665.665,0,0,1,.338.147c.057.054.143.147.254.277a1.458,1.458,0,0,0,.458.34,1.394,1.394,0,0,0,.719.123,2.505,2.505,0,0,0,1.07-.389,7.987,7.987,0,0,0,1.876-1.458,2.572,2.572,0,0,0,.753-1.789.706.706,0,0,0-.276-.657,1.414,1.414,0,0,0-.827-.127,7.85,7.85,0,0,0-1.41.275q-.855.237-2.023.517-2.184.541-3.19-.557T72.448,65.4a11.077,11.077,0,0,1,.414-2.916A13.668,13.668,0,0,1,75.956,56.9,10.459,10.459,0,0,1,78.447,54.893Z" transform="translate(-56.446 -45.194)" fill="#f0f0f0"/><path d="M90.9,47.7a5.557,5.557,0,0,1,2.491-.834,3.577,3.577,0,0,1,1.961.418,3.284,3.284,0,0,1,1.293,1.343,4.165,4.165,0,0,1,.487,1.9,1.367,1.367,0,0,1-.137.585.846.846,0,0,1-.308.389l-2.778,1.6a.628.628,0,0,1-.846-.033c-.043-.041-.111-.111-.2-.209a1.021,1.021,0,0,0-.392-.248,1.376,1.376,0,0,0-.637-.055,2.488,2.488,0,0,0-.932.357,6.208,6.208,0,0,0-.772.528,4.572,4.572,0,0,0-.658.641,3.04,3.04,0,0,0-.467.776,2.369,2.369,0,0,0-.18.919.991.991,0,0,0,.2.7.9.9,0,0,0,.677.212,5.484,5.484,0,0,0,1.261-.188q.783-.192,1.95-.506a6.428,6.428,0,0,1,2.035-.261,2.4,2.4,0,0,1,1.452.549,2.961,2.961,0,0,1,.868,1.455,8.953,8.953,0,0,1,.286,2.494,11.041,11.041,0,0,1-.487,3.252,13.185,13.185,0,0,1-1.367,3.024,13.732,13.732,0,0,1-2.077,2.619,12.889,12.889,0,0,1-2.618,2,6.424,6.424,0,0,1-2.629.931,3.576,3.576,0,0,1-2.045-.371A3.247,3.247,0,0,1,84.992,70.3a4.727,4.727,0,0,1-.51-2.153,1.345,1.345,0,0,1,.139-.586.851.851,0,0,1,.307-.389l2.776-1.6a.873.873,0,0,1,.467-.155.673.673,0,0,1,.339.147c.055.054.142.148.254.277a1.452,1.452,0,0,0,.457.34,1.411,1.411,0,0,0,.719.124,2.536,2.536,0,0,0,1.072-.39,7.972,7.972,0,0,0,1.875-1.458,2.574,2.574,0,0,0,.754-1.789.7.7,0,0,0-.277-.657,1.422,1.422,0,0,0-.827-.127,7.839,7.839,0,0,0-1.409.275q-.857.237-2.024.517-2.184.541-3.19-.557t-1.006-3.906a11.026,11.026,0,0,1,.414-2.916,13.668,13.668,0,0,1,3.094-5.587A10.484,10.484,0,0,1,90.9,47.7Z" transform="translate(-53.558 -46.861)" fill="#f0f0f0"/></g><g transform="translate(0 77.003)"><path d="M109.3,89.793,42.917,128.032a3.638,3.638,0,0,0-1.648,2.852v37.055a3.594,3.594,0,0,0,1.657,2.836l6.552,3.725a3.687,3.687,0,0,0,3.3-.016l66.38-38.238a3.643,3.643,0,0,0,1.647-2.853V96.339a3.6,3.6,0,0,0-1.657-2.837L112.6,89.777A3.69,3.69,0,0,0,109.3,89.793Z" transform="translate(-41.269 -89.392)" fill="#263238"/><path d="M120.688,96.041c-.129-.83-.807-1.126-1.628-.655L52.688,133.628a3.364,3.364,0,0,0-1.164,1.232L41.688,129.2a3.292,3.292,0,0,1,1.134-1.171L109.2,89.791a3.684,3.684,0,0,1,3.3-.016l6.548,3.725A3.636,3.636,0,0,1,120.688,96.041Z" transform="translate(-41.172 -89.392)" fill="#707070"/><g transform="translate(9.865 5.771)"><path d="M117.3,94.3l-66.38,38.239a3.641,3.641,0,0,0-1.647,2.853v37.052c0,1.051.738,1.477,1.647.951l66.38-38.238a3.643,3.643,0,0,0,1.647-2.853V95.253C118.951,94.2,118.214,93.778,117.3,94.3Z" transform="translate(-49.278 -94.077)" fill="#707070"/></g><g transform="translate(14.61 21.044)"><path d="M65.107,125.829a.307.307,0,0,1,.4.03.7.7,0,0,1,.17.522v21.081a1.666,1.666,0,0,1-.17.718,1.062,1.062,0,0,1-.4.493l-2.778,1.6a.306.306,0,0,1-.4-.028.692.692,0,0,1-.171-.522v-8l-4.7,2.717v8a1.649,1.649,0,0,1-.171.717,1.066,1.066,0,0,1-.4.494l-2.776,1.6a.322.322,0,0,1-.4-.011.69.69,0,0,1-.17-.538V133.626a1.671,1.671,0,0,1,.17-.719,1.081,1.081,0,0,1,.4-.494l2.776-1.6a.306.306,0,0,1,.4.028.7.7,0,0,1,.171.524v7.864l4.7-2.716v-7.865a1.65,1.65,0,0,1,.171-.718,1.073,1.073,0,0,1,.4-.494Z" transform="translate(-53.13 -102.005)" fill="#f0f0f0"/><path d="M77.68,118.567a.309.309,0,0,1,.4.028.7.7,0,0,1,.17.523v3.458a1.671,1.671,0,0,1-.17.719,1.064,1.064,0,0,1-.4.493l-3.73,2.154v16.741a1.661,1.661,0,0,1-.17.717,1.068,1.068,0,0,1-.4.494L70.6,145.5a.308.308,0,0,1-.4-.028.694.694,0,0,1-.17-.521V128.207L66.3,130.36a.3.3,0,0,1-.4-.028.692.692,0,0,1-.17-.522v-3.459a1.648,1.648,0,0,1,.17-.718,1.073,1.073,0,0,1,.4-.494Z" transform="translate(-50.21 -103.688)" fill="#f0f0f0"/><path d="M84.5,131.954a1.506,1.506,0,0,1-.286-.374l-1.992-4.234v10.8a1.665,1.665,0,0,1-.17.717,1.075,1.075,0,0,1-.4.494l-2.776,1.6a.306.306,0,0,1-.4-.028.7.7,0,0,1-.17-.522V119.331a1.67,1.67,0,0,1,.17-.718,1.074,1.074,0,0,1,.4-.494l2.459-1.419c.283-.164.5-.165.636-.007a1.943,1.943,0,0,1,.276.362l3.433,7.057,3.435-11.022c.041-.133.134-.36.273-.68a1.517,1.517,0,0,1,.638-.728l2.457-1.419a.308.308,0,0,1,.4.028.7.7,0,0,1,.17.523V131.9a1.67,1.67,0,0,1-.17.718,1.078,1.078,0,0,1-.4.493l-2.776,1.6a.308.308,0,0,1-.4-.03.694.694,0,0,1-.17-.521v-10.8l-1.992,6.535a6.474,6.474,0,0,1-.286.7,1.236,1.236,0,0,1-.5.564L85,131.943C84.791,132.065,84.624,132.07,84.5,131.954Z" transform="translate(-47.295 -105.613)" fill="#f0f0f0"/><path d="M103.936,120.1a.306.306,0,0,1,.4.028.694.694,0,0,1,.171.522v3.46a1.654,1.654,0,0,1-.171.718,1.069,1.069,0,0,1-.4.493l-9.814,5.666a.306.306,0,0,1-.4-.028.7.7,0,0,1-.17-.522V109.352a1.675,1.675,0,0,1,.17-.719,1.077,1.077,0,0,1,.4-.493l2.776-1.6a.307.307,0,0,1,.4.03.692.692,0,0,1,.171.522v16.74Z" transform="translate(-43.761 -106.476)" fill="#f0f0f0"/></g></g><g transform="translate(0 154.006)"><g transform="translate(0 -0.475)"><path d="M109.3,152.307,42.917,190.545a3.641,3.641,0,0,0-1.648,2.853v37.055a3.594,3.594,0,0,0,1.657,2.836l6.552,3.725a3.69,3.69,0,0,0,3.3-.016l66.38-38.239a3.641,3.641,0,0,0,1.647-2.853V158.853a3.593,3.593,0,0,0-1.657-2.837L112.6,152.29A3.686,3.686,0,0,0,109.3,152.307Z" transform="translate(-41.269 -151.905)" fill="#263238"/><path d="M120.688,158.554c-.129-.829-.807-1.126-1.628-.654L52.688,196.141a3.368,3.368,0,0,0-1.164,1.233l-9.836-5.656a3.272,3.272,0,0,1,1.134-1.171l66.38-38.241a3.68,3.68,0,0,1,3.3-.016l6.548,3.724A3.639,3.639,0,0,1,120.688,158.554Z" transform="translate(-41.172 -151.906)" fill="#707070"/><g transform="translate(9.865 5.771)"><path d="M117.3,156.816l-66.38,38.238a3.645,3.645,0,0,0-1.647,2.853v37.053c0,1.051.738,1.476,1.647.951l66.38-38.239a3.641,3.641,0,0,0,1.647-2.853V157.767C118.951,156.717,118.214,156.29,117.3,156.816Z" transform="translate(-49.278 -156.591)" fill="#707070"/></g></g><text transform="matrix(0.766, -0.341, 0.059, 0.881, 27.953, 31.211)" fill="#e7e7e7" font-size="35" font-family="Poppins-Bold, Poppins" font-weight="700"><tspan x="0" y="37">JS</tspan></text></g></g></g></g></g></g></g></svg>